<?xml version="1.0" encoding="UTF-8" standalone="no"?>
<!-- Created with Inkscape (http://www.inkscape.org/) -->

<svg
   xmlns:dc="http://purl.org/dc/elements/1.1/"
   xmlns:cc="http://creativecommons.org/ns#"
   xmlns:rdf="http://www.w3.org/1999/02/22-rdf-syntax-ns#"
   xmlns:svg="http://www.w3.org/2000/svg"
   xmlns="http://www.w3.org/2000/svg"
   xmlns:xlink="http://www.w3.org/1999/xlink"
   xmlns:sodipodi="http://sodipodi.sourceforge.net/DTD/sodipodi-0.dtd"
   xmlns:inkscape="http://www.inkscape.org/namespaces/inkscape"
   width="288"
   height="320"
   id="svg2"
   version="1.1"
   inkscape:version="0.48.5 r10040"
   sodipodi:docname="cover-hex.svg"
   inkscape:export-filename="/home/z4k/www/keplerjs/packages/keplerjs-theme/assets/images/back-hex.png"
   inkscape:export-xdpi="90"
   inkscape:export-ydpi="90"
   style="enable-background:new"
   enable-background="new">
  <defs
     id="defs4">
    <linearGradient
       inkscape:collect="always"
       id="linearGradient4108">
      <stop
         style="stop-color:#225577;stop-opacity:0.60416669"
         offset="0"
         id="stop4110" />
      <stop
         style="stop-color:#225577;stop-opacity:0;"
         offset="1"
         id="stop4112" />
    </linearGradient>
    <linearGradient
       inkscape:collect="always"
       id="linearGradient4090">
      <stop
         style="stop-color:#ececec;stop-opacity:1;"
         offset="0"
         id="stop4092" />
      <stop
         style="stop-color:#ececec;stop-opacity:0;"
         offset="1"
         id="stop4094" />
    </linearGradient>
    <linearGradient
       inkscape:collect="always"
       xlink:href="#linearGradient4090"
       id="linearGradient4096"
       x1="79.903069"
       y1="-30.740503"
       x2="79.903069"
       y2="226.67992"
       gradientUnits="userSpaceOnUse"
       gradientTransform="translate(0,731.30006)" />
    <linearGradient
       inkscape:collect="always"
       xlink:href="#linearGradient4108"
       id="linearGradient4114"
       x1="82"
       y1="690.27234"
       x2="82"
       y2="845.78699"
       gradientUnits="userSpaceOnUse"
       gradientTransform="translate(-2.7e-5,0)" />
    <linearGradient
       inkscape:collect="always"
       xlink:href="#linearGradient4090-6"
       id="linearGradient4096-3"
       x1="79.903069"
       y1="-30.740503"
       x2="79.903069"
       y2="226.67992"
       gradientUnits="userSpaceOnUse"
       gradientTransform="translate(0,731.30006)" />
    <linearGradient
       inkscape:collect="always"
       id="linearGradient4090-6">
      <stop
         style="stop-color:#ececec;stop-opacity:1;"
         offset="0"
         id="stop4092-7" />
      <stop
         style="stop-color:#ececec;stop-opacity:0;"
         offset="1"
         id="stop4094-5" />
    </linearGradient>
    <linearGradient
       y2="226.67992"
       x2="79.903069"
       y1="-30.740503"
       x1="79.903069"
       gradientTransform="translate(-2.7e-5,-1.0621225)"
       gradientUnits="userSpaceOnUse"
       id="linearGradient4143"
       xlink:href="#linearGradient4090-6"
       inkscape:collect="always" />
    <filter
       inkscape:collect="always"
       id="filter3799">
      <feBlend
         inkscape:collect="always"
         mode="lighten"
         in2="BackgroundImage"
         id="feBlend3801" />
    </filter>
    <linearGradient
       inkscape:collect="always"
       xlink:href="#linearGradient3861-6"
       id="linearGradient3867-3"
       x1="144.24979"
       y1="596.68799"
       x2="144.24979"
       y2="905.37903"
       gradientUnits="userSpaceOnUse" />
    <linearGradient
       inkscape:collect="always"
       id="linearGradient3861-6">
      <stop
         style="stop-color:#ffffff;stop-opacity:0.70391059"
         offset="0"
         id="stop3863-7" />
      <stop
         style="stop-color:#ffffff;stop-opacity:0"
         offset="1"
         id="stop3865-5" />
    </linearGradient>
    <filter
       color-interpolation-filters="sRGB"
       inkscape:collect="always"
       id="filter3853-3">
      <feGaussianBlur
         inkscape:collect="always"
         stdDeviation="3.8693365"
         id="feGaussianBlur3855-5" />
    </filter>
    <linearGradient
       y2="905.37903"
       x2="144.24979"
       y1="596.68799"
       x1="144.24979"
       gradientUnits="userSpaceOnUse"
       id="linearGradient3076"
       xlink:href="#linearGradient3861-6"
       inkscape:collect="always" />
    <linearGradient
       y2="905.37903"
       x2="144.24979"
       y1="596.68799"
       x1="144.24979"
       gradientUnits="userSpaceOnUse"
       id="linearGradient3076-6"
       xlink:href="#linearGradient3861-6-2"
       inkscape:collect="always" />
    <linearGradient
       inkscape:collect="always"
       id="linearGradient3861-6-2">
      <stop
         style="stop-color:#ffffff;stop-opacity:0.70391059"
         offset="0"
         id="stop3863-7-9" />
      <stop
         style="stop-color:#ffffff;stop-opacity:0"
         offset="1"
         id="stop3865-5-1" />
    </linearGradient>
    <filter
       color-interpolation-filters="sRGB"
       inkscape:collect="always"
       id="filter3853-3-2">
      <feGaussianBlur
         inkscape:collect="always"
         stdDeviation="3.8693365"
         id="feGaussianBlur3855-5-7" />
    </filter>
  </defs>
  <sodipodi:namedview
     id="base"
     pagecolor="#ffffff"
     bordercolor="#666666"
     borderopacity="1.0"
     inkscape:pageopacity="0.0"
     inkscape:pageshadow="2"
     inkscape:zoom="4.0000001"
     inkscape:cx="139.26635"
     inkscape:cy="17.023755"
     inkscape:document-units="px"
     inkscape:current-layer="layer1"
     showgrid="false"
     inkscape:snap-global="true"
     inkscape:window-width="1237"
     inkscape:window-height="1014"
     inkscape:window-x="639"
     inkscape:window-y="0"
     inkscape:window-maximized="0"
     showguides="true"
     inkscape:guide-bbox="true">
    <inkscape:grid
       type="xygrid"
       id="grid3780"
       empspacing="20"
       visible="true"
       enabled="true"
       snapvisiblegridlinesonly="true" />
  </sodipodi:namedview>
  <metadata
     id="metadata7">
    <rdf:RDF>
      <cc:Work
         rdf:about="">
        <dc:format>image/svg+xml</dc:format>
        <dc:type
           rdf:resource="http://purl.org/dc/dcmitype/StillImage" />
        <dc:title />
      </cc:Work>
    </rdf:RDF>
  </metadata>
  <g
     inkscape:label="shadow"
     inkscape:groupmode="layer"
     id="layer1"
     transform="translate(0,-732.36218)"
     style="display:inline;filter:url(#filter3799)">
    <rect
       y="-1055.3785"
       x="-1.8649597"
       height="358.27148"
       width="295.56549"
       id="rect3014"
       style="fill:#225577;fill-opacity:1;stroke:none;display:inline"
       transform="scale(1,-1)" />
    <g
       transform="translate(0,879.84873)"
       style="display:inline;enable-background:new"
       id="g3149">
      <path
         transform="matrix(1,0,0,-1,-0.0301615,971.29968)"
         style="font-size:medium;font-style:normal;font-variant:normal;font-weight:normal;font-stretch:normal;text-indent:0;text-align:start;text-decoration:none;line-height:normal;letter-spacing:normal;word-spacing:normal;text-transform:none;direction:ltr;block-progression:tb;writing-mode:lr-tb;text-anchor:start;baseline-shift:baseline;color:#000000;fill:url(#linearGradient3076-6);fill-opacity:1;fill-rule:nonzero;stroke:none;stroke-width:0.1;marker:none;visibility:visible;display:inline;overflow:visible;filter:url(#filter3853-3-2);enable-background:accumulate;font-family:Sans;-inkscape-font-specification:Sans"
         d="m -17.204238,706.39346 -0.4375,0.21875 -4.4375,2.21875 0,0.0312 1.0625,0.53125 1.03125,0.53125 17.5312505,8.78125 0,16.3125 -17.5312505,8.75 -1.03125,0.53125 -1.0625,0.53125 4.90625,2.46875 17.2187505,-8.59375 17.1562495,8.59375 4.96875,-2.46875 -1.09375,-0.53125 -1.0625,-0.53125 -17.5312495,-8.75 0,-16.3125 17.5312495,-8.78125 1.0625,-0.53125 1.09375,-0.53125 -4.21875,-2.125 -0.71875,-0.34375 -17.1874995,8.59375 -17.2500005,-8.59375 z m 144.062498,0 -0.46875,0.21875 -4.4375,2.21875 0,0.0312 1.0625,0.53125 1.0625,0.53125 17.53125,8.78125 0,16.3125 -17.53125,8.75 -1.0625,0.53125 -1.0625,0.53125 4.9375,2.46875 17.1875,-8.59375 17.1875,8.59375 4.9375,-2.46875 -1.0625,-0.53125 -1.0625,-0.53125 -17.5625,-8.75 0,-16.3125 17.5625,-8.78125 1.0625,-0.53125 1.03125,-0.53125 0.0312,0 0,-0.0312 -4.21875,-2.09375 -0.71875,-0.34375 -17.1875,8.59375 -17.21875,-8.59375 z m 144.03125,0 -0.4375,0.21875 -4.46875,2.21875 1.0625,0.5625 1.09375,0.53125 17.5,8.78125 0,16.3125 -17.5,8.75 -1.09375,0.53125 -1.0625,0.53125 4.9375,2.46875 17.1875,-8.59375 17.21875,8.59375 4.90625,-2.46875 -1.0625,-0.53125 -1.0625,-0.53125 -17.53125,-8.75 0,-16.3125 17.53125,-8.78125 1.0625,-0.53125 1.0625,-0.5625 -4.21875,-2.09375 -0.6875,-0.34375 -17.21875,8.59375 -17.21875,-8.59375 z m -174.562497,6.4375 -4.875,2.46875 0,17.1875 -17.21875,8.59375 0,4.9375 1.03125,-0.53125 1.09375,-0.53125 17.53125,-8.75 16.312487,8.15625 0.0312,17.53125 0,1.0625 0,1.0625 4.21875,-2.125 0.71875,-0.34375 0,-17.1875 17.1875,-8.59375 0,-0.46875 0,-4.4375 0,-0.0312 -1.0625,0.53125 -1.0625,0.53125 -17.53125,8.75 -16.374987,-8.15625 0,-17.53125 0,-1.0625 0,-1.0625 z m 144.062497,0 -4.90625,2.46875 0,17.1875 -17.21875,8.59375 0,4.9375 1.0625,-0.53125 1.0625,-0.5625 17.53125,-8.75 16.34375,8.1875 0.0312,17.5 0,1.09375 0,1.0625 4.21875,-2.125 0.6875,-0.34375 0,-17.1875 17.21875,-8.625 0,-0.4375 0,-4.4375 0,-0.0312 -1.0937,0.53125 -1.0625,0.53125 -17.53125,8.75 -16.34375,-8.15625 0,-17.53125 0,-1.0625 0,-1.0625 z m -193.156247,0.125 0,1.09375 -0.0312,1.0625 0,17.53125 -16.3125,8.15625 -17.53125,-8.78125 -1.0625,-0.5 -1.0625,-0.53125 0,4.90625 17.21875,8.59375 -0.0312,17.1875 4.9375,2.46875 -0.0313,-1.0625 0,-1.0625 0,-17.53125 16.375,-8.15625 17.53125,8.75 1.0625,0.53125 1.0625,0.53125 0,-4.1875 0,-0.71875 -17.21875,-8.59375 0,-17.21875 -0.40625,-0.21875 -4.5,-2.25 z m 144.062497,0 0,1.09375 -0.0312,1.0625 0,17.53125 -16.34379,8.15625 -17.53125,-8.78125 -1.0625,-0.5 -1.03125,-0.53125 0,4.90625 17.1875,8.59375 -0.0312,17.1875 4.96875,2.46875 -0.0312,-1.0625 0,-1.0625 0,-17.53125 16.34373,-8.15625 17.53125,8.75 1.0625,0.53125 1.09375,0.53125 0,-4.1875 0,-0.71875 -17.25,-8.59375 0,-17.21875 -0.40625,-0.21875 -4.46875,-2.25 z m -136.687497,29.75 -0.4375,0.21875 -4.46875,2.21875 0,0.0312 1.0625,0.53125 1.0625,0.5 17.53125,8.78125 0,16.34375 -17.53125,8.75 -1.0625,0.53125 -1.0625,0.53125 4.90625,2.46875 17.21875,-8.59375 17.1875,8.59375 4.9375,-2.46875 -1.09375,-0.53125 -1.0625,-0.53125 -17.53125,-8.75 0,-16.34375 17.53125,-8.78125 1.0625,-0.5 1.09375,-0.53125 -4.21875,-2.125 -0.71875,-0.34375 -17.1875,8.59375 -17.21875,-8.59375 z m 144.062497,0 -0.46875,0.21875 -4.46875,2.21875 1.0625,0.5625 1.0625,0.5 17.5625,8.78125 0,16.34375 -17.5625,8.75 -1.0625,0.53125 -1.0625,0.53125 4.9375,2.46875 17.1875,-8.59375 17.1875,8.59375 4.9375,-2.46875 -1.0625,-0.53125 -1.0625,-0.53125 -17.5625,-8.75 0,-16.34375 17.5625,-8.78125 1.0625,-0.5 1.0625,-0.5625 -4.21875,-2.09375 -0.71875,-0.34375 -17.1875,8.59375 -17.1875,-8.59375 z m -174.124997,5.75 -4.90625,2.46875 0,17.15625 -17.2187505,8.625 0,4.90625 1.09375,-0.53125 1.0625,-0.53125 17.5312505,-8.75 16.3125,8.15625 0,17.53125 0,1.0625 0,1.0625 4.21875,-2.09375 0.71875,-0.34375 0,-17.21875 17.21875,-8.59375 0,-0.4375 0,-4.46875 -0.0312,0 -1.0625,0.5 -1.03125,0.5625 -17.5625,8.75 -16.34375,-8.1875 0,-17.5 0,-1.09375 0,-1.03125 z m 144.062497,0 -4.9375,2.4375 0,0.0312 0,17.15625 -17.1875,8.625 0,4.90625 1.0625,-0.53125 1.0625,-0.53125 17.53125,-8.75 16.34375,8.15625 0,17.53125 0,1.0625 0,1.0625 4.21875,-2.09375 0.6875,-0.34375 0,-17.21875 17.25,-8.59375 0,-0.4375 0,-4.46875 -0.0312,0 -1.09375,0.5 -1.03125,0.5625 -17.53125,8.75 -16.34375,-8.1875 0,-17.5 0,-1.09375 0,-1.03125 z m 144.03125,0 -4.9375,2.4375 0,17.1875 -17.15625,8.625 -0.0312,4.90625 1.0625,-0.53125 1.0625,-0.53125 17.53125,-8.75 16.34375,8.15625 0.0312,17.53125 -0.0312,1.0625 0,1.0625 4.21875,-2.09375 0.71875,-0.34375 0,-17.21875 17.21871,-8.59375 0,-0.4375 0,-4.46875 -1.0625,0.5 -1.09375,0.5625 -17.53125,8.75 -16.34375,-8.1875 0,-17.5 0,-1.09375 0,-1.03125 z m -337.187497,0.125 -0.0312,1.0625 0,1.0625 0,17.53125 -16.3125,8.15625 -17.53125,-8.75 -1.0625,-0.53125 -1.09375,-0.53125 0,4.9375 17.21875,8.59375 0,17.1875 4.90625,2.4375 0,-1.03125 0,-1.0625 0,-17.53125 16.34375,-8.15625 17.5312495,8.75 1.0625,0.53125 1.0625,0.53125 0,-4.21875 0,-0.71875 -17.1874995,-8.59375 0,-17.21875 -0.4375,-0.21875 -4.46875,-2.21875 z m 144.062497,0 -0.0312,1.0625 0,1.0625 0,17.53125 -16.34375,8.15625 -17.531238,-8.75 -1.0625,-0.53125 -1.0625,-0.53125 0,4.90625 0,0.0312 17.187488,8.59375 0,17.1875 4.9375,2.4375 0.0312,0 -0.0312,-1.03125 0,-1.0625 0,-0.0312 0,-17.5 16.3125,-8.15625 17.53125,8.71875 0.0312,0.0312 1.0625,0.53125 1.0625,0.53125 0,-4.21875 0.0312,-0.71875 -0.0312,0 -17.21875,-8.59375 0,-17.21875 -0.4375,-0.21875 -4.4375,-2.21875 z m 144.03125,0 -0.0312,1.0625 0,1.0625 0,17.53125 -16.3125,8.15625 -17.5625,-8.75 -1.0625,-0.53125 -1.0625,-0.53125 0,4.90625 17.1875,8.625 0,17.1875 4.96875,2.4375 -0.0312,-1.03125 0,-1.09375 0,-17.5 16.34375,-8.15625 17.53125,8.71875 1.09375,0.5625 1.03125,0.53125 0,-4.21875 0.0312,-0.71875 -17.21875,-8.59375 0,-17.21875 -0.46875,-0.21875 -4.4375,-2.21875 z m -285.624997,2.125 0,18.15625 0,0.625 -0.0312,0 0,-0.625 0.0312,-18.15625 z m 63.59375,27.71875 -0.59375,0.3125 0,0.625 0,18.125 -0.0312,-18.125 0.0312,-0.625 0,-0.0312 0.59375,-0.28125 z m 288.093747,0 -0.625,0.3125 0,-0.0312 0.625,-0.28125 z m -202.75,0.4375 -0.4375,0.21875 -4.46875,2.21875 0,0.0312 0.375,0.1875 -0.40625,0.1875 0,0.0312 1.03125,0.53125 1.09375,0.53125 17.53125,8.78125 0,15.90625 -17.5,8.75 -1.0625,0.5625 -1.0625,0.53125 0.375,0.1875 -0.40625,0.21875 4.9375,2.46875 17.1875,-8.625 17.1875,8.625 4.9375,-2.46875 -0.40625,-0.1875 0.4375,-0.21875 -1.0625,-0.53125 -1.0625,-0.5625 -17.5625,-8.75 0,-15.9375 17.53125,-8.75 1.0625,-0.53125 1.0625,-0.53125 -0.375,-0.1875 0.40625,-0.21875 -4.21875,-2.125 -0.71876,-0.34375 -17.1875,8.59375 -17.21875,-8.59375 z m 144.03125,0 -0.4375,0.21875 -4.46875,2.21875 0,0.0312 1.0625,0.53125 1.09375,0.53125 17.5,8.78125 0,16.3125 -17.5,8.75 -1.09375,0.53125 -1.0625,0.5625 4.9375,2.4375 17.1875,-8.59375 17.21875,8.59375 4.90625,-2.4375 -1.0625,-0.5625 -1.0625,-0.53125 -17.53125,-8.75 0,-16.3125 17.53125,-8.78125 1.0625,-0.53125 1.0625,-0.53125 -4.21875,-2.125 -0.68751,-0.34375 -17.21875,8.59375 -17.21875,-8.59375 z m -288.093747,0.40625 -0.46875,0.21875 -4.4375,2.21875 0,0.0312 1.03125,0.53125 1.0625,0.53125 17.5624995,8.78125 0,16.34375 -17.5624995,8.75 -1.0625,0.53125 -1.03125,0.53125 4.90625,2.46875 17.2187495,-8.625 17.1562505,8.625 4.96875,-2.46875 -1.0625,-0.53125 -1.09375,-0.53125 -17.5312505,-8.75 0,-16.34375 17.5312505,-8.78125 1.09375,-0.53125 1.0625,-0.53125 -4.21875,-2.125 -0.71875,-0.34375 -17.1875005,8.625 -17.2187495,-8.625 z m 113.53125,5.5 -4.875,2.46875 0,17.15625 -17.21875,8.625 0,4.90625 1.03125,-0.53125 1.09375,-0.53125 17.53125,-8.75 16.312497,8.15625 0.0312,17.53125 0,1.0625 0,1.0625 4.21875,-2.09375 0.71875,-0.34375 0,-17.21875 17.1875,-8.59375 0,-0.46875 0,-4.4375 0,-0.0312 -1.0625,0.53125 -1.0625,0.5625 -17.53125,8.75 -16.374987,-8.1875 0,-17.5 0,-1.09375 0,-1.03125 z m 144.062497,0 -4.90625,2.4375 0,17.1875 -17.21875,8.625 0,4.90625 1.0625,-0.53125 1.0625,-0.53125 17.53125,-8.75 16.34375,8.15625 0.0312,17.53125 0,1.0625 0,1.0625 4.21875,-2.09375 0.6875,-0.34375 0,-17.21875 17.21875,-8.59375 0,-0.46875 0,-4.4375 0,-0.0312 -1.09375,0.53125 -1.0625,0.5625 -17.53125,8.75 -16.34375,-8.1875 0,-17.5 0,-1.09375 0,-1.03125 z m -193.156247,0.125 0,1.0625 -0.0312,1.0625 0,17.53125 -16.3125,8.15625 -17.53125,-8.75 -1.0625,-0.53125 -1.0625,-0.53125 0,4.9375 17.21875,8.59375 -0.0312,17.1875 4.9375,2.4375 -0.0313,-1.03125 0,-1.0625 0,-17.53125 16.375,-8.1875 17.53125,8.78125 1.0625,0.53125 1.0625,0.53125 0,-4.21875 0,-0.71875 -17.21875,-8.59375 0,-17.21875 -0.40625,-0.21875 -4.5,-2.21875 z m 144.062497,0 0,1.0625 -0.0312,1.0625 0,17.53125 -16.34375,8.15625 -17.53129,-8.78125 -1.0625,-0.5 -1.03125,-0.53125 0,4.90625 17.1875,8.625 -0.0312,17.1875 4.96875,2.4375 -0.0312,-1.03125 0,-1.09375 0,-17.5 16.34375,-8.1875 17.53125,8.75 1.0625,0.5625 1.09375,0.53125 0,-4.21875 0,-0.71875 -17.25,-8.59375 0,-17.21875 -0.40634,-0.21875 -4.46876,-2.21875 z m -136.687497,30.34375 -0.4375,0.21875 -4.46875,2.21875 0,0.0312 1.0625,0.53125 1.0625,0.53125 17.53125,8.78125 0,16.34375 -17.53125,8.75 -1.0625,0.53125 -1.0625,0.53125 4.90625,2.46875 17.21875,-8.625 17.1875,8.625 4.9375,-2.46875 -1.09375,-0.53125 -1.0625,-0.53125 -17.53125,-8.75 0,-16.34375 17.53125,-8.78125 1.0625,-0.53125 1.09375,-0.53125 -4.21875,-2.125 -0.71875,-0.34375 -17.1875,8.625 -17.21875,-8.625 z m 144.062497,0 -0.46875,0.21875 -4.46875,2.21875 0,0.0312 1.0625,0.53125 1.0625,0.53125 17.5625,8.78125 0,16.34375 -17.5625,8.75 -1.0625,0.53125 -1.0625,0.53125 4.9375,2.46875 17.1875,-8.625 17.1875,8.625 4.9375,-2.46875 -1.0625,-0.53125 -1.0625,-0.53125 -17.5625,-8.75 0,-16.34375 17.5625,-8.78125 1.0625,-0.53125 1.0625,-0.53125 -4.21875,-2.125 -0.71875,-0.34375 -17.1875,8.625 -17.1875,-8.625 z m -30.0625,5.6875 -4.9375,2.46875 0,0.40625 -0.0312,0 0,16.8125 -17.15625,8.5625 0,0.375 -0.0312,0.0312 0,4.9375 1.0625,-0.5625 1.0625,-0.53125 17.5,-8.75 16.375,8.1875 0,17.5 0,1.09375 0,1.0625 4.21875,-2.125 0.6875,-0.34375 0,-0.375 0.0312,-0.0312 0,-16.8125 17.1875,-8.59375 0.0312,-0.375 0.0312,-0.0312 0,-0.4375 0,-4.46875 -1.09375,0.53125 -1.0625,0.53125 -17.53125,8.75 -16.34375,-8.15625 0,-17.53125 0,-1.0625 0,-1.0625 z m 144.03125,0 -4.9375,2.46875 0,17.1875 -17.15625,8.59375 -0.0312,4.90625 1.0625,-0.53125 1.0625,-0.53125 17.53125,-8.75 16.34375,8.15625 0.0312,17.53125 0,1.0625 -0.0312,1.09375 4.21875,-2.125 0.71875,-0.34375 0,-17.21875 17.21875,-8.59375 0,-0.4375 0,-4.46875 -1.0625,0.53125 -1.09375,0.53125 -17.53125,8.75 -16.34375,-8.15625 0,-17.53125 0,-1.0625 0,-1.0625 z m -193.125,0.15625 0,0.40625 -0.0312,0 -0.0312,0 0,1.03125 0,1.09375 0,17.125 -16.3125,8.15625 -17.531248,-8.75 -1.0625,-0.5625 -1.0625,-0.53125 0,0.4375 -0.0312,-0.0312 0,4.9375 17.187498,8.59375 0,17.1875 4.9375,2.46875 0,-0.40625 0.0312,0 0,-1.0625 0,-1.0625 0,-17.125 16.28125,-8.15625 17.53125,8.75 1.09375,0.53125 1.0625,0.53125 0,-0.40625 0.0312,0 0,-4.21875 0.0312,-0.6875 -17.25,-8.625 0,-17.1875 -0.4375,-0.21875 -4.4375,-2.21875 z m 144.03125,0 -0.0312,1.03125 0,1.09375 0,17.5 -16.3125,8.1875 -17.5625,-8.75 -1.0625,-0.5625 -1.0625,-0.53125 0,4.9375 17.1875,8.59375 0,17.1875 4.9375,2.46875 0,-1.0625 0,-1.0625 0,-17.53125 16.34375,-8.15625 17.53125,8.75 1.09375,0.53125 1.03125,0.53125 0,-4.21875 0.0312,-0.6875 -17.21875,-8.625 0,-17.1875 -0.46875,-0.21875 -4.4375,-2.21875 z m -239.031247,0.25 -4.90625,2.46875 0,17.1875 -17.2187505,8.59375 0,4.9375 1.09375,-0.53125 1.0625,-0.5625 17.5000005,-8.75 16.34375,8.1875 0,17.5 0,1.09375 0,1.0625 4.25,-2.125 0.6875,-0.34375 0,-17.1875 17.1875,-8.625 0.0312,-0.4375 -0.0312,-4.4375 -1.0625,0.5 -1.03125,0.53125 -17.5625,8.75 -16.34375,-8.15625 0,-17.53125 0,-1.0625 0,-1.0625 z m -49.09375,0.15625 0,1.0625 0,1.0625 0,17.53125 -16.375,8.15625 -17.5,-8.75 -1.0625,-0.53125 -1.09375,-0.53125 0,4.90625 17.21875,8.59375 0,17.1875 4.90625,2.46875 0,-1.0625 0,-1.0625 0,-17.53125 16.34375,-8.15625 17.5312495,8.75 1.0625,0.53125 1.09375,0.53125 0,-4.21875 0,-0.6875 -17.2187495,-8.59375 0,-17.21875 -0.4375,-0.21875 -4.46875,-2.21875 z m 2.46875,2.125 0,18.125 0,0.625 -0.0312,0 0,-0.59375 0.0312,-18.15625 z m 4.90625,27.25 -0.4375,0.21875 -4.4375,2.25 1.0625,0.53125 1.03125,0.53125 17.5312495,8.78125 0,16.3125 -17.5312495,8.78125 -1.03125,0.5 -1.0625,0.53125 4.90625,2.46875 17.2187495,-8.59375 17.1562505,8.59375 4.96875,-2.46875 -1.09375,-0.53125 -1.0625,-0.5 -17.5312505,-8.78125 0,-16.3125 17.5312505,-8.78125 1.0625,-0.53125 1.09375,-0.53125 -4.21875,-2.125 -0.71875,-0.34375 -17.1875005,8.59375 -17.2499995,-8.59375 z m 144.062497,0 -0.46875,0.21875 -4.4375,2.21875 0.0312,0.0312 1.03125,0.53125 1.0625,0.53125 17.53125,8.78125 0,16.3125 -17.53125,8.78125 -1.0625,0.5 -1.0625,0.53125 4.9375,2.46875 17.1875,-8.59375 17.1875,8.59375 4.9375,-2.46875 -1.0625,-0.53125 -1.0625,-0.5 -17.5625,-8.78125 0,-16.3125 17.5625,-8.78125 1.0625,-0.53125 1.03125,-0.53125 0.0312,0 0,-0.0312 -4.21875,-2.09375 -0.71865,-0.34375 -17.1875,8.59375 -17.21876,-8.59375 z m 144.03125,0 -0.4375,0.21875 -4.46875,2.21875 1.0625,0.5625 1.09375,0.53125 17.5,8.75 0,16.34375 -17.5,8.78125 -1.09375,0.5 -1.0625,0.53125 4.9375,2.46875 17.1875,-8.59375 17.21875,8.59375 4.90625,-2.46875 -1.0625,-0.53125 -1.0625,-0.5 -17.53125,-8.78125 0,-16.34375 17.53125,-8.75 1.0625,-0.53125 1.0625,-0.5625 -4.21875,-2.09375 -0.6875,-0.34375 -17.21875,8.59375 -17.21876,-8.59375 z m -229.406247,0.46875 -0.59375,0.3125 0,0.59375 0,18.125 -0.0312,-18.125 0,-0.625 0.625,-0.28125 z m 54.84375,5.96875 -4.875,2.46875 0,17.1875 -17.21875,8.59375 0,4.9375 1.03125,-0.53125 1.09375,-0.5625 17.53125,-8.71875 16.312497,8.15625 0.0312,17.5 0,1.09375 0,1.0625 4.21875,-2.125 0.71875,-0.34375 0,-17.1875 17.1875,-8.625 0,-0.4375 0,-4.4375 -1.0625,0.5 -1.0625,0.53125 -17.53125,8.75 -16.374987,-8.15625 0,-17.53125 0,-1.0625 0,-1.0625 z m 144.062497,0 -4.90625,2.46875 0,17.1875 -17.21875,8.59375 0,4.9375 1.0625,-0.53125 1.0625,-0.5625 17.53125,-8.75 16.34375,8.1875 0.0312,17.5 0,1.09375 0,1.0625 4.21875,-2.125 0.6875,-0.34375 0,-17.1875 17.21875,-8.625 0,-0.4375 0,-4.4375 -1.09375,0.5 -1.06245,0.53125 -17.53125,8.75 -16.34375,-8.15625 0,-17.53125 0,-1.0625 0,-1.0625 z m -193.156247,0.15625 0,1.0625 -0.0312,1.0625 0,17.53125 -16.3125,8.15625 -17.53125,-8.75 -1.0625,-0.53125 -1.0625,-0.53125 0,4.90625 17.21875,8.59375 -0.0312,17.1875 4.9375,2.46875 -0.0312,-1.0625 0,-1.0625 0,-17.53125 16.375,-8.15625 17.53125,8.75 1.0625,0.53125 1.0625,0.53125 0,-4.1875 0,-0.71875 -17.21875,-8.59375 0,-17.21875 -0.40625,-0.21875 -4.5,-2.21875 z m 144.062497,0 0,1.0625 -0.0312,1.0625 0,17.53125 -16.34375,8.15625 -17.53125,-8.75 -1.0625,-0.53125 -1.03125,-0.53125 0,4.90625 17.1875,8.59375 -0.0312,17.1875 4.96875,2.46875 -0.0312,-1.0625 0,-1.0625 0,-17.53125 16.34375,-8.15625 17.53125,8.75 1.0625,0.53125 1.09375,0.53125 0,-4.21875 0,-0.6875 -17.25,-8.59375 0,-17.21875 -0.40625,-0.21875 -4.46875,-2.21875 z m -78,29.84375 -0.59375,0.3125 0,-0.0312 0.59375,-0.28125 z m 144.0625,0 -0.625,0.3125 0,-0.0312 0.625,-0.28125 z m -202.749997,0.28125 -0.4375,0.21875 -4.46875,2.25 1.0625,0.53125 1.0625,0.53125 17.53125,8.78125 0,16.3125 4.90625,0 0,-16.3125 17.53125,-8.78125 1.0625,-0.53125 1.09375,-0.53125 -4.21875,-2.09375 -0.71875,-0.375 -17.1875,8.59375 -17.21875,-8.59375 z m 144.062497,0 -0.46875,0.21875 -4.46875,2.25 1.0625,0.53125 1.0625,0.53125 17.5625,8.78125 0,16.3125 4.875,0 0,-16.3125 17.5625,-8.78125 1.0625,-0.53125 1.0625,-0.53125 -4.21875,-2.09375 -0.71875,-0.375 -17.1875,8.59375 -17.1875,-8.59375 z m -127.468747,10.78125 0.625,0.28125 0.625,-0.28125 -0.625,0.3125 -0.625,-0.3125 z m 144.031247,0 0.625,0.28125 0.625,-0.28125 -0.625,0.3125 -0.625,-0.3125 z"
         id="path3010-3"
         inkscape:connector-curvature="0" />
      <g
         transform="translate(-0.0301625,-49.593845)"
         id="g3099">
        <path
           style="font-size:medium;font-style:normal;font-variant:normal;font-weight:normal;font-stretch:normal;text-indent:0;text-align:start;text-decoration:none;line-height:normal;letter-spacing:normal;word-spacing:normal;text-transform:none;direction:ltr;block-progression:tb;writing-mode:lr-tb;text-anchor:start;baseline-shift:baseline;color:#000000;fill:#225577;fill-opacity:1;fill-rule:nonzero;stroke:none;stroke-width:0.1;marker:none;visibility:visible;display:inline;overflow:visible;enable-background:accumulate;font-family:Sans;-inkscape-font-specification:Sans"
           d="m -17.204235,314.50007 -0.4375,-0.21875 -4.4375,-2.21875 0,-0.0312 1.0625,-0.53125 1.03125,-0.53125 17.5312496,-8.78125 0,-16.3125 -17.5312496,-8.75 -1.03125,-0.53125 -1.0625,-0.53125 4.90625,-2.46875 17.21874957,8.59375 17.15625043,-8.59375 4.96875,2.46875 -1.09375,0.53125 -1.0625,0.53125 -17.5312504,8.75 0,16.3125 17.5312504,8.78125 1.0625,0.53125 1.09375,0.53125 -4.21875,2.125 -0.71875,0.34375 -17.18750043,-8.59375 -17.24999957,8.59375 z"
           id="path4095"
           inkscape:connector-curvature="0" />
        <path
           style="font-size:medium;font-style:normal;font-variant:normal;font-weight:normal;font-stretch:normal;text-indent:0;text-align:start;text-decoration:none;line-height:normal;letter-spacing:normal;word-spacing:normal;text-transform:none;direction:ltr;block-progression:tb;writing-mode:lr-tb;text-anchor:start;baseline-shift:baseline;color:#000000;fill:#225577;fill-opacity:1;fill-rule:nonzero;stroke:none;stroke-width:0.1;marker:none;visibility:visible;display:inline;overflow:visible;enable-background:accumulate;font-family:Sans;-inkscape-font-specification:Sans"
           d="m 126.85826,314.50007 -0.46875,-0.21875 -4.4375,-2.21875 0,-0.0312 1.0625,-0.53125 1.0625,-0.53125 17.53125,-8.78125 0,-16.3125 -17.53125,-8.75 -1.0625,-0.53125 -1.0625,-0.53125 4.9375,-2.46875 17.1875,8.59375 17.1875,-8.59375 4.9375,2.46875 -1.0625,0.53125 -1.0625,0.53125 -17.5625,8.75 0,16.3125 17.5625,8.78125 1.0625,0.53125 1.03125,0.53125 0.0312,0 0,0.0312 -4.21875,2.09375 -0.71875,0.34375 -17.1875,-8.59375 -17.21875,8.59375 z"
           id="path4093"
           inkscape:connector-curvature="0" />
        <path
           style="font-size:medium;font-style:normal;font-variant:normal;font-weight:normal;font-stretch:normal;text-indent:0;text-align:start;text-decoration:none;line-height:normal;letter-spacing:normal;word-spacing:normal;text-transform:none;direction:ltr;block-progression:tb;writing-mode:lr-tb;text-anchor:start;baseline-shift:baseline;color:#000000;fill:#225577;fill-opacity:1;fill-rule:nonzero;stroke:none;stroke-width:0.1;marker:none;visibility:visible;display:inline;overflow:visible;enable-background:accumulate;font-family:Sans;-inkscape-font-specification:Sans"
           d="m 270.88951,314.50007 -0.4375,-0.21875 -4.46875,-2.21875 1.0625,-0.5625 1.09375,-0.53125 17.5,-8.78125 0,-16.3125 -17.5,-8.75 -1.09375,-0.53125 -1.0625,-0.53125 4.9375,-2.46875 17.1875,8.59375 17.21875,-8.59375 4.90625,2.46875 -1.0625,0.53125 -1.0625,0.53125 -17.53125,8.75 0,16.3125 17.53125,8.78125 1.0625,0.53125 1.0625,0.5625 -4.21875,2.09375 -0.6875,0.34375 -17.21875,-8.59375 -17.21875,8.59375 z"
           id="path4091"
           inkscape:connector-curvature="0" />
        <path
           style="font-size:medium;font-style:normal;font-variant:normal;font-weight:normal;font-stretch:normal;text-indent:0;text-align:start;text-decoration:none;line-height:normal;letter-spacing:normal;word-spacing:normal;text-transform:none;direction:ltr;block-progression:tb;writing-mode:lr-tb;text-anchor:start;baseline-shift:baseline;color:#000000;fill:#225577;fill-opacity:1;fill-rule:nonzero;stroke:none;stroke-width:0.1;marker:none;visibility:visible;display:inline;overflow:visible;enable-background:accumulate;font-family:Sans;-inkscape-font-specification:Sans"
           d="m 96.327015,308.06257 -4.875,-2.46875 0,-17.1875 -17.21875,-8.59375 0,-4.9375 1.03125,0.53125 1.09375,0.53125 17.53125,8.75 16.312495,-8.15625 0.0312,-17.53125 0,-1.0625 0,-1.0625 4.21875,2.125 0.71875,0.34375 0,17.1875 17.1875,8.59375 0,0.46875 0,4.4375 0,0.0312 -1.0625,-0.53125 -1.0625,-0.53125 -17.53125,-8.75 -16.374995,8.15625 0,17.53125 0,1.0625 0,1.0625 z"
           id="path4089"
           inkscape:connector-curvature="0" />
        <path
           style="font-size:medium;font-style:normal;font-variant:normal;font-weight:normal;font-stretch:normal;text-indent:0;text-align:start;text-decoration:none;line-height:normal;letter-spacing:normal;word-spacing:normal;text-transform:none;direction:ltr;block-progression:tb;writing-mode:lr-tb;text-anchor:start;baseline-shift:baseline;color:#000000;fill:#225577;fill-opacity:1;fill-rule:nonzero;stroke:none;stroke-width:0.1;marker:none;visibility:visible;display:inline;overflow:visible;enable-background:accumulate;font-family:Sans;-inkscape-font-specification:Sans"
           d="m 240.38951,308.06257 -4.90625,-2.46875 0,-17.1875 -17.21875,-8.59375 0,-4.9375 1.0625,0.53125 1.0625,0.5625 17.53125,8.75 16.34375,-8.1875 0.0312,-17.5 0,-1.09375 0,-1.0625 4.21875,2.125 0.6875,0.34375 0,17.1875 17.21875,8.625 0,0.4375 0,4.4375 0,0.0312 -1.0937,-0.53125 -1.0625,-0.53125 -17.53125,-8.75 -16.34375,8.15625 0,17.53125 0,1.0625 0,1.0625 z"
           id="path4087"
           inkscape:connector-curvature="0" />
        <path
           style="font-size:medium;font-style:normal;font-variant:normal;font-weight:normal;font-stretch:normal;text-indent:0;text-align:start;text-decoration:none;line-height:normal;letter-spacing:normal;word-spacing:normal;text-transform:none;direction:ltr;block-progression:tb;writing-mode:lr-tb;text-anchor:start;baseline-shift:baseline;color:#000000;fill:#225577;fill-opacity:1;fill-rule:nonzero;stroke:none;stroke-width:0.1;marker:none;visibility:visible;display:inline;overflow:visible;enable-background:accumulate;font-family:Sans;-inkscape-font-specification:Sans"
           d="m 47.233265,307.93757 0,-1.09375 -0.03125,-1.0625 0,-17.53125 -16.3125,-8.15625 -17.53125,8.78125 -1.0625,0.5 -1.0625,0.53125 0,-4.90625 17.21875,-8.59375 -0.03125,-17.1875 4.9375,-2.46875 -0.03125,1.0625 0,1.0625 0,17.53125 16.375,8.15625 17.53125,-8.75 1.0625,-0.53125 1.0625,-0.53125 0,4.1875 0,0.71875 -17.21875,8.59375 0,17.21875 -0.40625,0.21875 -4.5,2.25 z"
           id="path4085"
           inkscape:connector-curvature="0" />
        <path
           style="font-size:medium;font-style:normal;font-variant:normal;font-weight:normal;font-stretch:normal;text-indent:0;text-align:start;text-decoration:none;line-height:normal;letter-spacing:normal;word-spacing:normal;text-transform:none;direction:ltr;block-progression:tb;writing-mode:lr-tb;text-anchor:start;baseline-shift:baseline;color:#000000;fill:#225577;fill-opacity:1;fill-rule:nonzero;stroke:none;stroke-width:0.1;marker:none;visibility:visible;display:inline;overflow:visible;enable-background:accumulate;font-family:Sans;-inkscape-font-specification:Sans"
           d="m 191.29576,307.93757 0,-1.09375 -0.0312,-1.0625 0,-17.53125 -16.3438,-8.15625 -17.53125,8.78125 -1.0625,0.5 -1.03125,0.53125 0,-4.90625 17.1875,-8.59375 -0.0312,-17.1875 4.96875,-2.46875 -0.0312,1.0625 0,1.0625 0,17.53125 16.34375,8.15625 17.53125,-8.75 1.0625,-0.53125 1.09375,-0.53125 0,4.1875 0,0.71875 -17.25,8.59375 0,17.21875 -0.40625,0.21875 -4.46875,2.25 z"
           id="path4083"
           inkscape:connector-curvature="0" />
        <path
           style="font-size:medium;font-style:normal;font-variant:normal;font-weight:normal;font-stretch:normal;text-indent:0;text-align:start;text-decoration:none;line-height:normal;letter-spacing:normal;word-spacing:normal;text-transform:none;direction:ltr;block-progression:tb;writing-mode:lr-tb;text-anchor:start;baseline-shift:baseline;color:#000000;fill:#225577;fill-opacity:1;fill-rule:nonzero;stroke:none;stroke-width:0.1;marker:none;visibility:visible;display:inline;overflow:visible;enable-background:accumulate;font-family:Sans;-inkscape-font-specification:Sans"
           d="m 54.608265,278.18757 -0.4375,-0.21875 -4.46875,-2.21875 0,-0.0312 1.0625,-0.53125 1.0625,-0.5 17.53125,-8.78125 0,-16.34375 -17.53125,-8.75 -1.0625,-0.53125 -1.0625,-0.53125 4.90625,-2.46875 17.21875,8.59375 17.1875,-8.59375 4.9375,2.46875 -1.09375,0.53125 -1.0625,0.53125 -17.53125,8.75 0,16.34375 17.53125,8.78125 1.0625,0.5 1.09375,0.53125 -4.21875,2.125 -0.71875,0.34375 -17.1875,-8.59375 -17.21875,8.59375 z"
           id="path4081"
           inkscape:connector-curvature="0" />
        <path
           style="font-size:medium;font-style:normal;font-variant:normal;font-weight:normal;font-stretch:normal;text-indent:0;text-align:start;text-decoration:none;line-height:normal;letter-spacing:normal;word-spacing:normal;text-transform:none;direction:ltr;block-progression:tb;writing-mode:lr-tb;text-anchor:start;baseline-shift:baseline;color:#000000;fill:#225577;fill-opacity:1;fill-rule:nonzero;stroke:none;stroke-width:0.1;marker:none;visibility:visible;display:inline;overflow:visible;enable-background:accumulate;font-family:Sans;-inkscape-font-specification:Sans"
           d="m 198.67076,278.18757 -0.46875,-0.21875 -4.46875,-2.21875 1.0625,-0.5625 1.0625,-0.5 17.5625,-8.78125 0,-16.34375 -17.5625,-8.75 -1.0625,-0.53125 -1.0625,-0.53125 4.9375,-2.46875 17.1875,8.59375 17.1875,-8.59375 4.9375,2.46875 -1.0625,0.53125 -1.0625,0.53125 -17.5625,8.75 0,16.34375 17.5625,8.78125 1.0625,0.5 1.0625,0.5625 -4.21875,2.09375 -0.71875,0.34375 -17.1875,-8.59375 -17.1875,8.59375 z"
           id="path4079"
           inkscape:connector-curvature="0" />
        <path
           style="font-size:medium;font-style:normal;font-variant:normal;font-weight:normal;font-stretch:normal;text-indent:0;text-align:start;text-decoration:none;line-height:normal;letter-spacing:normal;word-spacing:normal;text-transform:none;direction:ltr;block-progression:tb;writing-mode:lr-tb;text-anchor:start;baseline-shift:baseline;color:#000000;fill:#225577;fill-opacity:1;fill-rule:nonzero;stroke:none;stroke-width:0.1;marker:none;visibility:visible;display:inline;overflow:visible;enable-background:accumulate;font-family:Sans;-inkscape-font-specification:Sans"
           d="m 24.545765,272.43757 -4.90625,-2.46875 0,-17.15625 -17.2187504,-8.625 0,-4.90625 1.09375,0.53125 1.0625,0.53125 17.5312504,8.75 16.3125,-8.15625 0,-17.53125 0,-1.0625 0,-1.0625 4.21875,2.09375 0.71875,0.34375 0,17.21875 17.21875,8.59375 0,0.4375 0,4.46875 -0.03125,0 -1.0625,-0.5 -1.03125,-0.5625 -17.5625,-8.75 -16.34375,8.1875 0,17.5 0,1.09375 0,1.03125 z"
           id="path4077"
           inkscape:connector-curvature="0" />
        <path
           style="font-size:medium;font-style:normal;font-variant:normal;font-weight:normal;font-stretch:normal;text-indent:0;text-align:start;text-decoration:none;line-height:normal;letter-spacing:normal;word-spacing:normal;text-transform:none;direction:ltr;block-progression:tb;writing-mode:lr-tb;text-anchor:start;baseline-shift:baseline;color:#000000;fill:#225577;fill-opacity:1;fill-rule:nonzero;stroke:none;stroke-width:0.1;marker:none;visibility:visible;display:inline;overflow:visible;enable-background:accumulate;font-family:Sans;-inkscape-font-specification:Sans"
           d="m 168.60826,272.43757 -4.9375,-2.4375 0,-0.0312 0,-17.15625 -17.1875,-8.625 0,-4.90625 1.0625,0.53125 1.0625,0.53125 17.53125,8.75 16.34375,-8.15625 0,-17.53125 0,-1.0625 0,-1.0625 4.21875,2.09375 0.6875,0.34375 0,17.21875 17.25,8.59375 0,0.4375 0,4.46875 -0.0312,0 -1.09375,-0.5 -1.03125,-0.5625 -17.53125,-8.75 -16.34375,8.1875 0,17.5 0,1.09375 0,1.03125 z"
           id="path4075"
           inkscape:connector-curvature="0" />
        <path
           style="font-size:medium;font-style:normal;font-variant:normal;font-weight:normal;font-stretch:normal;text-indent:0;text-align:start;text-decoration:none;line-height:normal;letter-spacing:normal;word-spacing:normal;text-transform:none;direction:ltr;block-progression:tb;writing-mode:lr-tb;text-anchor:start;baseline-shift:baseline;color:#000000;fill:#225577;fill-opacity:1;fill-rule:nonzero;stroke:none;stroke-width:0.1;marker:none;visibility:visible;display:inline;overflow:visible;enable-background:accumulate;font-family:Sans;-inkscape-font-specification:Sans"
           d="m 312.63951,272.43757 -4.9375,-2.4375 0,-17.1875 -17.15625,-8.625 -0.0312,-4.90625 1.0625,0.53125 1.0625,0.53125 17.53125,8.75 16.34375,-8.15625 0.0312,-17.53125 -0.0312,-1.0625 0,-1.0625 4.21875,2.09375 0.71875,0.34375 0,17.21875 17.2187,8.59375 0,0.4375 0,4.46875 -1.0625,-0.5 -1.09375,-0.5625 -17.53125,-8.75 -16.34375,8.1875 0,17.5 0,1.09375 0,1.03125 z"
           id="path4073"
           inkscape:connector-curvature="0" />
        <path
           style="font-size:medium;font-style:normal;font-variant:normal;font-weight:normal;font-stretch:normal;text-indent:0;text-align:start;text-decoration:none;line-height:normal;letter-spacing:normal;word-spacing:normal;text-transform:none;direction:ltr;block-progression:tb;writing-mode:lr-tb;text-anchor:start;baseline-shift:baseline;color:#000000;fill:#225577;fill-opacity:1;fill-rule:nonzero;stroke:none;stroke-width:0.1;marker:none;visibility:visible;display:inline;overflow:visible;enable-background:accumulate;font-family:Sans;-inkscape-font-specification:Sans"
           d="m -24.547985,272.31257 -0.03125,-1.0625 0,-1.0625 0,-17.53125 -16.3125,-8.15625 -17.53125,8.75 -1.0625,0.53125 -1.09375,0.53125 0,-4.9375 17.21875,-8.59375 0,-17.1875 4.90625,-2.4375 0,1.03125 0,1.0625 0,17.53125 16.34375,8.15625 17.5312496,-8.75 1.0625,-0.53125 1.0625,-0.53125 0,4.21875 0,0.71875 -17.1874996,8.59375 0,17.21875 -0.4375,0.21875 -4.46875,2.21875 z"
           id="path4071"
           inkscape:connector-curvature="0" />
        <path
           style="font-size:medium;font-style:normal;font-variant:normal;font-weight:normal;font-stretch:normal;text-indent:0;text-align:start;text-decoration:none;line-height:normal;letter-spacing:normal;word-spacing:normal;text-transform:none;direction:ltr;block-progression:tb;writing-mode:lr-tb;text-anchor:start;baseline-shift:baseline;color:#000000;fill:#225577;fill-opacity:1;fill-rule:nonzero;stroke:none;stroke-width:0.1;marker:none;visibility:visible;display:inline;overflow:visible;enable-background:accumulate;font-family:Sans;-inkscape-font-specification:Sans"
           d="m 119.51451,272.31257 -0.0312,-1.0625 0,-1.0625 0,-17.53125 -16.34375,-8.15625 -17.531245,8.75 -1.0625,0.53125 -1.0625,0.53125 0,-4.90625 0,-0.0312 17.187495,-8.59375 0,-17.1875 4.9375,-2.4375 0.0312,0 -0.0312,1.03125 0,1.0625 0,0.0312 0,17.5 16.3125,8.15625 17.53125,-8.71875 0.0312,-0.0312 1.0625,-0.53125 1.0625,-0.53125 0,4.21875 0.0312,0.71875 -0.0312,0 -17.21875,8.59375 0,17.21875 -0.4375,0.21875 -4.4375,2.21875 z"
           id="path4069"
           inkscape:connector-curvature="0" />
        <path
           style="font-size:medium;font-style:normal;font-variant:normal;font-weight:normal;font-stretch:normal;text-indent:0;text-align:start;text-decoration:none;line-height:normal;letter-spacing:normal;word-spacing:normal;text-transform:none;direction:ltr;block-progression:tb;writing-mode:lr-tb;text-anchor:start;baseline-shift:baseline;color:#000000;fill:#225577;fill-opacity:1;fill-rule:nonzero;stroke:none;stroke-width:0.1;marker:none;visibility:visible;display:inline;overflow:visible;enable-background:accumulate;font-family:Sans;-inkscape-font-specification:Sans"
           d="m 263.54576,272.31257 -0.0312,-1.0625 0,-1.0625 0,-17.53125 -16.3125,-8.15625 -17.5625,8.75 -1.0625,0.53125 -1.0625,0.53125 0,-4.90625 17.1875,-8.625 0,-17.1875 4.96875,-2.4375 -0.0312,1.03125 0,1.09375 0,17.5 16.34375,8.15625 17.53125,-8.71875 1.09375,-0.5625 1.03125,-0.53125 0,4.21875 0.0312,0.71875 -17.21875,8.59375 0,17.21875 -0.46875,0.21875 -4.4375,2.21875 z"
           id="path4067"
           inkscape:connector-curvature="0" />
        <path
           style="font-size:medium;font-style:normal;font-variant:normal;font-weight:normal;font-stretch:normal;text-indent:0;text-align:start;text-decoration:none;line-height:normal;letter-spacing:normal;word-spacing:normal;text-transform:none;direction:ltr;block-progression:tb;writing-mode:lr-tb;text-anchor:start;baseline-shift:baseline;color:#000000;fill:#225577;fill-opacity:1;fill-rule:nonzero;stroke:none;stroke-width:0.1;marker:none;visibility:visible;display:inline;overflow:visible;enable-background:accumulate;font-family:Sans;-inkscape-font-specification:Sans"
           d="m -22.079235,270.18757 0,-18.15625 0,-0.625 -0.03125,0 0,0.625 0.03125,18.15625 z"
           id="path4065"
           inkscape:connector-curvature="0" />
        <path
           style="font-size:medium;font-style:normal;font-variant:normal;font-weight:normal;font-stretch:normal;text-indent:0;text-align:start;text-decoration:none;line-height:normal;letter-spacing:normal;word-spacing:normal;text-transform:none;direction:ltr;block-progression:tb;writing-mode:lr-tb;text-anchor:start;baseline-shift:baseline;color:#000000;fill:#225577;fill-opacity:1;fill-rule:nonzero;stroke:none;stroke-width:0.1;marker:none;visibility:visible;display:inline;overflow:visible;enable-background:accumulate;font-family:Sans;-inkscape-font-specification:Sans"
           d="m 41.514515,242.46882 -0.59375,-0.3125 0,-0.625 0,-18.125 -0.03125,18.125 0.03125,0.625 0,0.0312 0.59375,0.28125 z"
           id="path4063"
           inkscape:connector-curvature="0" />
        <path
           style="font-size:medium;font-style:normal;font-variant:normal;font-weight:normal;font-stretch:normal;text-indent:0;text-align:start;text-decoration:none;line-height:normal;letter-spacing:normal;word-spacing:normal;text-transform:none;direction:ltr;block-progression:tb;writing-mode:lr-tb;text-anchor:start;baseline-shift:baseline;color:#000000;fill:#225577;fill-opacity:1;fill-rule:nonzero;stroke:none;stroke-width:0.1;marker:none;visibility:visible;display:inline;overflow:visible;enable-background:accumulate;font-family:Sans;-inkscape-font-specification:Sans"
           d="m 329.60826,242.46882 -0.625,-0.3125 0,0.0312 0.625,0.28125 z"
           id="path4061"
           inkscape:connector-curvature="0" />
        <path
           style="font-size:medium;font-style:normal;font-variant:normal;font-weight:normal;font-stretch:normal;text-indent:0;text-align:start;text-decoration:none;line-height:normal;letter-spacing:normal;word-spacing:normal;text-transform:none;direction:ltr;block-progression:tb;writing-mode:lr-tb;text-anchor:start;baseline-shift:baseline;color:#000000;fill:#225577;fill-opacity:1;fill-rule:nonzero;stroke:none;stroke-width:0.1;marker:none;visibility:visible;display:inline;overflow:visible;enable-background:accumulate;font-family:Sans;-inkscape-font-specification:Sans"
           d="m 126.85826,242.03132 -0.4375,-0.21875 -4.46875,-2.21875 0,-0.0312 0.375,-0.1875 -0.40625,-0.1875 0,-0.0312 1.03125,-0.53125 1.09375,-0.53125 17.53125,-8.78125 0,-15.90625 -17.5,-8.75 -1.0625,-0.5625 -1.0625,-0.53125 0.375,-0.1875 -0.40625,-0.21875 4.9375,-2.46875 17.1875,8.625 17.1875,-8.625 4.9375,2.46875 -0.40625,0.1875 0.4375,0.21875 -1.0625,0.53125 -1.0625,0.5625 -17.5625,8.75 0,15.9375 17.53125,8.75 1.0625,0.53125 1.0625,0.53125 -0.375,0.1875 0.40625,0.21875 -4.21875,2.125 -0.71875,0.34375 -17.1875,-8.59375 -17.21875,8.59375 z"
           id="path4059"
           inkscape:connector-curvature="0" />
        <path
           style="font-size:medium;font-style:normal;font-variant:normal;font-weight:normal;font-stretch:normal;text-indent:0;text-align:start;text-decoration:none;line-height:normal;letter-spacing:normal;word-spacing:normal;text-transform:none;direction:ltr;block-progression:tb;writing-mode:lr-tb;text-anchor:start;baseline-shift:baseline;color:#000000;fill:#225577;fill-opacity:1;fill-rule:nonzero;stroke:none;stroke-width:0.1;marker:none;visibility:visible;display:inline;overflow:visible;enable-background:accumulate;font-family:Sans;-inkscape-font-specification:Sans"
           d="m 270.88951,242.03132 -0.4375,-0.21875 -4.46875,-2.21875 0,-0.0312 1.0625,-0.53125 1.09375,-0.53125 17.5,-8.78125 0,-16.3125 -17.5,-8.75 -1.09375,-0.53125 -1.0625,-0.5625 4.9375,-2.4375 17.1875,8.59375 17.21875,-8.59375 4.90625,2.4375 -1.0625,0.5625 -1.0625,0.53125 -17.53125,8.75 0,16.3125 17.53125,8.78125 1.0625,0.53125 1.0625,0.53125 -4.21875,2.125 -0.6875,0.34375 -17.21875,-8.59375 -17.21875,8.59375 z"
           id="path4057"
           inkscape:connector-curvature="0" />
        <path
           style="font-size:medium;font-style:normal;font-variant:normal;font-weight:normal;font-stretch:normal;text-indent:0;text-align:start;text-decoration:none;line-height:normal;letter-spacing:normal;word-spacing:normal;text-transform:none;direction:ltr;block-progression:tb;writing-mode:lr-tb;text-anchor:start;baseline-shift:baseline;color:#000000;fill:#225577;fill-opacity:1;fill-rule:nonzero;stroke:none;stroke-width:0.1;marker:none;visibility:visible;display:inline;overflow:visible;enable-background:accumulate;font-family:Sans;-inkscape-font-specification:Sans"
           d="m -17.204235,241.62507 -0.46875,-0.21875 -4.4375,-2.21875 0,-0.0312 1.03125,-0.53125 1.0625,-0.53125 17.5624996,-8.78125 0,-16.34375 -17.5624996,-8.75 -1.0625,-0.53125 -1.03125,-0.53125 4.90625,-2.46875 17.21874957,8.625 17.15625043,-8.625 4.96875,2.46875 -1.0625,0.53125 -1.09375,0.53125 -17.5312504,8.75 0,16.34375 17.5312504,8.78125 1.09375,0.53125 1.0625,0.53125 -4.21875,2.125 -0.71875,0.34375 -17.18750043,-8.625 -17.21874957,8.625 z"
           id="path4055"
           inkscape:connector-curvature="0" />
        <path
           style="font-size:medium;font-style:normal;font-variant:normal;font-weight:normal;font-stretch:normal;text-indent:0;text-align:start;text-decoration:none;line-height:normal;letter-spacing:normal;word-spacing:normal;text-transform:none;direction:ltr;block-progression:tb;writing-mode:lr-tb;text-anchor:start;baseline-shift:baseline;color:#000000;fill:#225577;fill-opacity:1;fill-rule:nonzero;stroke:none;stroke-width:0.1;marker:none;visibility:visible;display:inline;overflow:visible;enable-background:accumulate;font-family:Sans;-inkscape-font-specification:Sans"
           d="m 96.327015,236.12507 -4.875,-2.46875 0,-17.15625 -17.21875,-8.625 0,-4.90625 1.03125,0.53125 1.09375,0.53125 17.53125,8.75 16.312495,-8.15625 0.0312,-17.53125 0,-1.0625 0,-1.0625 4.21875,2.09375 0.71875,0.34375 0,17.21875 17.1875,8.59375 0,0.46875 0,4.4375 0,0.0312 -1.0625,-0.53125 -1.0625,-0.5625 -17.53125,-8.75 -16.374995,8.1875 0,17.5 0,1.09375 0,1.03125 z"
           id="path4053"
           inkscape:connector-curvature="0" />
        <path
           style="font-size:medium;font-style:normal;font-variant:normal;font-weight:normal;font-stretch:normal;text-indent:0;text-align:start;text-decoration:none;line-height:normal;letter-spacing:normal;word-spacing:normal;text-transform:none;direction:ltr;block-progression:tb;writing-mode:lr-tb;text-anchor:start;baseline-shift:baseline;color:#000000;fill:#225577;fill-opacity:1;fill-rule:nonzero;stroke:none;stroke-width:0.1;marker:none;visibility:visible;display:inline;overflow:visible;enable-background:accumulate;font-family:Sans;-inkscape-font-specification:Sans"
           d="m 240.38951,236.12507 -4.90625,-2.4375 0,-17.1875 -17.21875,-8.625 0,-4.90625 1.0625,0.53125 1.0625,0.53125 17.53125,8.75 16.34375,-8.15625 0.0312,-17.53125 0,-1.0625 0,-1.0625 4.21875,2.09375 0.6875,0.34375 0,17.21875 17.21875,8.59375 0,0.46875 0,4.4375 0,0.0312 -1.09375,-0.53125 -1.0625,-0.5625 -17.53125,-8.75 -16.34375,8.1875 0,17.5 0,1.09375 0,1.03125 z"
           id="path4051"
           inkscape:connector-curvature="0" />
        <path
           style="font-size:medium;font-style:normal;font-variant:normal;font-weight:normal;font-stretch:normal;text-indent:0;text-align:start;text-decoration:none;line-height:normal;letter-spacing:normal;word-spacing:normal;text-transform:none;direction:ltr;block-progression:tb;writing-mode:lr-tb;text-anchor:start;baseline-shift:baseline;color:#000000;fill:#225577;fill-opacity:1;fill-rule:nonzero;stroke:none;stroke-width:0.1;marker:none;visibility:visible;display:inline;overflow:visible;enable-background:accumulate;font-family:Sans;-inkscape-font-specification:Sans"
           d="m 47.233265,236.00007 0,-1.0625 -0.03125,-1.0625 0,-17.53125 -16.3125,-8.15625 -17.53125,8.75 -1.0625,0.53125 -1.0625,0.53125 0,-4.9375 17.21875,-8.59375 -0.03125,-17.1875 4.9375,-2.4375 -0.03125,1.03125 0,1.0625 0,17.53125 16.375,8.1875 17.53125,-8.78125 1.0625,-0.53125 1.0625,-0.53125 0,4.21875 0,0.71875 -17.21875,8.59375 0,17.21875 -0.40625,0.21875 -4.5,2.21875 z"
           id="path4049"
           inkscape:connector-curvature="0" />
        <path
           style="font-size:medium;font-style:normal;font-variant:normal;font-weight:normal;font-stretch:normal;text-indent:0;text-align:start;text-decoration:none;line-height:normal;letter-spacing:normal;word-spacing:normal;text-transform:none;direction:ltr;block-progression:tb;writing-mode:lr-tb;text-anchor:start;baseline-shift:baseline;color:#000000;fill:#225577;fill-opacity:1;fill-rule:nonzero;stroke:none;stroke-width:0.1;marker:none;visibility:visible;display:inline;overflow:visible;enable-background:accumulate;font-family:Sans;-inkscape-font-specification:Sans"
           d="m 191.29576,236.00007 0,-1.0625 -0.0312,-1.0625 0,-17.53125 -16.34375,-8.15625 -17.5313,8.78125 -1.0625,0.5 -1.03125,0.53125 0,-4.90625 17.1875,-8.625 -0.0312,-17.1875 4.96875,-2.4375 -0.0312,1.03125 0,1.09375 0,17.5 16.34375,8.1875 17.53125,-8.75 1.0625,-0.5625 1.09375,-0.53125 0,4.21875 0,0.71875 -17.25,8.59375 0,17.21875 -0.40635,0.21875 -4.46875,2.21875 z"
           id="path4047"
           inkscape:connector-curvature="0" />
        <path
           style="font-size:medium;font-style:normal;font-variant:normal;font-weight:normal;font-stretch:normal;text-indent:0;text-align:start;text-decoration:none;line-height:normal;letter-spacing:normal;word-spacing:normal;text-transform:none;direction:ltr;block-progression:tb;writing-mode:lr-tb;text-anchor:start;baseline-shift:baseline;color:#000000;fill:#225577;fill-opacity:1;fill-rule:nonzero;stroke:none;stroke-width:0.1;marker:none;visibility:visible;display:inline;overflow:visible;enable-background:accumulate;font-family:Sans;-inkscape-font-specification:Sans"
           d="m 54.608265,205.65632 -0.4375,-0.21875 -4.46875,-2.21875 0,-0.0312 1.0625,-0.53125 1.0625,-0.53125 17.53125,-8.78125 0,-16.34375 -17.53125,-8.75 -1.0625,-0.53125 -1.0625,-0.53125 4.90625,-2.46875 17.21875,8.625 17.1875,-8.625 4.9375,2.46875 -1.09375,0.53125 -1.0625,0.53125 -17.53125,8.75 0,16.34375 17.53125,8.78125 1.0625,0.53125 1.09375,0.53125 -4.21875,2.125 -0.71875,0.34375 -17.1875,-8.625 -17.21875,8.625 z"
           id="path4045"
           inkscape:connector-curvature="0" />
        <path
           style="font-size:medium;font-style:normal;font-variant:normal;font-weight:normal;font-stretch:normal;text-indent:0;text-align:start;text-decoration:none;line-height:normal;letter-spacing:normal;word-spacing:normal;text-transform:none;direction:ltr;block-progression:tb;writing-mode:lr-tb;text-anchor:start;baseline-shift:baseline;color:#000000;fill:#225577;fill-opacity:1;fill-rule:nonzero;stroke:none;stroke-width:0.1;marker:none;visibility:visible;display:inline;overflow:visible;enable-background:accumulate;font-family:Sans;-inkscape-font-specification:Sans"
           d="m 198.67076,205.65632 -0.46875,-0.21875 -4.46875,-2.21875 0,-0.0312 1.0625,-0.53125 1.0625,-0.53125 17.5625,-8.78125 0,-16.34375 -17.5625,-8.75 -1.0625,-0.53125 -1.0625,-0.53125 4.9375,-2.46875 17.1875,8.625 17.1875,-8.625 4.9375,2.46875 -1.0625,0.53125 -1.0625,0.53125 -17.5625,8.75 0,16.34375 17.5625,8.78125 1.0625,0.53125 1.0625,0.53125 -4.21875,2.125 -0.71875,0.34375 -17.1875,-8.625 -17.1875,8.625 z"
           id="path4043"
           inkscape:connector-curvature="0" />
        <path
           style="font-size:medium;font-style:normal;font-variant:normal;font-weight:normal;font-stretch:normal;text-indent:0;text-align:start;text-decoration:none;line-height:normal;letter-spacing:normal;word-spacing:normal;text-transform:none;direction:ltr;block-progression:tb;writing-mode:lr-tb;text-anchor:start;baseline-shift:baseline;color:#000000;fill:#225577;fill-opacity:1;fill-rule:nonzero;stroke:none;stroke-width:0.1;marker:none;visibility:visible;display:inline;overflow:visible;enable-background:accumulate;font-family:Sans;-inkscape-font-specification:Sans"
           d="m 168.60826,199.96882 -4.9375,-2.46875 0,-0.40625 -0.0312,0 0,-16.8125 -17.15625,-8.5625 0,-0.375 -0.0312,-0.0312 0,-4.9375 1.0625,0.5625 1.0625,0.53125 17.5,8.75 16.375,-8.1875 0,-17.5 0,-1.09375 0,-1.0625 4.21875,2.125 0.6875,0.34375 0,0.375 0.0312,0.0312 0,16.8125 17.1875,8.59375 0.0312,0.375 0.0312,0.0312 0,0.4375 0,4.46875 -1.09375,-0.53125 -1.0625,-0.53125 -17.53125,-8.75 -16.34375,8.15625 0,17.53125 0,1.0625 0,1.0625 z"
           id="path4041"
           inkscape:connector-curvature="0" />
        <path
           style="font-size:medium;font-style:normal;font-variant:normal;font-weight:normal;font-stretch:normal;text-indent:0;text-align:start;text-decoration:none;line-height:normal;letter-spacing:normal;word-spacing:normal;text-transform:none;direction:ltr;block-progression:tb;writing-mode:lr-tb;text-anchor:start;baseline-shift:baseline;color:#000000;fill:#225577;fill-opacity:1;fill-rule:nonzero;stroke:none;stroke-width:0.1;marker:none;visibility:visible;display:inline;overflow:visible;enable-background:accumulate;font-family:Sans;-inkscape-font-specification:Sans"
           d="m 312.63951,199.96882 -4.9375,-2.46875 0,-17.1875 -17.15625,-8.59375 -0.0312,-4.90625 1.0625,0.53125 1.0625,0.53125 17.53125,8.75 16.34375,-8.15625 0.0312,-17.53125 0,-1.0625 -0.0312,-1.09375 4.21875,2.125 0.71875,0.34375 0,17.21875 17.21875,8.59375 0,0.4375 0,4.46875 -1.0625,-0.53125 -1.09375,-0.53125 -17.53125,-8.75 -16.34375,8.15625 0,17.53125 0,1.0625 0,1.0625 z"
           id="path4039"
           inkscape:connector-curvature="0" />
        <path
           style="font-size:medium;font-style:normal;font-variant:normal;font-weight:normal;font-stretch:normal;text-indent:0;text-align:start;text-decoration:none;line-height:normal;letter-spacing:normal;word-spacing:normal;text-transform:none;direction:ltr;block-progression:tb;writing-mode:lr-tb;text-anchor:start;baseline-shift:baseline;color:#000000;fill:#225577;fill-opacity:1;fill-rule:nonzero;stroke:none;stroke-width:0.1;marker:none;visibility:visible;display:inline;overflow:visible;enable-background:accumulate;font-family:Sans;-inkscape-font-specification:Sans"
           d="m 119.51451,199.81257 0,-0.40625 -0.0312,0 -0.0312,0 0,-1.03125 0,-1.09375 0,-17.125 -16.3125,-8.15625 -17.531245,8.75 -1.0625,0.5625 -1.0625,0.53125 0,-0.4375 -0.03125,0.0312 0,-4.9375 17.187495,-8.59375 0,-17.1875 4.9375,-2.46875 0,0.40625 0.0312,0 0,1.0625 0,1.0625 0,17.125 16.28125,8.15625 17.53125,-8.75 1.09375,-0.53125 1.0625,-0.53125 0,0.40625 0.0312,0 0,4.21875 0.0312,0.6875 -17.25,8.625 0,17.1875 -0.4375,0.21875 -4.4375,2.21875 z"
           id="path4037"
           inkscape:connector-curvature="0" />
        <path
           style="font-size:medium;font-style:normal;font-variant:normal;font-weight:normal;font-stretch:normal;text-indent:0;text-align:start;text-decoration:none;line-height:normal;letter-spacing:normal;word-spacing:normal;text-transform:none;direction:ltr;block-progression:tb;writing-mode:lr-tb;text-anchor:start;baseline-shift:baseline;color:#000000;fill:#225577;fill-opacity:1;fill-rule:nonzero;stroke:none;stroke-width:0.1;marker:none;visibility:visible;display:inline;overflow:visible;enable-background:accumulate;font-family:Sans;-inkscape-font-specification:Sans"
           d="m 263.54576,199.81257 -0.0312,-1.03125 0,-1.09375 0,-17.5 -16.3125,-8.1875 -17.5625,8.75 -1.0625,0.5625 -1.0625,0.53125 0,-4.9375 17.1875,-8.59375 0,-17.1875 4.9375,-2.46875 0,1.0625 0,1.0625 0,17.53125 16.34375,8.15625 17.53125,-8.75 1.09375,-0.53125 1.03125,-0.53125 0,4.21875 0.0312,0.6875 -17.21875,8.625 0,17.1875 -0.46875,0.21875 -4.4375,2.21875 z"
           id="path4035"
           inkscape:connector-curvature="0" />
        <path
           style="font-size:medium;font-style:normal;font-variant:normal;font-weight:normal;font-stretch:normal;text-indent:0;text-align:start;text-decoration:none;line-height:normal;letter-spacing:normal;word-spacing:normal;text-transform:none;direction:ltr;block-progression:tb;writing-mode:lr-tb;text-anchor:start;baseline-shift:baseline;color:#000000;fill:#225577;fill-opacity:1;fill-rule:nonzero;stroke:none;stroke-width:0.1;marker:none;visibility:visible;display:inline;overflow:visible;enable-background:accumulate;font-family:Sans;-inkscape-font-specification:Sans"
           d="m 24.514515,199.56257 -4.90625,-2.46875 0,-17.1875 -17.2187504,-8.59375 0,-4.9375 1.09375,0.53125 1.0625,0.5625 17.5000004,8.75 16.34375,-8.1875 0,-17.5 0,-1.09375 0,-1.0625 4.25,2.125 0.6875,0.34375 0,17.1875 17.1875,8.625 0.03125,0.4375 -0.03125,4.4375 -1.0625,-0.5 -1.03125,-0.53125 -17.5625,-8.75 -16.34375,8.15625 0,17.53125 0,1.0625 0,1.0625 z"
           id="path4033"
           inkscape:connector-curvature="0" />
        <path
           style="font-size:medium;font-style:normal;font-variant:normal;font-weight:normal;font-stretch:normal;text-indent:0;text-align:start;text-decoration:none;line-height:normal;letter-spacing:normal;word-spacing:normal;text-transform:none;direction:ltr;block-progression:tb;writing-mode:lr-tb;text-anchor:start;baseline-shift:baseline;color:#000000;fill:#225577;fill-opacity:1;fill-rule:nonzero;stroke:none;stroke-width:0.1;marker:none;visibility:visible;display:inline;overflow:visible;enable-background:accumulate;font-family:Sans;-inkscape-font-specification:Sans"
           d="m -24.579235,199.40632 0,-1.0625 0,-1.0625 0,-17.53125 -16.375,-8.15625 -17.5,8.75 -1.0625,0.53125 -1.09375,0.53125 0,-4.90625 17.21875,-8.59375 0,-17.1875 4.90625,-2.46875 0,1.0625 0,1.0625 0,17.53125 16.34375,8.15625 17.5312496,-8.75 1.0625,-0.53125 1.09375,-0.53125 0,4.21875 0,0.6875 -17.2187496,8.59375 0,17.21875 -0.4375,0.21875 -4.46875,2.21875 z"
           id="path4031"
           inkscape:connector-curvature="0" />
        <path
           style="font-size:medium;font-style:normal;font-variant:normal;font-weight:normal;font-stretch:normal;text-indent:0;text-align:start;text-decoration:none;line-height:normal;letter-spacing:normal;word-spacing:normal;text-transform:none;direction:ltr;block-progression:tb;writing-mode:lr-tb;text-anchor:start;baseline-shift:baseline;color:#000000;fill:#225577;fill-opacity:1;fill-rule:nonzero;stroke:none;stroke-width:0.1;marker:none;visibility:visible;display:inline;overflow:visible;enable-background:accumulate;font-family:Sans;-inkscape-font-specification:Sans"
           d="m -22.110485,197.28132 0,-18.125 0,-0.625 -0.03125,0 0,0.59375 0.03125,18.15625 z"
           id="path4029"
           inkscape:connector-curvature="0" />
        <path
           style="font-size:medium;font-style:normal;font-variant:normal;font-weight:normal;font-stretch:normal;text-indent:0;text-align:start;text-decoration:none;line-height:normal;letter-spacing:normal;word-spacing:normal;text-transform:none;direction:ltr;block-progression:tb;writing-mode:lr-tb;text-anchor:start;baseline-shift:baseline;color:#000000;fill:#225577;fill-opacity:1;fill-rule:nonzero;stroke:none;stroke-width:0.1;marker:none;visibility:visible;display:inline;overflow:visible;enable-background:accumulate;font-family:Sans;-inkscape-font-specification:Sans"
           d="m -17.204235,170.03132 -0.4375,-0.21875 -4.4375,-2.25 1.0625,-0.53125 1.03125,-0.53125 17.5312496,-8.78125 0,-16.3125 -17.5312496,-8.78125 -1.03125,-0.5 -1.0625,-0.53125 4.90625,-2.46875 17.21874957,8.59375 17.15625043,-8.59375 4.96875,2.46875 -1.09375,0.53125 -1.0625,0.5 -17.5312504,8.78125 0,16.3125 17.5312504,8.78125 1.0625,0.53125 1.09375,0.53125 -4.21875,2.125 -0.71875,0.34375 -17.18750043,-8.59375 -17.24999957,8.59375 z"
           id="path4027"
           inkscape:connector-curvature="0" />
        <path
           style="font-size:medium;font-style:normal;font-variant:normal;font-weight:normal;font-stretch:normal;text-indent:0;text-align:start;text-decoration:none;line-height:normal;letter-spacing:normal;word-spacing:normal;text-transform:none;direction:ltr;block-progression:tb;writing-mode:lr-tb;text-anchor:start;baseline-shift:baseline;color:#000000;fill:#225577;fill-opacity:1;fill-rule:nonzero;stroke:none;stroke-width:0.1;marker:none;visibility:visible;display:inline;overflow:visible;enable-background:accumulate;font-family:Sans;-inkscape-font-specification:Sans"
           d="m 126.85826,170.03132 -0.46875,-0.21875 -4.4375,-2.21875 0.0312,-0.0312 1.03125,-0.53125 1.0625,-0.53125 17.53125,-8.78125 0,-16.3125 -17.53125,-8.78125 -1.0625,-0.5 -1.0625,-0.53125 4.9375,-2.46875 17.1875,8.59375 17.1875,-8.59375 4.9375,2.46875 -1.0625,0.53125 -1.0625,0.5 -17.5625,8.78125 0,16.3125 17.5625,8.78125 1.0625,0.53125 1.03125,0.53125 0.0312,0 0,0.0312 -4.21875,2.09375 -0.71865,0.34375 -17.1875,-8.59375 -17.21875,8.59375 z"
           id="path4025"
           inkscape:connector-curvature="0" />
        <path
           style="font-size:medium;font-style:normal;font-variant:normal;font-weight:normal;font-stretch:normal;text-indent:0;text-align:start;text-decoration:none;line-height:normal;letter-spacing:normal;word-spacing:normal;text-transform:none;direction:ltr;block-progression:tb;writing-mode:lr-tb;text-anchor:start;baseline-shift:baseline;color:#000000;fill:#225577;fill-opacity:1;fill-rule:nonzero;stroke:none;stroke-width:0.1;marker:none;visibility:visible;display:inline;overflow:visible;enable-background:accumulate;font-family:Sans;-inkscape-font-specification:Sans"
           d="m 270.88951,170.03132 -0.4375,-0.21875 -4.46875,-2.21875 1.0625,-0.5625 1.09375,-0.53125 17.5,-8.75 0,-16.34375 -17.5,-8.78125 -1.09375,-0.5 -1.0625,-0.53125 4.9375,-2.46875 17.1875,8.59375 17.21875,-8.59375 4.90625,2.46875 -1.0625,0.53125 -1.0625,0.5 -17.53125,8.78125 0,16.34375 17.53125,8.75 1.0625,0.53125 1.0625,0.5625 -4.21875,2.09375 -0.6875,0.34375 -17.21875,-8.59375 -17.21875,8.59375 z"
           id="path4023"
           inkscape:connector-curvature="0" />
        <path
           style="font-size:medium;font-style:normal;font-variant:normal;font-weight:normal;font-stretch:normal;text-indent:0;text-align:start;text-decoration:none;line-height:normal;letter-spacing:normal;word-spacing:normal;text-transform:none;direction:ltr;block-progression:tb;writing-mode:lr-tb;text-anchor:start;baseline-shift:baseline;color:#000000;fill:#225577;fill-opacity:1;fill-rule:nonzero;stroke:none;stroke-width:0.1;marker:none;visibility:visible;display:inline;overflow:visible;enable-background:accumulate;font-family:Sans;-inkscape-font-specification:Sans"
           d="m 41.483265,169.56257 -0.59375,-0.3125 0,-0.59375 0,-18.125 -0.03125,18.125 0,0.625 0.625,0.28125 z"
           id="path4021"
           inkscape:connector-curvature="0" />
        <path
           style="font-size:medium;font-style:normal;font-variant:normal;font-weight:normal;font-stretch:normal;text-indent:0;text-align:start;text-decoration:none;line-height:normal;letter-spacing:normal;word-spacing:normal;text-transform:none;direction:ltr;block-progression:tb;writing-mode:lr-tb;text-anchor:start;baseline-shift:baseline;color:#000000;fill:#225577;fill-opacity:1;fill-rule:nonzero;stroke:none;stroke-width:0.1;marker:none;visibility:visible;display:inline;overflow:visible;enable-background:accumulate;font-family:Sans;-inkscape-font-specification:Sans"
           d="m 96.327015,163.59382 -4.875,-2.46875 0,-17.1875 -17.21875,-8.59375 0,-4.9375 1.03125,0.53125 1.09375,0.5625 17.53125,8.71875 16.312495,-8.15625 0.0312,-17.5 0,-1.09375 0,-1.0625 4.21875,2.125 0.71875,0.34375 0,17.1875 17.1875,8.625 0,0.4375 0,4.4375 -1.0625,-0.5 -1.0625,-0.53125 -17.53125,-8.75 -16.374995,8.15625 0,17.53125 0,1.0625 0,1.0625 z"
           id="path4019"
           inkscape:connector-curvature="0" />
        <path
           style="font-size:medium;font-style:normal;font-variant:normal;font-weight:normal;font-stretch:normal;text-indent:0;text-align:start;text-decoration:none;line-height:normal;letter-spacing:normal;word-spacing:normal;text-transform:none;direction:ltr;block-progression:tb;writing-mode:lr-tb;text-anchor:start;baseline-shift:baseline;color:#000000;fill:#225577;fill-opacity:1;fill-rule:nonzero;stroke:none;stroke-width:0.1;marker:none;visibility:visible;display:inline;overflow:visible;enable-background:accumulate;font-family:Sans;-inkscape-font-specification:Sans"
           d="m 240.38951,163.59382 -4.90625,-2.46875 0,-17.1875 -17.21875,-8.59375 0,-4.9375 1.0625,0.53125 1.0625,0.5625 17.53125,8.75 16.34375,-8.1875 0.0312,-17.5 0,-1.09375 0,-1.0625 4.21875,2.125 0.6875,0.34375 0,17.1875 17.21875,8.625 0,0.4375 0,4.4375 -1.09375,-0.5 -1.06245,-0.53125 -17.53125,-8.75 -16.34375,8.15625 0,17.53125 0,1.0625 0,1.0625 z"
           id="path4017"
           inkscape:connector-curvature="0" />
        <path
           style="font-size:medium;font-style:normal;font-variant:normal;font-weight:normal;font-stretch:normal;text-indent:0;text-align:start;text-decoration:none;line-height:normal;letter-spacing:normal;word-spacing:normal;text-transform:none;direction:ltr;block-progression:tb;writing-mode:lr-tb;text-anchor:start;baseline-shift:baseline;color:#000000;fill:#225577;fill-opacity:1;fill-rule:nonzero;stroke:none;stroke-width:0.1;marker:none;visibility:visible;display:inline;overflow:visible;enable-background:accumulate;font-family:Sans;-inkscape-font-specification:Sans"
           d="m 47.233265,163.43757 0,-1.0625 -0.03125,-1.0625 0,-17.53125 -16.3125,-8.15625 -17.53125,8.75 -1.0625,0.53125 -1.0625,0.53125 0,-4.90625 17.21875,-8.59375 -0.03125,-17.1875 4.9375,-2.46875 -0.03125,1.0625 0,1.0625 0,17.53125 16.375,8.15625 17.53125,-8.75 1.0625,-0.53125 1.0625,-0.53125 0,4.1875 0,0.71875 -17.21875,8.59375 0,17.21875 -0.40625,0.21875 -4.5,2.21875 z"
           id="path4015"
           inkscape:connector-curvature="0" />
        <path
           style="font-size:medium;font-style:normal;font-variant:normal;font-weight:normal;font-stretch:normal;text-indent:0;text-align:start;text-decoration:none;line-height:normal;letter-spacing:normal;word-spacing:normal;text-transform:none;direction:ltr;block-progression:tb;writing-mode:lr-tb;text-anchor:start;baseline-shift:baseline;color:#000000;fill:#225577;fill-opacity:1;fill-rule:nonzero;stroke:none;stroke-width:0.1;marker:none;visibility:visible;display:inline;overflow:visible;enable-background:accumulate;font-family:Sans;-inkscape-font-specification:Sans"
           d="m 191.29576,163.43757 0,-1.0625 -0.0312,-1.0625 0,-17.53125 -16.34375,-8.15625 -17.53125,8.75 -1.0625,0.53125 -1.03125,0.53125 0,-4.90625 17.1875,-8.59375 -0.0312,-17.1875 4.96875,-2.46875 -0.0312,1.0625 0,1.0625 0,17.53125 16.34375,8.15625 17.53125,-8.75 1.0625,-0.53125 1.09375,-0.53125 0,4.21875 0,0.6875 -17.25,8.59375 0,17.21875 -0.40625,0.21875 -4.46875,2.21875 z"
           id="path4013"
           inkscape:connector-curvature="0" />
        <path
           style="font-size:medium;font-style:normal;font-variant:normal;font-weight:normal;font-stretch:normal;text-indent:0;text-align:start;text-decoration:none;line-height:normal;letter-spacing:normal;word-spacing:normal;text-transform:none;direction:ltr;block-progression:tb;writing-mode:lr-tb;text-anchor:start;baseline-shift:baseline;color:#000000;fill:#225577;fill-opacity:1;fill-rule:nonzero;stroke:none;stroke-width:0.1;marker:none;visibility:visible;display:inline;overflow:visible;enable-background:accumulate;font-family:Sans;-inkscape-font-specification:Sans"
           d="m 113.29576,133.59382 -0.59375,-0.3125 0,0.0312 0.59375,0.28125 z"
           id="path4011"
           inkscape:connector-curvature="0" />
        <path
           style="font-size:medium;font-style:normal;font-variant:normal;font-weight:normal;font-stretch:normal;text-indent:0;text-align:start;text-decoration:none;line-height:normal;letter-spacing:normal;word-spacing:normal;text-transform:none;direction:ltr;block-progression:tb;writing-mode:lr-tb;text-anchor:start;baseline-shift:baseline;color:#000000;fill:#225577;fill-opacity:1;fill-rule:nonzero;stroke:none;stroke-width:0.1;marker:none;visibility:visible;display:inline;overflow:visible;enable-background:accumulate;font-family:Sans;-inkscape-font-specification:Sans"
           d="m 257.35826,133.59382 -0.625,-0.3125 0,0.0312 0.625,0.28125 z"
           id="path4009"
           inkscape:connector-curvature="0" />
        <path
           style="font-size:medium;font-style:normal;font-variant:normal;font-weight:normal;font-stretch:normal;text-indent:0;text-align:start;text-decoration:none;line-height:normal;letter-spacing:normal;word-spacing:normal;text-transform:none;direction:ltr;block-progression:tb;writing-mode:lr-tb;text-anchor:start;baseline-shift:baseline;color:#000000;fill:#225577;fill-opacity:1;fill-rule:nonzero;stroke:none;stroke-width:0.1;marker:none;visibility:visible;display:inline;overflow:visible;enable-background:accumulate;font-family:Sans;-inkscape-font-specification:Sans"
           d="m 54.608265,133.31257 -0.4375,-0.21875 -4.46875,-2.25 1.0625,-0.53125 1.0625,-0.53125 17.53125,-8.78125 0,-16.3125 4.90625,0 0,16.3125 17.53125,8.78125 1.0625,0.53125 1.09375,0.53125 -4.21875,2.09375 -0.71875,0.375 -17.1875,-8.59375 -17.21875,8.59375 z"
           id="path4007"
           inkscape:connector-curvature="0" />
        <path
           style="font-size:medium;font-style:normal;font-variant:normal;font-weight:normal;font-stretch:normal;text-indent:0;text-align:start;text-decoration:none;line-height:normal;letter-spacing:normal;word-spacing:normal;text-transform:none;direction:ltr;block-progression:tb;writing-mode:lr-tb;text-anchor:start;baseline-shift:baseline;color:#000000;fill:#225577;fill-opacity:1;fill-rule:nonzero;stroke:none;stroke-width:0.1;marker:none;visibility:visible;display:inline;overflow:visible;enable-background:accumulate;font-family:Sans;-inkscape-font-specification:Sans"
           d="m 198.67076,133.31257 -0.46875,-0.21875 -4.46875,-2.25 1.0625,-0.53125 1.0625,-0.53125 17.5625,-8.78125 0,-16.3125 4.875,0 0,16.3125 17.5625,8.78125 1.0625,0.53125 1.0625,0.53125 -4.21875,2.09375 -0.71875,0.375 -17.1875,-8.59375 -17.1875,8.59375 z"
           id="path4005"
           inkscape:connector-curvature="0" />
        <path
           style="font-size:medium;font-style:normal;font-variant:normal;font-weight:normal;font-stretch:normal;text-indent:0;text-align:start;text-decoration:none;line-height:normal;letter-spacing:normal;word-spacing:normal;text-transform:none;direction:ltr;block-progression:tb;writing-mode:lr-tb;text-anchor:start;baseline-shift:baseline;color:#000000;fill:#225577;fill-opacity:1;fill-rule:nonzero;stroke:none;stroke-width:0.1;marker:none;visibility:visible;display:inline;overflow:visible;enable-background:accumulate;font-family:Sans;-inkscape-font-specification:Sans"
           d="m 71.202015,122.53132 0.625,-0.28125 0.625,0.28125 -0.625,-0.3125 -0.625,0.3125 z"
           id="path4003"
           inkscape:connector-curvature="0" />
        <path
           style="font-size:medium;font-style:normal;font-variant:normal;font-weight:normal;font-stretch:normal;text-indent:0;text-align:start;text-decoration:none;line-height:normal;letter-spacing:normal;word-spacing:normal;text-transform:none;direction:ltr;block-progression:tb;writing-mode:lr-tb;text-anchor:start;baseline-shift:baseline;color:#000000;fill:#225577;fill-opacity:1;fill-rule:nonzero;stroke:none;stroke-width:0.1;marker:none;visibility:visible;display:inline;overflow:visible;enable-background:accumulate;font-family:Sans;-inkscape-font-specification:Sans"
           d="m 215.23326,122.53132 0.625,-0.28125 0.625,0.28125 -0.625,-0.3125 -0.625,0.3125 z"
           id="path3010"
           inkscape:connector-curvature="0" />
      </g>
    </g>
  </g>
</svg>
