<?xml version="1.0" encoding="UTF-8" standalone="no"?>
<!-- Created with Inkscape (http://www.inkscape.org/) -->

<svg
   xmlns:dc="http://purl.org/dc/elements/1.1/"
   xmlns:cc="http://creativecommons.org/ns#"
   xmlns:rdf="http://www.w3.org/1999/02/22-rdf-syntax-ns#"
   xmlns:svg="http://www.w3.org/2000/svg"
   xmlns="http://www.w3.org/2000/svg"
   xmlns:xlink="http://www.w3.org/1999/xlink"
   xmlns:sodipodi="http://sodipodi.sourceforge.net/DTD/sodipodi-0.dtd"
   xmlns:inkscape="http://www.inkscape.org/namespaces/inkscape"
   width="288"
   height="320"
   id="svg2"
   version="1.1"
   inkscape:version="0.48.5 r10040"
   sodipodi:docname="cover-hex.svg"
   inkscape:export-filename="/home/z4k/www/keplerjs/keplerjs.io/images/cover-hex.png"
   inkscape:export-xdpi="90"
   inkscape:export-ydpi="90"
   style="enable-background:new"
   enable-background="new">
  <defs
     id="defs4">
    <linearGradient
       inkscape:collect="always"
       id="linearGradient4859">
      <stop
         style="stop-color:#214a63;stop-opacity:1"
         offset="0"
         id="stop4861" />
      <stop
         style="stop-color:#21506f;stop-opacity:0;"
         offset="1"
         id="stop4863" />
    </linearGradient>
    <linearGradient
       inkscape:collect="always"
       id="linearGradient4104">
      <stop
         style="stop-color:#225d86;stop-opacity:1"
         offset="0"
         id="stop4106" />
      <stop
         style="stop-color:#255d83;stop-opacity:0.12290503"
         offset="1"
         id="stop4108" />
    </linearGradient>
    <linearGradient
       inkscape:collect="always"
       id="linearGradient4108">
      <stop
         style="stop-color:#225577;stop-opacity:0.60416669"
         offset="0"
         id="stop4110" />
      <stop
         style="stop-color:#225577;stop-opacity:0;"
         offset="1"
         id="stop4112" />
    </linearGradient>
    <linearGradient
       inkscape:collect="always"
       id="linearGradient4090">
      <stop
         style="stop-color:#ececec;stop-opacity:1;"
         offset="0"
         id="stop4092" />
      <stop
         style="stop-color:#ececec;stop-opacity:0;"
         offset="1"
         id="stop4094" />
    </linearGradient>
    <linearGradient
       inkscape:collect="always"
       xlink:href="#linearGradient4090"
       id="linearGradient4096"
       x1="79.903069"
       y1="-30.740503"
       x2="79.903069"
       y2="226.67992"
       gradientUnits="userSpaceOnUse"
       gradientTransform="translate(0,731.30006)" />
    <linearGradient
       inkscape:collect="always"
       xlink:href="#linearGradient4108"
       id="linearGradient4114"
       x1="82"
       y1="690.27234"
       x2="82"
       y2="845.78699"
       gradientUnits="userSpaceOnUse"
       gradientTransform="translate(-2.7e-5,0)" />
    <linearGradient
       inkscape:collect="always"
       xlink:href="#linearGradient4090-6"
       id="linearGradient4096-3"
       x1="79.903069"
       y1="-30.740503"
       x2="79.903069"
       y2="226.67992"
       gradientUnits="userSpaceOnUse"
       gradientTransform="translate(0,731.30006)" />
    <linearGradient
       inkscape:collect="always"
       id="linearGradient4090-6">
      <stop
         style="stop-color:#ececec;stop-opacity:1;"
         offset="0"
         id="stop4092-7" />
      <stop
         style="stop-color:#ececec;stop-opacity:0;"
         offset="1"
         id="stop4094-5" />
    </linearGradient>
    <linearGradient
       y2="226.67992"
       x2="79.903069"
       y1="-30.740503"
       x1="79.903069"
       gradientTransform="translate(-2.7e-5,-1.0621225)"
       gradientUnits="userSpaceOnUse"
       id="linearGradient4143"
       xlink:href="#linearGradient4090-6"
       inkscape:collect="always" />
    <linearGradient
       inkscape:collect="always"
       xlink:href="#linearGradient3861-6"
       id="linearGradient3867-3"
       x1="144.24979"
       y1="596.68799"
       x2="144.24979"
       y2="905.37903"
       gradientUnits="userSpaceOnUse" />
    <linearGradient
       inkscape:collect="always"
       id="linearGradient3861-6">
      <stop
         style="stop-color:#ffffff;stop-opacity:0.70391059"
         offset="0"
         id="stop3863-7" />
      <stop
         style="stop-color:#ffffff;stop-opacity:0"
         offset="1"
         id="stop3865-5" />
    </linearGradient>
    <linearGradient
       y2="905.37903"
       x2="144.24979"
       y1="596.68799"
       x1="144.24979"
       gradientUnits="userSpaceOnUse"
       id="linearGradient3076"
       xlink:href="#linearGradient3861-6"
       inkscape:collect="always" />
    <linearGradient
       y2="905.37903"
       x2="144.24979"
       y1="596.68799"
       x1="144.24979"
       gradientUnits="userSpaceOnUse"
       id="linearGradient3076-6"
       xlink:href="#linearGradient3861-6-2"
       inkscape:collect="always" />
    <linearGradient
       inkscape:collect="always"
       id="linearGradient3861-6-2">
      <stop
         style="stop-color:#ffffff;stop-opacity:0.70391059"
         offset="0"
         id="stop3863-7-9" />
      <stop
         style="stop-color:#ffffff;stop-opacity:0"
         offset="1"
         id="stop3865-5-1" />
    </linearGradient>
    <linearGradient
       y2="905.37903"
       x2="144.24979"
       y1="596.68799"
       x1="144.24979"
       gradientUnits="userSpaceOnUse"
       id="linearGradient3076-6-0"
       xlink:href="#linearGradient3861-6-2-3"
       inkscape:collect="always" />
    <linearGradient
       inkscape:collect="always"
       id="linearGradient3861-6-2-3">
      <stop
         style="stop-color:#ffffff;stop-opacity:0.70391059"
         offset="0"
         id="stop3863-7-9-1" />
      <stop
         style="stop-color:#ffffff;stop-opacity:0"
         offset="1"
         id="stop3865-5-1-2" />
    </linearGradient>
    <linearGradient
       inkscape:collect="always"
       xlink:href="#linearGradient4104"
       id="linearGradient4110"
       x1="166.20026"
       y1="726.62073"
       x2="166.20026"
       y2="911.34387"
       gradientUnits="userSpaceOnUse" />
    <filter
       inkscape:collect="always"
       id="filter4729">
      <feGaussianBlur
         inkscape:collect="always"
         stdDeviation="1.5477346"
         id="feGaussianBlur4731" />
    </filter>
    <linearGradient
       inkscape:collect="always"
       xlink:href="#linearGradient4104-7"
       id="linearGradient4110-7"
       x1="166.20026"
       y1="605.73663"
       x2="166.20026"
       y2="913.36127"
       gradientUnits="userSpaceOnUse" />
    <linearGradient
       inkscape:collect="always"
       id="linearGradient4104-7">
      <stop
         style="stop-color:#225d86;stop-opacity:1"
         offset="0"
         id="stop4106-9" />
      <stop
         style="stop-color:#225577;stop-opacity:1"
         offset="1"
         id="stop4108-8" />
    </linearGradient>
    <linearGradient
       inkscape:collect="always"
       xlink:href="#linearGradient4859"
       id="linearGradient4865"
       x1="161.92744"
       y1="1050.2452"
       x2="161.92744"
       y2="874.77264"
       gradientUnits="userSpaceOnUse" />
  </defs>
  <sodipodi:namedview
     id="base"
     pagecolor="#ffffff"
     bordercolor="#666666"
     borderopacity="1.0"
     inkscape:pageopacity="1"
     inkscape:pageshadow="2"
     inkscape:zoom="1.4142136"
     inkscape:cx="150.35923"
     inkscape:cy="45.959808"
     inkscape:document-units="px"
     inkscape:current-layer="layer1"
     showgrid="false"
     inkscape:snap-global="true"
     inkscape:window-width="1237"
     inkscape:window-height="1014"
     inkscape:window-x="639"
     inkscape:window-y="0"
     inkscape:window-maximized="0"
     showguides="true"
     inkscape:guide-bbox="true">
    <inkscape:grid
       type="xygrid"
       id="grid3780"
       empspacing="20"
       visible="true"
       enabled="true"
       snapvisiblegridlinesonly="true" />
  </sodipodi:namedview>
  <metadata
     id="metadata7">
    <rdf:RDF>
      <cc:Work
         rdf:about="">
        <dc:format>image/svg+xml</dc:format>
        <dc:type
           rdf:resource="http://purl.org/dc/dcmitype/StillImage" />
        <dc:title></dc:title>
      </cc:Work>
    </rdf:RDF>
  </metadata>
  <g
     inkscape:groupmode="layer"
     id="layer3"
     inkscape:label="background"
     sodipodi:insensitive="true">
    <rect
       style="fill:#225577;fill-opacity:1;stroke:#ffffff;stroke-width:0.5;stroke-linecap:square;stroke-linejoin:miter;stroke-miterlimit:4;stroke-opacity:1;stroke-dasharray:none;stroke-dashoffset:0"
       id="rect4046"
       width="311"
       height="342"
       x="-12"
       y="-12.999991" />
  </g>
  <g
     inkscape:label="shadow"
     inkscape:groupmode="layer"
     id="layer1"
     transform="translate(0,-732.36218)"
     style="display:inline">
    <path
       inkscape:connector-curvature="0"
       id="path3010-3"
       d="m -17.204238,706.39346 -0.4375,0.21875 -4.4375,2.21875 0,0.0312 1.0625,0.53125 1.03125,0.53125 17.5312505,8.78125 0,16.3125 -17.5312505,8.75 -1.03125,0.53125 -1.0625,0.53125 4.90625,2.46875 17.2187505,-8.59375 17.1562495,8.59375 4.96875,-2.46875 -1.09375,-0.53125 -1.0625,-0.53125 -17.5312495,-8.75 0,-16.3125 17.5312495,-8.78125 1.0625,-0.53125 1.09375,-0.53125 -4.21875,-2.125 -0.71875,-0.34375 -17.1874995,8.59375 -17.2500005,-8.59375 z m 144.062498,0 -0.46875,0.21875 -4.4375,2.21875 0,0.0312 1.0625,0.53125 1.0625,0.53125 17.53125,8.78125 0,16.3125 -17.53125,8.75 -1.0625,0.53125 -1.0625,0.53125 4.9375,2.46875 17.1875,-8.59375 17.1875,8.59375 4.9375,-2.46875 -1.0625,-0.53125 -1.0625,-0.53125 -17.5625,-8.75 0,-16.3125 17.5625,-8.78125 1.0625,-0.53125 1.03125,-0.53125 0.0312,0 0,-0.0312 -4.21875,-2.09375 -0.71875,-0.34375 -17.1875,8.59375 -17.21875,-8.59375 z m 144.03125,0 -0.4375,0.21875 -4.46875,2.21875 1.0625,0.5625 1.09375,0.53125 17.5,8.78125 0,16.3125 -17.5,8.75 -1.09375,0.53125 -1.0625,0.53125 4.9375,2.46875 17.1875,-8.59375 17.21875,8.59375 4.90625,-2.46875 -1.0625,-0.53125 -1.0625,-0.53125 -17.53125,-8.75 0,-16.3125 17.53125,-8.78125 1.0625,-0.53125 1.0625,-0.5625 -4.21875,-2.09375 -0.6875,-0.34375 -17.21875,8.59375 -17.21875,-8.59375 z m -174.562497,6.4375 -4.875,2.46875 0,17.1875 -17.21875,8.59375 0,4.9375 1.03125,-0.53125 1.09375,-0.53125 17.53125,-8.75 16.312487,8.15625 0.0312,17.53125 0,1.0625 0,1.0625 4.21875,-2.125 0.71875,-0.34375 0,-17.1875 17.1875,-8.59375 0,-0.46875 0,-4.4375 0,-0.0312 -1.0625,0.53125 -1.0625,0.53125 -17.53125,8.75 -16.374987,-8.15625 0,-17.53125 0,-1.0625 0,-1.0625 z m 144.062497,0 -4.90625,2.46875 0,17.1875 -17.21875,8.59375 0,4.9375 1.0625,-0.53125 1.0625,-0.5625 17.53125,-8.75 16.34375,8.1875 0.0312,17.5 0,1.09375 0,1.0625 4.21875,-2.125 0.6875,-0.34375 0,-17.1875 17.21875,-8.625 0,-0.4375 0,-4.4375 0,-0.0312 -1.0937,0.53125 -1.0625,0.53125 -17.53125,8.75 -16.34375,-8.15625 0,-17.53125 0,-1.0625 0,-1.0625 z m -193.156247,0.125 0,1.09375 -0.0312,1.0625 0,17.53125 -16.3125,8.15625 -17.53125,-8.78125 -1.0625,-0.5 -1.0625,-0.53125 0,4.90625 17.21875,8.59375 -0.0312,17.1875 4.9375,2.46875 -0.0313,-1.0625 0,-1.0625 0,-17.53125 16.375,-8.15625 17.53125,8.75 1.0625,0.53125 1.0625,0.53125 0,-4.1875 0,-0.71875 -17.21875,-8.59375 0,-17.21875 -0.40625,-0.21875 -4.5,-2.25 z m 144.062497,0 0,1.09375 -0.0312,1.0625 0,17.53125 -16.34379,8.15625 -17.53125,-8.78125 -1.0625,-0.5 -1.03125,-0.53125 0,4.90625 17.1875,8.59375 -0.0312,17.1875 4.96875,2.46875 -0.0312,-1.0625 0,-1.0625 0,-17.53125 16.34373,-8.15625 17.53125,8.75 1.0625,0.53125 1.09375,0.53125 0,-4.1875 0,-0.71875 -17.25,-8.59375 0,-17.21875 -0.40625,-0.21875 -4.46875,-2.25 z m -136.687497,29.75 -0.4375,0.21875 -4.46875,2.21875 0,0.0312 1.0625,0.53125 1.0625,0.5 17.53125,8.78125 0,16.34375 -17.53125,8.75 -1.0625,0.53125 -1.0625,0.53125 4.90625,2.46875 17.21875,-8.59375 17.1875,8.59375 4.9375,-2.46875 -1.09375,-0.53125 -1.0625,-0.53125 -17.53125,-8.75 0,-16.34375 17.53125,-8.78125 1.0625,-0.5 1.09375,-0.53125 -4.21875,-2.125 -0.71875,-0.34375 -17.1875,8.59375 -17.21875,-8.59375 z m 144.062497,0 -0.46875,0.21875 -4.46875,2.21875 1.0625,0.5625 1.0625,0.5 17.5625,8.78125 0,16.34375 -17.5625,8.75 -1.0625,0.53125 -1.0625,0.53125 4.9375,2.46875 17.1875,-8.59375 17.1875,8.59375 4.9375,-2.46875 -1.0625,-0.53125 -1.0625,-0.53125 -17.5625,-8.75 0,-16.34375 17.5625,-8.78125 1.0625,-0.5 1.0625,-0.5625 -4.21875,-2.09375 -0.71875,-0.34375 -17.1875,8.59375 -17.1875,-8.59375 z m -174.124997,5.75 -4.90625,2.46875 0,17.15625 -17.2187505,8.625 0,4.90625 1.09375,-0.53125 1.0625,-0.53125 17.5312505,-8.75 16.3125,8.15625 0,17.53125 0,1.0625 0,1.0625 4.21875,-2.09375 0.71875,-0.34375 0,-17.21875 17.21875,-8.59375 0,-0.4375 0,-4.46875 -0.0312,0 -1.0625,0.5 -1.03125,0.5625 -17.5625,8.75 -16.34375,-8.1875 0,-17.5 0,-1.09375 0,-1.03125 z m 144.062497,0 -4.9375,2.4375 0,0.0312 0,17.15625 -17.1875,8.625 0,4.90625 1.0625,-0.53125 1.0625,-0.53125 17.53125,-8.75 16.34375,8.15625 0,17.53125 0,1.0625 0,1.0625 4.21875,-2.09375 0.6875,-0.34375 0,-17.21875 17.25,-8.59375 0,-0.4375 0,-4.46875 -0.0312,0 -1.09375,0.5 -1.03125,0.5625 -17.53125,8.75 -16.34375,-8.1875 0,-17.5 0,-1.09375 0,-1.03125 z m 144.03125,0 -4.9375,2.4375 0,17.1875 -17.15625,8.625 -0.0312,4.90625 1.0625,-0.53125 1.0625,-0.53125 17.53125,-8.75 16.34375,8.15625 0.0312,17.53125 -0.0312,1.0625 0,1.0625 4.21875,-2.09375 0.71875,-0.34375 0,-17.21875 17.21871,-8.59375 0,-0.4375 0,-4.46875 -1.0625,0.5 -1.09375,0.5625 -17.53125,8.75 -16.34375,-8.1875 0,-17.5 0,-1.09375 0,-1.03125 z m -337.187497,0.125 -0.0312,1.0625 0,1.0625 0,17.53125 -16.3125,8.15625 -17.53125,-8.75 -1.0625,-0.53125 -1.09375,-0.53125 0,4.9375 17.21875,8.59375 0,17.1875 4.90625,2.4375 0,-1.03125 0,-1.0625 0,-17.53125 16.34375,-8.15625 17.5312495,8.75 1.0625,0.53125 1.0625,0.53125 0,-4.21875 0,-0.71875 -17.1874995,-8.59375 0,-17.21875 -0.4375,-0.21875 -4.46875,-2.21875 z m 144.062497,0 -0.0312,1.0625 0,1.0625 0,17.53125 -16.34375,8.15625 -17.531238,-8.75 -1.0625,-0.53125 -1.0625,-0.53125 0,4.90625 0,0.0312 17.187488,8.59375 0,17.1875 4.9375,2.4375 0.0312,0 -0.0312,-1.03125 0,-1.0625 0,-0.0312 0,-17.5 16.3125,-8.15625 17.53125,8.71875 0.0312,0.0312 1.0625,0.53125 1.0625,0.53125 0,-4.21875 0.0312,-0.71875 -0.0312,0 -17.21875,-8.59375 0,-17.21875 -0.4375,-0.21875 -4.4375,-2.21875 z m 144.03125,0 -0.0312,1.0625 0,1.0625 0,17.53125 -16.3125,8.15625 -17.5625,-8.75 -1.0625,-0.53125 -1.0625,-0.53125 0,4.90625 17.1875,8.625 0,17.1875 4.96875,2.4375 -0.0312,-1.03125 0,-1.09375 0,-17.5 16.34375,-8.15625 17.53125,8.71875 1.09375,0.5625 1.03125,0.53125 0,-4.21875 0.0312,-0.71875 -17.21875,-8.59375 0,-17.21875 -0.46875,-0.21875 -4.4375,-2.21875 z m -285.624997,2.125 0,18.15625 0,0.625 -0.0312,0 0,-0.625 0.0312,-18.15625 z m 63.59375,27.71875 -0.59375,0.3125 0,0.625 0,18.125 -0.0312,-18.125 0.0312,-0.625 0,-0.0312 0.59375,-0.28125 z m 288.093747,0 -0.625,0.3125 0,-0.0312 0.625,-0.28125 z m -202.75,0.4375 -0.4375,0.21875 -4.46875,2.21875 0,0.0312 0.375,0.1875 -0.40625,0.1875 0,0.0312 1.03125,0.53125 1.09375,0.53125 17.53125,8.78125 0,15.90625 -17.5,8.75 -1.0625,0.5625 -1.0625,0.53125 0.375,0.1875 -0.40625,0.21875 4.9375,2.46875 17.1875,-8.625 17.1875,8.625 4.9375,-2.46875 -0.40625,-0.1875 0.4375,-0.21875 -1.0625,-0.53125 -1.0625,-0.5625 -17.5625,-8.75 0,-15.9375 17.53125,-8.75 1.0625,-0.53125 1.0625,-0.53125 -0.375,-0.1875 0.40625,-0.21875 -4.21875,-2.125 -0.71876,-0.34375 -17.1875,8.59375 -17.21875,-8.59375 z m 144.03125,0 -0.4375,0.21875 -4.46875,2.21875 0,0.0312 1.0625,0.53125 1.09375,0.53125 17.5,8.78125 0,16.3125 -17.5,8.75 -1.09375,0.53125 -1.0625,0.5625 4.9375,2.4375 17.1875,-8.59375 17.21875,8.59375 4.90625,-2.4375 -1.0625,-0.5625 -1.0625,-0.53125 -17.53125,-8.75 0,-16.3125 17.53125,-8.78125 1.0625,-0.53125 1.0625,-0.53125 -4.21875,-2.125 -0.68751,-0.34375 -17.21875,8.59375 -17.21875,-8.59375 z m -288.093747,0.40625 -0.46875,0.21875 -4.4375,2.21875 0,0.0312 1.03125,0.53125 1.0625,0.53125 17.5624995,8.78125 0,16.34375 -17.5624995,8.75 -1.0625,0.53125 -1.03125,0.53125 4.90625,2.46875 17.2187495,-8.625 17.1562505,8.625 4.96875,-2.46875 -1.0625,-0.53125 -1.09375,-0.53125 -17.5312505,-8.75 0,-16.34375 17.5312505,-8.78125 1.09375,-0.53125 1.0625,-0.53125 -4.21875,-2.125 -0.71875,-0.34375 -17.1875005,8.625 -17.2187495,-8.625 z m 113.53125,5.5 -4.875,2.46875 0,17.15625 -17.21875,8.625 0,4.90625 1.03125,-0.53125 1.09375,-0.53125 17.53125,-8.75 16.312497,8.15625 0.0312,17.53125 0,1.0625 0,1.0625 4.21875,-2.09375 0.71875,-0.34375 0,-17.21875 17.1875,-8.59375 0,-0.46875 0,-4.4375 0,-0.0312 -1.0625,0.53125 -1.0625,0.5625 -17.53125,8.75 -16.374987,-8.1875 0,-17.5 0,-1.09375 0,-1.03125 z m 144.062497,0 -4.90625,2.4375 0,17.1875 -17.21875,8.625 0,4.90625 1.0625,-0.53125 1.0625,-0.53125 17.53125,-8.75 16.34375,8.15625 0.0312,17.53125 0,1.0625 0,1.0625 4.21875,-2.09375 0.6875,-0.34375 0,-17.21875 17.21875,-8.59375 0,-0.46875 0,-4.4375 0,-0.0312 -1.09375,0.53125 -1.0625,0.5625 -17.53125,8.75 -16.34375,-8.1875 0,-17.5 0,-1.09375 0,-1.03125 z m -193.156247,0.125 0,1.0625 -0.0312,1.0625 0,17.53125 -16.3125,8.15625 -17.53125,-8.75 -1.0625,-0.53125 -1.0625,-0.53125 0,4.9375 17.21875,8.59375 -0.0312,17.1875 4.9375,2.4375 -0.0313,-1.03125 0,-1.0625 0,-17.53125 16.375,-8.1875 17.53125,8.78125 1.0625,0.53125 1.0625,0.53125 0,-4.21875 0,-0.71875 -17.21875,-8.59375 0,-17.21875 -0.40625,-0.21875 -4.5,-2.21875 z m 144.062497,0 0,1.0625 -0.0312,1.0625 0,17.53125 -16.34375,8.15625 -17.53129,-8.78125 -1.0625,-0.5 -1.03125,-0.53125 0,4.90625 17.1875,8.625 -0.0312,17.1875 4.96875,2.4375 -0.0312,-1.03125 0,-1.09375 0,-17.5 16.34375,-8.1875 17.53125,8.75 1.0625,0.5625 1.09375,0.53125 0,-4.21875 0,-0.71875 -17.25,-8.59375 0,-17.21875 -0.40634,-0.21875 -4.46876,-2.21875 z m -136.687497,30.34375 -0.4375,0.21875 -4.46875,2.21875 0,0.0312 1.0625,0.53125 1.0625,0.53125 17.53125,8.78125 0,16.34375 -17.53125,8.75 -1.0625,0.53125 -1.0625,0.53125 4.90625,2.46875 17.21875,-8.625 17.1875,8.625 4.9375,-2.46875 -1.09375,-0.53125 -1.0625,-0.53125 -17.53125,-8.75 0,-16.34375 17.53125,-8.78125 1.0625,-0.53125 1.09375,-0.53125 -4.21875,-2.125 -0.71875,-0.34375 -17.1875,8.625 -17.21875,-8.625 z m 144.062497,0 -0.46875,0.21875 -4.46875,2.21875 0,0.0312 1.0625,0.53125 1.0625,0.53125 17.5625,8.78125 0,16.34375 -17.5625,8.75 -1.0625,0.53125 -1.0625,0.53125 4.9375,2.46875 17.1875,-8.625 17.1875,8.625 4.9375,-2.46875 -1.0625,-0.53125 -1.0625,-0.53125 -17.5625,-8.75 0,-16.34375 17.5625,-8.78125 1.0625,-0.53125 1.0625,-0.53125 -4.21875,-2.125 -0.71875,-0.34375 -17.1875,8.625 -17.1875,-8.625 z m -30.0625,5.6875 -4.9375,2.46875 0,0.40625 -0.0312,0 0,16.8125 -17.15625,8.5625 0,0.375 -0.0312,0.0312 0,4.9375 1.0625,-0.5625 1.0625,-0.53125 17.5,-8.75 16.375,8.1875 0,17.5 0,1.09375 0,1.0625 4.21875,-2.125 0.6875,-0.34375 0,-0.375 0.0312,-0.0312 0,-16.8125 17.1875,-8.59375 0.0312,-0.375 0.0312,-0.0312 0,-0.4375 0,-4.46875 -1.09375,0.53125 -1.0625,0.53125 -17.53125,8.75 -16.34375,-8.15625 0,-17.53125 0,-1.0625 0,-1.0625 z m 144.03125,0 -4.9375,2.46875 0,17.1875 -17.15625,8.59375 -0.0312,4.90625 1.0625,-0.53125 1.0625,-0.53125 17.53125,-8.75 16.34375,8.15625 0.0312,17.53125 0,1.0625 -0.0312,1.09375 4.21875,-2.125 0.71875,-0.34375 0,-17.21875 17.21875,-8.59375 0,-0.4375 0,-4.46875 -1.0625,0.53125 -1.09375,0.53125 -17.53125,8.75 -16.34375,-8.15625 0,-17.53125 0,-1.0625 0,-1.0625 z m -193.125,0.15625 0,0.40625 -0.0312,0 -0.0312,0 0,1.03125 0,1.09375 0,17.125 -16.3125,8.15625 -17.531248,-8.75 -1.0625,-0.5625 -1.0625,-0.53125 0,0.4375 -0.0312,-0.0312 0,4.9375 17.187498,8.59375 0,17.1875 4.9375,2.46875 0,-0.40625 0.0312,0 0,-1.0625 0,-1.0625 0,-17.125 16.28125,-8.15625 17.53125,8.75 1.09375,0.53125 1.0625,0.53125 0,-0.40625 0.0312,0 0,-4.21875 0.0312,-0.6875 -17.25,-8.625 0,-17.1875 -0.4375,-0.21875 -4.4375,-2.21875 z m 144.03125,0 -0.0312,1.03125 0,1.09375 0,17.5 -16.3125,8.1875 -17.5625,-8.75 -1.0625,-0.5625 -1.0625,-0.53125 0,4.9375 17.1875,8.59375 0,17.1875 4.9375,2.46875 0,-1.0625 0,-1.0625 0,-17.53125 16.34375,-8.15625 17.53125,8.75 1.09375,0.53125 1.03125,0.53125 0,-4.21875 0.0312,-0.6875 -17.21875,-8.625 0,-17.1875 -0.46875,-0.21875 -4.4375,-2.21875 z m -239.031247,0.25 -4.90625,2.46875 0,17.1875 -17.2187505,8.59375 0,4.9375 1.09375,-0.53125 1.0625,-0.5625 17.5000005,-8.75 16.34375,8.1875 0,17.5 0,1.09375 0,1.0625 4.25,-2.125 0.6875,-0.34375 0,-17.1875 17.1875,-8.625 0.0312,-0.4375 -0.0312,-4.4375 -1.0625,0.5 -1.03125,0.53125 -17.5625,8.75 -16.34375,-8.15625 0,-17.53125 0,-1.0625 0,-1.0625 z m -49.09375,0.15625 0,1.0625 0,1.0625 0,17.53125 -16.375,8.15625 -17.5,-8.75 -1.0625,-0.53125 -1.09375,-0.53125 0,4.90625 17.21875,8.59375 0,17.1875 4.90625,2.46875 0,-1.0625 0,-1.0625 0,-17.53125 16.34375,-8.15625 17.5312495,8.75 1.0625,0.53125 1.09375,0.53125 0,-4.21875 0,-0.6875 -17.2187495,-8.59375 0,-17.21875 -0.4375,-0.21875 -4.46875,-2.21875 z m 2.46875,2.125 0,18.125 0,0.625 -0.0312,0 0,-0.59375 0.0312,-18.15625 z m 4.90625,27.25 -0.4375,0.21875 -4.4375,2.25 1.0625,0.53125 1.03125,0.53125 17.5312495,8.78125 0,16.3125 -17.5312495,8.78125 -1.03125,0.5 -1.0625,0.53125 4.90625,2.46875 17.2187495,-8.59375 17.1562505,8.59375 4.96875,-2.46875 -1.09375,-0.53125 -1.0625,-0.5 -17.5312505,-8.78125 0,-16.3125 17.5312505,-8.78125 1.0625,-0.53125 1.09375,-0.53125 -4.21875,-2.125 -0.71875,-0.34375 -17.1875005,8.59375 -17.2499995,-8.59375 z m 144.062497,0 -0.46875,0.21875 -4.4375,2.21875 0.0312,0.0312 1.03125,0.53125 1.0625,0.53125 17.53125,8.78125 0,16.3125 -17.53125,8.78125 -1.0625,0.5 -1.0625,0.53125 4.9375,2.46875 17.1875,-8.59375 17.1875,8.59375 4.9375,-2.46875 -1.0625,-0.53125 -1.0625,-0.5 -17.5625,-8.78125 0,-16.3125 17.5625,-8.78125 1.0625,-0.53125 1.03125,-0.53125 0.0312,0 0,-0.0312 -4.21875,-2.09375 -0.71865,-0.34375 -17.1875,8.59375 -17.21876,-8.59375 z m 144.03125,0 -0.4375,0.21875 -4.46875,2.21875 1.0625,0.5625 1.09375,0.53125 17.5,8.75 0,16.34375 -17.5,8.78125 -1.09375,0.5 -1.0625,0.53125 4.9375,2.46875 17.1875,-8.59375 17.21875,8.59375 4.90625,-2.46875 -1.0625,-0.53125 -1.0625,-0.5 -17.53125,-8.78125 0,-16.34375 17.53125,-8.75 1.0625,-0.53125 1.0625,-0.5625 -4.21875,-2.09375 -0.6875,-0.34375 -17.21875,8.59375 -17.21876,-8.59375 z m -229.406247,0.46875 -0.59375,0.3125 0,0.59375 0,18.125 -0.0312,-18.125 0,-0.625 0.625,-0.28125 z m 54.84375,5.96875 -4.875,2.46875 0,17.1875 -17.21875,8.59375 0,4.9375 1.03125,-0.53125 1.09375,-0.5625 17.53125,-8.71875 16.312497,8.15625 0.0312,17.5 0,1.09375 0,1.0625 4.21875,-2.125 0.71875,-0.34375 0,-17.1875 17.1875,-8.625 0,-0.4375 0,-4.4375 -1.0625,0.5 -1.0625,0.53125 -17.53125,8.75 -16.374987,-8.15625 0,-17.53125 0,-1.0625 0,-1.0625 z m 144.062497,0 -4.90625,2.46875 0,17.1875 -17.21875,8.59375 0,4.9375 1.0625,-0.53125 1.0625,-0.5625 17.53125,-8.75 16.34375,8.1875 0.0312,17.5 0,1.09375 0,1.0625 4.21875,-2.125 0.6875,-0.34375 0,-17.1875 17.21875,-8.625 0,-0.4375 0,-4.4375 -1.09375,0.5 -1.06245,0.53125 -17.53125,8.75 -16.34375,-8.15625 0,-17.53125 0,-1.0625 0,-1.0625 z m -193.156247,0.15625 0,1.0625 -0.0312,1.0625 0,17.53125 -16.3125,8.15625 -17.53125,-8.75 -1.0625,-0.53125 -1.0625,-0.53125 0,4.90625 17.21875,8.59375 -0.0312,17.1875 4.9375,2.46875 -0.0312,-1.0625 0,-1.0625 0,-17.53125 16.375,-8.15625 17.53125,8.75 1.0625,0.53125 1.0625,0.53125 0,-4.1875 0,-0.71875 -17.21875,-8.59375 0,-17.21875 -0.40625,-0.21875 -4.5,-2.21875 z m 144.062497,0 0,1.0625 -0.0312,1.0625 0,17.53125 -16.34375,8.15625 -17.53125,-8.75 -1.0625,-0.53125 -1.03125,-0.53125 0,4.90625 17.1875,8.59375 -0.0312,17.1875 4.96875,2.46875 -0.0312,-1.0625 0,-1.0625 0,-17.53125 16.34375,-8.15625 17.53125,8.75 1.0625,0.53125 1.09375,0.53125 0,-4.21875 0,-0.6875 -17.25,-8.59375 0,-17.21875 -0.40625,-0.21875 -4.46875,-2.21875 z m -78,29.84375 -0.59375,0.3125 0,-0.0312 0.59375,-0.28125 z m 144.0625,0 -0.625,0.3125 0,-0.0312 0.625,-0.28125 z m -202.749997,0.28125 -0.4375,0.21875 -4.46875,2.25 1.0625,0.53125 1.0625,0.53125 17.53125,8.78125 0,16.3125 4.90625,0 0,-16.3125 17.53125,-8.78125 1.0625,-0.53125 1.09375,-0.53125 -4.21875,-2.09375 -0.71875,-0.375 -17.1875,8.59375 -17.21875,-8.59375 z m 144.062497,0 -0.46875,0.21875 -4.46875,2.25 1.0625,0.53125 1.0625,0.53125 17.5625,8.78125 0,16.3125 4.875,0 0,-16.3125 17.5625,-8.78125 1.0625,-0.53125 1.0625,-0.53125 -4.21875,-2.09375 -0.71875,-0.375 -17.1875,8.59375 -17.1875,-8.59375 z m -127.468747,10.78125 0.625,0.28125 0.625,-0.28125 -0.625,0.3125 -0.625,-0.3125 z m 144.031247,0 0.625,0.28125 0.625,-0.28125 -0.625,0.3125 -0.625,-0.3125 z"
       style="font-size:medium;font-style:normal;font-variant:normal;font-weight:normal;font-stretch:normal;text-indent:0;text-align:start;text-decoration:none;line-height:normal;letter-spacing:normal;word-spacing:normal;text-transform:none;direction:ltr;block-progression:tb;writing-mode:lr-tb;text-anchor:start;baseline-shift:baseline;color:#000000;fill:url(#linearGradient4110);fill-opacity:1;fill-rule:nonzero;stroke:none;stroke-width:0.1;marker:none;visibility:visible;display:inline;overflow:visible;filter:url(#filter4729);enable-background:accumulate;font-family:Sans;-inkscape-font-specification:Sans"
       transform="matrix(1,0,0,-1,-0.0301615,1781.1484)" />
  </g>
  <g
     inkscape:groupmode="layer"
     id="layer2"
     inkscape:label="reticule"
     style="display:inline">
    <path
       inkscape:connector-curvature="0"
       id="path3010-3-7"
       d="m -17.2344,1074.7548 -0.4375,-0.2187 -4.4375,-2.2188 0,-0.031 1.0625,-0.5312 1.03125,-0.5313 17.531251,-8.7812 0,-16.3125 -17.531251,-8.75 -1.03125,-0.5313 -1.0625,-0.5312 4.90625,-2.4688 17.218751,8.5938 17.156249,-8.5938 4.96875,2.4688 -1.09375,0.5312 -1.0625,0.5313 -17.531249,8.75 0,16.3125 17.531249,8.7812 1.0625,0.5313 1.09375,0.5312 -4.21875,2.125 -0.71875,0.3438 -17.187499,-8.5938 -17.250001,8.5938 z m 144.0625,0 -0.46875,-0.2187 -4.4375,-2.2188 0,-0.031 1.0625,-0.5312 1.0625,-0.5313 17.53125,-8.7812 0,-16.3125 -17.53125,-8.75 -1.0625,-0.5313 -1.0625,-0.5312 4.9375,-2.4688 17.1875,8.5938 17.1875,-8.5938 4.9375,2.4688 -1.0625,0.5312 -1.0625,0.5313 -17.5625,8.75 0,16.3125 17.5625,8.7812 1.0625,0.5313 1.03125,0.5312 0.0312,0 0,0.031 -4.21875,2.0938 -0.71875,0.3437 -17.1875,-8.5937 -17.21875,8.5937 z m 144.03125,0 -0.4375,-0.2187 -4.46875,-2.2188 1.0625,-0.5625 1.09375,-0.5312 17.5,-8.7813 0,-16.3125 -17.5,-8.75 -1.09375,-0.5312 -1.0625,-0.5313 4.9375,-2.4687 17.1875,8.5937 17.21875,-8.5937 4.90625,2.4687 -1.0625,0.5313 -1.0625,0.5312 -17.53125,8.75 0,16.3125 17.53125,8.7813 1.0625,0.5312 1.0625,0.5625 -4.21875,2.0938 -0.6875,0.3437 -17.21875,-8.5937 -17.21875,8.5937 z m -174.562499,-6.4375 -4.875,-2.4687 0,-17.1875 -17.21875,-8.5938 0,-4.9375 1.03125,0.5313 1.09375,0.5312 17.53125,8.75 16.312489,-8.1562 0.0312,-17.5313 0,-1.0625 0,-1.0625 4.21875,2.125 0.71875,0.3438 0,17.1875 17.1875,8.5937 0,0.4688 0,4.4375 0,0.031 -1.0625,-0.5313 -1.0625,-0.5312 -17.53125,-8.75 -16.374989,8.1562 0,17.5313 0,1.0625 0,1.0625 z m 144.062499,0 -4.90625,-2.4687 0,-17.1875 -17.21875,-8.5938 0,-4.9375 1.0625,0.5313 1.0625,0.5625 17.53125,8.75 16.34375,-8.1875 0.0312,-17.5 0,-1.0938 0,-1.0625 4.21875,2.125 0.6875,0.3438 0,17.1875 17.21875,8.625 0,0.4375 0,4.4375 0,0.031 -1.0937,-0.5313 -1.0625,-0.5312 -17.53125,-8.75 -16.34375,8.1562 0,17.5313 0,1.0625 0,1.0625 z m -193.156249,-0.125 0,-1.0937 -0.0312,-1.0625 0,-17.5313 -16.3125,-8.1562 -17.53125,8.7812 -1.0625,0.5 -1.0625,0.5313 0,-4.9063 17.21875,-8.5937 -0.0312,-17.1875 4.9375,-2.4688 -0.0313,1.0625 0,1.0625 0,17.5313 16.375,8.1562 17.53125,-8.75 1.0625,-0.5312 1.0625,-0.5313 0,4.1875 0,0.7188 -17.21875,8.5937 0,17.2188 -0.40625,0.2187 -4.5,2.25 z m 144.062499,0 0,-1.0937 -0.0312,-1.0625 0,-17.5313 -16.34379,-8.1562 -17.53125,8.7812 -1.0625,0.5 -1.03125,0.5313 0,-4.9063 17.1875,-8.5937 -0.0312,-17.1875 4.96875,-2.4688 -0.0312,1.0625 0,1.0625 0,17.5313 16.34373,8.1562 17.53125,-8.75 1.0625,-0.5312 1.09375,-0.5313 0,4.1875 0,0.7188 -17.25,8.5937 0,17.2188 -0.40625,0.2187 -4.46875,2.25 z m -136.687499,-29.75 -0.4375,-0.2187 -4.46875,-2.2188 0,-0.031 1.0625,-0.5312 1.0625,-0.5 17.53125,-8.7813 0,-16.3437 -17.53125,-8.75 -1.0625,-0.5313 -1.0625,-0.5312 4.90625,-2.46877 17.21875,8.59377 17.1875,-8.59377 4.9375,2.46877 -1.09375,0.5312 -1.0625,0.5313 -17.53125,8.75 0,16.3437 17.53125,8.7813 1.0625,0.5 1.09375,0.5312 -4.21875,2.125 -0.71875,0.3438 -17.1875,-8.5938 -17.21875,8.5938 z m 144.062499,0 -0.46875,-0.2187 -4.46875,-2.2188 1.0625,-0.5625 1.0625,-0.5 17.5625,-8.7812 0,-16.3438 -17.5625,-8.75 -1.0625,-0.5312 -1.0625,-0.5313 4.9375,-2.46872 17.1875,8.59372 17.1875,-8.59372 4.9375,2.46872 -1.0625,0.5313 -1.0625,0.5312 -17.5625,8.75 0,16.3438 17.5625,8.7812 1.0625,0.5 1.0625,0.5625 -4.21875,2.0938 -0.71875,0.3437 -17.1875,-8.5937 -17.1875,8.5937 z m -174.124999,-5.75 -4.90625,-2.4687 0,-17.1563 -17.21875,-8.625 0,-4.90622 1.09375,0.53122 1.0625,0.5313 17.53125,8.75 16.3125,-8.1563 0,-17.53122 0,-1.0625 0,-1.0625 4.21875,2.09375 0.71875,0.34375 0,17.21872 17.21875,8.5938 0,0.4375 0,4.4687 -0.0312,0 -1.0625,-0.5 -1.03125,-0.5625 -17.5625,-8.75 -16.34375,8.1875 0,17.5 0,1.0938 0,1.0312 z m 144.062499,0 -4.9375,-2.4375 0,-0.031 0,-17.1562 -17.1875,-8.625 0,-4.90627 1.0625,0.53127 1.0625,0.5312 17.53125,8.75 16.34375,-8.1562 0,-17.53127 0,-1.0625 0,-1.0625 4.21875,2.09375 0.6875,0.34375 0,17.21877 17.25,8.5937 0,0.4375 0,4.4688 -0.0312,0 -1.09375,-0.5 -1.03125,-0.5625 -17.53125,-8.75 -16.34375,8.1875 0,17.5 0,1.0937 0,1.0313 z m 144.03125,0 -4.9375,-2.4375 0,-17.1875 -17.15625,-8.625 -0.0312,-4.90622 1.0625,0.53122 1.0625,0.5313 17.53125,8.75 16.34375,-8.1563 0.0312,-17.53122 -0.0312,-1.0625 0,-1.0625 4.21875,2.09375 0.71875,0.34375 0,17.21872 17.21871,8.5938 0,0.4375 0,4.4687 -1.0625,-0.5 -1.09375,-0.5625 -17.53125,-8.75 -16.34375,8.1875 0,17.5 0,1.0938 0,1.0312 z m -337.187499,-0.125 -0.0312,-1.0625 0,-1.0625 0,-17.5312 -16.3125,-8.1563 -17.53125,8.75 -1.0625,0.5313 -1.09375,0.5312 0,-4.9375 17.21875,-8.5937 0,-17.18752 4.90625,-2.4375 0,1.03125 0,1.0625 0,17.53127 16.34375,8.1562 17.53125,-8.75 1.0625,-0.53122 1.0625,-0.53125 0,4.21877 0,0.7187 -17.1875,8.5938 0,17.2187 -0.4375,0.2188 -4.46875,2.2187 z m 144.062499,0 -0.0312,-1.0625 0,-1.0625 0,-17.5312 -16.34375,-8.1563 -17.53124,8.75 -1.0625,0.5313 -1.0625,0.5312 0,-4.9062 0,-0.031 17.18749,-8.5938 0,-17.18747 4.9375,-2.4375 0.0312,0 -0.0312,1.03125 0,1.0625 0,0.0312 0,17.50002 16.3125,8.1562 17.53125,-8.7187 0.0312,-0.031 1.0625,-0.53127 1.0625,-0.53125 0,4.21872 0.0312,0.7188 -0.0312,0 -17.21875,8.5937 0,17.2188 -0.4375,0.2187 -4.4375,2.2188 z m 144.03125,0 -0.0312,-1.0625 0,-1.0625 0,-17.5312 -16.3125,-8.1563 -17.5625,8.75 -1.0625,0.5313 -1.0625,0.5312 0,-4.9062 17.1875,-8.625 0,-17.18752 4.96875,-2.4375 -0.0312,1.03125 0,1.09375 0,17.50002 16.34375,8.1562 17.53125,-8.7187 1.09375,-0.56252 1.03125,-0.53125 0,4.21877 0.0312,0.7187 -17.21875,8.5938 0,17.2187 -0.46875,0.2188 -4.4375,2.2187 z m -285.624999,-2.125 0,-18.1562 0,-0.625 -0.0312,0 0,0.625 0.0312,18.1562 z m 63.59375,-27.7187 -0.59375,-0.3125 0,-0.625 0,-18.12502 -0.0312,18.12502 0.0312,0.625 0,0.031 0.59375,0.2812 z m 288.093749,0 -0.625,-0.3125 0,0.031 0.625,0.2812 z m -202.75,-0.4375 -0.4375,-0.2188 -4.46875,-2.21872 0,-0.0312 0.375,-0.1875 -0.40625,-0.1875 0,-0.0312 1.03125,-0.53125 1.09375,-0.53125 17.53125,-8.78125 0,-15.90625 -17.5,-8.75 -1.0625,-0.5625 -1.0625,-0.53125 0.375,-0.1875 -0.40625,-0.21875 4.9375,-2.46875 17.1875,8.625 17.1875,-8.625 4.9375,2.46875 -0.40625,0.1875 0.4375,0.21875 -1.0625,0.53125 -1.0625,0.5625 -17.5625,8.75 0,15.9375 17.53125,8.75 1.0625,0.53125 1.0625,0.53125 -0.375,0.1875 0.40625,0.21875 -4.21875,2.12497 -0.71876,0.3438 -17.1875,-8.59377 -17.21875,8.59377 z m 144.03125,0 -0.4375,-0.2188 -4.46875,-2.21872 0,-0.0312 1.0625,-0.53125 1.09375,-0.53125 17.5,-8.78125 0,-16.3125 -17.5,-8.75 -1.09375,-0.53125 -1.0625,-0.5625 4.9375,-2.4375 17.1875,8.59375 17.21875,-8.59375 4.90625,2.4375 -1.0625,0.5625 -1.0625,0.53125 -17.53125,8.75 0,16.3125 17.53125,8.78125 1.0625,0.53125 1.0625,0.53125 -4.21875,2.12502 -0.68751,0.3437 -17.21875,-8.59372 -17.21875,8.59372 z m -288.093749,-0.4063 -0.46875,-0.2187 -4.4375,-2.21877 0,-0.0312 1.03125,-0.53125 1.0625,-0.53125 17.5625,-8.78125 0,-16.34375 -17.5625,-8.75 -1.0625,-0.53125 -1.03125,-0.53125 4.90625,-2.46875 17.21875,8.625 17.15625,-8.625 4.96875,2.46875 -1.0625,0.53125 -1.09375,0.53125 -17.53125,8.75 0,16.34375 17.53125,8.78125 1.09375,0.53125 1.0625,0.53125 -4.21875,2.12497 -0.71875,0.3438 -17.1875,-8.62502 -17.21875,8.62502 z m 113.53125,-5.49997 -4.875,-2.46875 0,-17.15625 -17.21875,-8.625 0,-4.90625 1.03125,0.53125 1.09375,0.53125 17.53125,8.75 16.312499,-8.15625 0.0312,-17.53125 0,-1.0625 0,-1.0625 4.21875,2.09375 0.71875,0.34375 0,17.21875 17.1875,8.59375 0,0.46875 0,4.4375 0,0.0312 -1.0625,-0.53125 -1.0625,-0.5625 -17.53125,-8.75 -16.374989,8.1875 0,17.5 0,1.09375 0,1.03125 z m 144.062499,0 -4.90625,-2.4375 0,-17.1875 -17.21875,-8.625 0,-4.90625 1.0625,0.53125 1.0625,0.53125 17.53125,8.75 16.34375,-8.15625 0.0312,-17.53125 0,-1.0625 0,-1.0625 4.21875,2.09375 0.6875,0.34375 0,17.21875 17.21875,8.59375 0,0.46875 0,4.4375 0,0.0312 -1.09375,-0.53125 -1.0625,-0.5625 -17.53125,-8.75 -16.34375,8.1875 0,17.5 0,1.09375 0,1.03125 z m -193.156249,-0.125 0,-1.0625 -0.0312,-1.0625 0,-17.53125 -16.3125,-8.15625 -17.53125,8.75 -1.0625,0.53125 -1.0625,0.53125 0,-4.9375 17.21875,-8.59375 -0.0312,-17.1875 4.9375,-2.4375 -0.0313,1.03125 0,1.0625 0,17.53125 16.375,8.1875 17.53125,-8.78125 1.0625,-0.53125 1.0625,-0.53125 0,4.21875 0,0.71875 -17.21875,8.59375 0,17.21875 -0.40625,0.21875 -4.5,2.21875 z m 144.062499,0 0,-1.0625 -0.0312,-1.0625 0,-17.53125 -16.34375,-8.15625 -17.53129,8.78125 -1.0625,0.5 -1.03125,0.53125 0,-4.90625 17.1875,-8.625 -0.0312,-17.1875 4.96875,-2.4375 -0.0312,1.03125 0,1.09375 0,17.5 16.34375,8.1875 17.53125,-8.75 1.0625,-0.5625 1.09375,-0.53125 0,4.21875 0,0.71875 -17.25,8.59375 0,17.21875 -0.40634,0.21875 -4.46876,2.21875 z m -136.687499,-30.34375 -0.4375,-0.21875 -4.46875,-2.21875 0,-0.0312 1.0625,-0.53125 1.0625,-0.53125 17.53125,-8.78125 0,-16.34375 -17.53125,-8.75 -1.0625,-0.53125 -1.0625,-0.53125 4.90625,-2.46875 17.21875,8.625 17.1875,-8.625 4.9375,2.46875 -1.09375,0.53125 -1.0625,0.53125 -17.53125,8.75 0,16.34375 17.53125,8.78125 1.0625,0.53125 1.09375,0.53125 -4.21875,2.125 -0.71875,0.34375 -17.1875,-8.625 -17.21875,8.625 z m 144.062499,0 -0.46875,-0.21875 -4.46875,-2.21875 0,-0.0312 1.0625,-0.53125 1.0625,-0.53125 17.5625,-8.78125 0,-16.34375 -17.5625,-8.75 -1.0625,-0.53125 -1.0625,-0.53125 4.9375,-2.46875 17.1875,8.625 17.1875,-8.625 4.9375,2.46875 -1.0625,0.53125 -1.0625,0.53125 -17.5625,8.75 0,16.34375 17.5625,8.78125 1.0625,0.53125 1.0625,0.53125 -4.21875,2.125 -0.71875,0.34375 -17.1875,-8.625 -17.1875,8.625 z m -30.0625,-5.6875 -4.9375,-2.46875 0,-0.40625 -0.0312,0 0,-16.8125 -17.15625,-8.5625 0,-0.375 -0.0312,-0.0312 0,-4.9375 1.0625,0.5625 1.0625,0.53125 17.5,8.75 16.375,-8.1875 0,-17.5 0,-1.09375 0,-1.0625 4.21875,2.125 0.6875,0.34375 0,0.375 0.0312,0.0312 0,16.8125 17.1875,8.59375 0.0312,0.375 0.0312,0.0312 0,0.4375 0,4.46875 -1.09375,-0.53125 -1.0625,-0.53125 -17.53125,-8.75 -16.34375,8.15625 0,17.53125 0,1.0625 0,1.0625 z m 144.03125,0 -4.9375,-2.46875 0,-17.1875 -17.15625,-8.59375 -0.0312,-4.90625 1.0625,0.53125 1.0625,0.53125 17.53125,8.75 16.34375,-8.15625 0.0312,-17.53125 0,-1.0625 -0.0312,-1.09375 4.21875,2.125 0.71875,0.34375 0,17.21875 17.21875,8.59375 0,0.4375 0,4.46875 -1.0625,-0.53125 -1.09375,-0.53125 -17.53125,-8.75 -16.34375,8.15625 0,17.53125 0,1.0625 0,1.0625 z m -193.125,-0.15625 0,-0.40625 -0.0312,0 -0.0312,0 0,-1.03125 0,-1.09375 0,-17.125 -16.3125,-8.15625 -17.53125,8.75 -1.0625,0.5625 -1.0625,0.53125 0,-0.4375 -0.0312,0.0312 0,-4.9375 17.1875,-8.59375 0,-17.1875 4.9375,-2.46875 0,0.40625 0.0312,0 0,1.0625 0,1.0625 0,17.125 16.28125,8.15625 17.53125,-8.75 1.09375,-0.53125 1.0625,-0.53125 0,0.40625 0.0312,0 0,4.21875 0.0312,0.6875 -17.25,8.625 0,17.1875 -0.4375,0.21875 -4.4375,2.21875 z m 144.03125,0 -0.0312,-1.03125 0,-1.09375 0,-17.5 -16.3125,-8.1875 -17.5625,8.75 -1.0625,0.5625 -1.0625,0.53125 0,-4.9375 17.1875,-8.59375 0,-17.1875 4.9375,-2.46875 0,1.0625 0,1.0625 0,17.53125 16.34375,8.15625 17.53125,-8.75 1.09375,-0.53125 1.03125,-0.53125 0,4.21875 0.0312,0.6875 -17.21875,8.625 0,17.1875 -0.46875,0.21875 -4.4375,2.21875 z m -239.031249,-0.25 -4.90625,-2.46875 0,-17.1875 -17.21875,-8.59375 0,-4.9375 1.09375,0.53125 1.0625,0.5625 17.5,8.75 16.34375,-8.1875 0,-17.5 0,-1.09375 0,-1.0625 4.25,2.125 0.6875,0.34375 0,17.1875 17.1875,8.625 0.0312,0.4375 -0.0312,4.4375 -1.0625,-0.5 -1.03125,-0.53125 -17.5625,-8.75 -16.34375,8.15625 0,17.53125 0,1.0625 0,1.0625 z m -49.09375,-0.15625 0,-1.0625 0,-1.0625 0,-17.53125 -16.375,-8.15625 -17.5,8.75 -1.0625,0.53125 -1.09375,0.53125 0,-4.90625 17.21875,-8.59375 0,-17.1875 4.90625,-2.46875 0,1.0625 0,1.0625 0,17.53125 16.34375,8.15625 17.53125,-8.75 1.0625,-0.53125 1.09375,-0.53125 0,4.21875 0,0.6875 -17.21875,8.59375 0,17.21875 -0.4375,0.21875 -4.46875,2.21875 z m 2.46875,-2.125 0,-18.125 0,-0.625 -0.0312,0 0,0.59375 0.0312,18.15625 z m 4.90625,-27.25 -0.4375,-0.21875 -4.4375,-2.25 1.0625,-0.53125 1.03125,-0.53125 17.53125,-8.78125 0,-16.3125 -17.53125,-8.78125 -1.03125,-0.5 -1.0625,-0.53125 4.90625,-2.46875 17.21875,8.59375 17.15625,-8.59375 4.96875,2.46875 -1.09375,0.53125 -1.0625,0.5 -17.53125,8.78125 0,16.3125 17.53125,8.78125 1.0625,0.53125 1.09375,0.53125 -4.21875,2.125 -0.71875,0.34375 -17.1875,-8.59375 -17.25,8.59375 z m 144.062499,0 -0.46875,-0.21875 -4.4375,-2.21875 0.0312,-0.0312 1.03125,-0.53125 1.0625,-0.53125 17.53125,-8.78125 0,-16.3125 -17.53125,-8.78125 -1.0625,-0.5 -1.0625,-0.53125 4.9375,-2.46875 17.1875,8.59375 17.1875,-8.59375 4.9375,2.46875 -1.0625,0.53125 -1.0625,0.5 -17.5625,8.78125 0,16.3125 17.5625,8.78125 1.0625,0.53125 1.03125,0.53125 0.0312,0 0,0.0312 -4.21875,2.09375 -0.71865,0.34375 -17.1875,-8.59375 -17.21876,8.59375 z m 144.03125,0 -0.4375,-0.21875 -4.46875,-2.21875 1.0625,-0.5625 1.09375,-0.53125 17.5,-8.75 0,-16.34375 -17.5,-8.78125 -1.09375,-0.5 -1.0625,-0.53125 4.9375,-2.46875 17.1875,8.59375 17.21875,-8.59375 4.90625,2.46875 -1.0625,0.53125 -1.0625,0.5 -17.53125,8.78125 0,16.34375 17.53125,8.75 1.0625,0.53125 1.0625,0.5625 -4.21875,2.09375 -0.6875,0.34375 -17.21875,-8.59375 -17.21876,8.59375 z m -229.406249,-0.46875 -0.59375,-0.3125 0,-0.59375 0,-18.125 -0.0312,18.125 0,0.625 0.625,0.28125 z m 54.84375,-5.96875 -4.875,-2.46875 0,-17.1875 -17.21875,-8.59375 0,-4.9375 1.03125,0.53125 1.09375,0.5625 17.53125,8.71875 16.312499,-8.15625 0.0312,-17.5 0,-1.09375 0,-1.0625 4.21875,2.125 0.71875,0.34375 0,17.1875 17.1875,8.625 0,0.4375 0,4.4375 -1.0625,-0.5 -1.0625,-0.53125 -17.53125,-8.75 -16.374989,8.15625 0,17.53125 0,1.0625 0,1.0625 z m 144.062499,0 -4.90625,-2.46875 0,-17.1875 -17.21875,-8.59375 0,-4.9375 1.0625,0.53125 1.0625,0.5625 17.53125,8.75 16.34375,-8.1875 0.0312,-17.5 0,-1.09375 0,-1.0625 4.21875,2.125 0.6875,0.34375 0,17.1875 17.21875,8.625 0,0.4375 0,4.4375 -1.09375,-0.5 -1.06245,-0.53125 -17.53125,-8.75 -16.34375,8.15625 0,17.53125 0,1.0625 0,1.0625 z m -193.156249,-0.15625 0,-1.0625 -0.0312,-1.0625 0,-17.53125 -16.3125,-8.15625 -17.53125,8.75 -1.0625,0.53125 -1.0625,0.53125 0,-4.90625 17.21875,-8.59375 -0.0312,-17.1875 4.9375,-2.46875 -0.0312,1.0625 0,1.0625 0,17.53125 16.375,8.15625 17.53125,-8.75 1.0625,-0.53125 1.0625,-0.53125 0,4.1875 0,0.71875 -17.21875,8.59375 0,17.21875 -0.40625,0.21875 -4.5,2.21875 z m 144.062499,0 0,-1.0625 -0.0312,-1.0625 0,-17.53125 -16.34375,-8.15625 -17.53125,8.75 -1.0625,0.53125 -1.03125,0.53125 0,-4.90625 17.1875,-8.59375 -0.0312,-17.1875 4.96875,-2.46875 -0.0312,1.0625 0,1.0625 0,17.53125 16.34375,8.15625 17.53125,-8.75 1.0625,-0.53125 1.09375,-0.53125 0,4.21875 0,0.6875 -17.25,8.59375 0,17.21875 -0.40625,0.21875 -4.46875,2.21875 z m -78,-29.84375 -0.59375,-0.3125 0,0.0312 0.59375,0.28125 z m 144.0625,0 -0.625,-0.3125 0,0.0312 0.625,0.28125 z m -202.749999,-0.28125 -0.4375,-0.21875 -4.46875,-2.25 1.0625,-0.53125 1.0625,-0.53125 17.53125,-8.78125 0,-16.3125 4.90625,0 0,16.3125 17.53125,8.78125 1.0625,0.53125 1.09375,0.53125 -4.21875,2.09375 -0.71875,0.375 -17.1875,-8.59375 -17.21875,8.59375 z m 144.062499,0 -0.46875,-0.21875 -4.46875,-2.25 1.0625,-0.53125 1.0625,-0.53125 17.5625,-8.78125 0,-16.3125 4.875,0 0,16.3125 17.5625,8.78125 1.0625,0.53125 1.0625,0.53125 -4.21875,2.09375 -0.71875,0.375 -17.1875,-8.59375 -17.1875,8.59375 z m -127.468749,-10.78125 0.625,-0.28125 0.625,0.28125 -0.625,-0.3125 -0.625,0.3125 z m 144.031249,0 0.625,-0.28125 0.625,0.28125 -0.625,-0.3125 -0.625,0.3125 z"
       style="font-size:medium;font-style:normal;font-variant:normal;font-weight:normal;font-stretch:normal;text-indent:0;text-align:start;text-decoration:none;line-height:normal;letter-spacing:normal;word-spacing:normal;text-transform:none;direction:ltr;block-progression:tb;writing-mode:lr-tb;text-anchor:start;baseline-shift:baseline;color:#000000;fill:url(#linearGradient4865);fill-opacity:1;fill-rule:nonzero;stroke:none;stroke-width:0.1;marker:none;visibility:visible;display:inline;overflow:visible;enable-background:accumulate;font-family:Sans;-inkscape-font-specification:Sans"
       transform="translate(0,-732.36218)" />
  </g>
</svg>
