<?xml version="1.0" encoding="UTF-8" standalone="no"?>
<!-- Created with Inkscape (http://www.inkscape.org/) -->

<svg
   xmlns:dc="http://purl.org/dc/elements/1.1/"
   xmlns:cc="http://creativecommons.org/ns#"
   xmlns:rdf="http://www.w3.org/1999/02/22-rdf-syntax-ns#"
   xmlns:svg="http://www.w3.org/2000/svg"
   xmlns="http://www.w3.org/2000/svg"
   xmlns:xlink="http://www.w3.org/1999/xlink"
   xmlns:sodipodi="http://sodipodi.sourceforge.net/DTD/sodipodi-0.dtd"
   xmlns:inkscape="http://www.inkscape.org/namespaces/inkscape"
   width="600"
   height="100"
   viewBox="0 0 158.75 26.458333"
   version="1.1"
   id="svg8"
   inkscape:version="0.92.4 (5da689c313, 2019-01-14)"
   sodipodi:docname="principles.svg">
  <defs
     id="defs2">
    <mask
       id="mask3946"
       maskUnits="userSpaceOnUse">
      <g
         style="stroke:#99cc00;stroke-opacity:1"
         transform="matrix(1.2293645,0,0,1.4790749,412.56584,-2406.4653)"
         id="g3948">
        <path
           style="fill:none;stroke:#99cc00;stroke-width:3;stroke-linecap:butt;stroke-linejoin:miter;stroke-miterlimit:4;stroke-dasharray:none;stroke-opacity:1"
           d="m -257.38686,1418.6435 63.63961,391.7372 -132.93608,-390.323 59.39697,422.8499 -149.90664,-403.0509 31.1127,414.3646"
           id="path3950"
           inkscape:connector-curvature="0" />
        <path
           inkscape:connector-curvature="0"
           id="path3952"
           d="m -92.817774,1569.1793 -307.434556,250.9821 271.56157,-310.2875 -336.50025,262.8642 274.09899,-331.3484 -343.29395,234.1267"
           style="fill:none;stroke:#99cc00;stroke-width:3;stroke-linecap:butt;stroke-linejoin:miter;stroke-miterlimit:4;stroke-dasharray:none;stroke-opacity:1" />
        <path
           style="fill:none;stroke:#99cc00;stroke-width:3;stroke-linecap:butt;stroke-linejoin:miter;stroke-miterlimit:4;stroke-dasharray:none;stroke-opacity:1"
           d="m -514.16914,1519.8139 395.16695,36.7574 -411.19718,30.6743 424.21771,48.676 -427.77841,43.9054 408.90264,73.9237"
           id="path3954"
           inkscape:connector-curvature="0" />
      </g>
    </mask>
    <linearGradient
       id="linearGradient4108"
       inkscape:collect="always">
      <stop
         id="stop4110"
         offset="0"
         style="stop-color:#225577;stop-opacity:0.60416669" />
      <stop
         id="stop4112"
         offset="1"
         style="stop-color:#225577;stop-opacity:0;" />
    </linearGradient>
    <linearGradient
       id="linearGradient4090"
       inkscape:collect="always">
      <stop
         id="stop4092"
         offset="0"
         style="stop-color:#ececec;stop-opacity:1;" />
      <stop
         id="stop4094"
         offset="1"
         style="stop-color:#ececec;stop-opacity:0;" />
    </linearGradient>
    <linearGradient
       gradientTransform="translate(0,731.30006)"
       gradientUnits="userSpaceOnUse"
       y2="226.67992"
       x2="79.903069"
       y1="-30.740503"
       x1="79.903069"
       id="linearGradient4096"
       xlink:href="#linearGradient4090"
       inkscape:collect="always" />
    <linearGradient
       gradientTransform="translate(-2.7e-5)"
       gradientUnits="userSpaceOnUse"
       y2="845.78699"
       x2="82"
       y1="690.27234"
       x1="82"
       id="linearGradient4114"
       xlink:href="#linearGradient4108"
       inkscape:collect="always" />
    <linearGradient
       inkscape:collect="always"
       xlink:href="#linearGradient4090"
       id="linearGradient4143"
       gradientUnits="userSpaceOnUse"
       gradientTransform="translate(-2.7e-5,-1.0621225)"
       x1="79.903069"
       y1="-30.740503"
       x2="79.903069"
       y2="226.67992" />
    <linearGradient
       gradientUnits="userSpaceOnUse"
       y2="905.37903"
       x2="144.24979"
       y1="596.68799"
       x1="144.24979"
       id="linearGradient3867-3"
       xlink:href="#linearGradient3861-6"
       inkscape:collect="always" />
    <linearGradient
       id="linearGradient3861-6"
       inkscape:collect="always">
      <stop
         id="stop3863-7"
         offset="0"
         style="stop-color:#ffffff;stop-opacity:0.70391059" />
      <stop
         id="stop3865-5"
         offset="1"
         style="stop-color:#ffffff;stop-opacity:0" />
    </linearGradient>
    <linearGradient
       gradientUnits="userSpaceOnUse"
       y2="913.36127"
       x2="166.20026"
       y1="605.73663"
       x1="166.20026"
       id="linearGradient4110-7"
       xlink:href="#linearGradient4104-7"
       inkscape:collect="always" />
    <linearGradient
       id="linearGradient4104-7"
       inkscape:collect="always">
      <stop
         id="stop4106-9"
         offset="0"
         style="stop-color:#225d86;stop-opacity:1" />
      <stop
         id="stop4108-8"
         offset="1"
         style="stop-color:#225577;stop-opacity:1" />
    </linearGradient>
  </defs>
  <sodipodi:namedview
     id="base"
     pagecolor="#ffffff"
     bordercolor="#666666"
     borderopacity="1.0"
     inkscape:pageopacity="0.0"
     inkscape:pageshadow="2"
     inkscape:zoom="3.959798"
     inkscape:cx="292.62014"
     inkscape:cy="44.829284"
     inkscape:document-units="mm"
     inkscape:current-layer="layer1"
     showgrid="true"
     inkscape:window-width="1860"
     inkscape:window-height="1022"
     inkscape:window-x="0"
     inkscape:window-y="0"
     inkscape:window-maximized="1"
     showguides="true"
     inkscape:guide-bbox="true"
     inkscape:snap-global="false"
     units="px">
    <inkscape:grid
       type="xygrid"
       id="grid368" />
  </sodipodi:namedview>
  <metadata
     id="metadata5">
    <rdf:RDF>
      <cc:Work
         rdf:about="">
        <dc:format>image/svg+xml</dc:format>
        <dc:type
           rdf:resource="http://purl.org/dc/dcmitype/StillImage" />
        <dc:title />
      </cc:Work>
    </rdf:RDF>
  </metadata>
  <g
     inkscape:label="Layer 1"
     inkscape:groupmode="layer"
     id="layer1"
     transform="translate(0,-270.54167)">
    <g
       id="g1015"
       transform="translate(0,0.00320053)">
      <path
         sodipodi:type="star"
         style="fill:#ffffff;fill-opacity:0.72340423;stroke:none;stroke-width:3.64880443;stroke-linecap:round;stroke-linejoin:round;stroke-miterlimit:4;stroke-dasharray:none;stroke-opacity:1"
         id="path1011"
         sodipodi:sides="6"
         sodipodi:cx="-180.04845"
         sodipodi:cy="249.8154"
         sodipodi:r1="43.263184"
         sodipodi:r2="37.467018"
         sodipodi:arg1="-1.5707963"
         sodipodi:arg2="-1.0471976"
         inkscape:flatsided="true"
         inkscape:rounded="0"
         inkscape:randomized="0"
         d="m -180.04845,206.55222 37.46702,21.63159 0,43.26318 -37.46702,21.63159 -37.46701,-21.63159 0,-43.26318 z"
         inkscape:transform-center-x="-6.217294e-06"
         inkscape:transform-center-y="2.0621354e-06"
         transform="matrix(0.28182771,0,0,0.24661265,63.947299,222.16)" />
      <path
         transform="matrix(0.32537238,0,0,0.2847163,71.78745,212.64112)"
         inkscape:transform-center-x="-7.0236775e-06"
         d="m -180.04845,206.55222 37.46702,21.63159 0,43.26318 -37.46702,21.63159 -37.46701,-21.63159 0,-43.26318 z"
         inkscape:randomized="0"
         inkscape:rounded="0"
         inkscape:flatsided="true"
         sodipodi:arg2="-1.0471976"
         sodipodi:arg1="-1.5707963"
         sodipodi:r2="37.467018"
         sodipodi:r1="43.263184"
         sodipodi:cy="249.8154"
         sodipodi:cx="-180.04845"
         sodipodi:sides="6"
         id="path4351"
         style="fill:none;fill-opacity:0.72340423;stroke:#99cc00;stroke-width:3.64880443;stroke-linecap:round;stroke-linejoin:round;stroke-miterlimit:4;stroke-dasharray:none;stroke-opacity:1"
         sodipodi:type="star" />
    </g>
    <g
       id="g1021"
       transform="translate(26.458333,0.00320053)">
      <path
         transform="matrix(0.28182771,0,0,0.24661265,63.947299,222.16)"
         inkscape:transform-center-y="2.0621354e-06"
         inkscape:transform-center-x="-6.217294e-06"
         d="m -180.04845,206.55222 37.46702,21.63159 0,43.26318 -37.46702,21.63159 -37.46701,-21.63159 0,-43.26318 z"
         inkscape:randomized="0"
         inkscape:rounded="0"
         inkscape:flatsided="true"
         sodipodi:arg2="-1.0471976"
         sodipodi:arg1="-1.5707963"
         sodipodi:r2="37.467018"
         sodipodi:r1="43.263184"
         sodipodi:cy="249.8154"
         sodipodi:cx="-180.04845"
         sodipodi:sides="6"
         id="path1017"
         style="fill:#ffffff;fill-opacity:0.72340423;stroke:none;stroke-width:3.64880443;stroke-linecap:round;stroke-linejoin:round;stroke-miterlimit:4;stroke-dasharray:none;stroke-opacity:1"
         sodipodi:type="star" />
      <path
         sodipodi:type="star"
         style="fill:none;fill-opacity:0.72340423;stroke:#99cc00;stroke-width:3.64880443;stroke-linecap:round;stroke-linejoin:round;stroke-miterlimit:4;stroke-dasharray:none;stroke-opacity:1"
         id="path1019"
         sodipodi:sides="6"
         sodipodi:cx="-180.04845"
         sodipodi:cy="249.8154"
         sodipodi:r1="43.263184"
         sodipodi:r2="37.467018"
         sodipodi:arg1="-1.5707963"
         sodipodi:arg2="-1.0471976"
         inkscape:flatsided="true"
         inkscape:rounded="0"
         inkscape:randomized="0"
         d="m -180.04845,206.55222 37.46702,21.63159 0,43.26318 -37.46702,21.63159 -37.46701,-21.63159 0,-43.26318 z"
         inkscape:transform-center-x="-7.0236775e-06"
         transform="matrix(0.32537238,0,0,0.2847163,71.78745,212.64112)" />
      <path
         transform="matrix(0.28182771,0,0,0.24661265,90.405629,222.16)"
         inkscape:transform-center-y="2.0621354e-06"
         inkscape:transform-center-x="-6.217294e-06"
         d="m -180.04845,206.55222 37.46702,21.63159 0,43.26318 -37.46702,21.63159 -37.46701,-21.63159 0,-43.26318 z"
         inkscape:randomized="0"
         inkscape:rounded="0"
         inkscape:flatsided="true"
         sodipodi:arg2="-1.0471976"
         sodipodi:arg1="-1.5707963"
         sodipodi:r2="37.467018"
         sodipodi:r1="43.263184"
         sodipodi:cy="249.8154"
         sodipodi:cx="-180.04845"
         sodipodi:sides="6"
         id="path1017-3"
         style="fill:#ffffff;fill-opacity:0.72340423;stroke:none;stroke-width:3.64880443;stroke-linecap:round;stroke-linejoin:round;stroke-miterlimit:4;stroke-dasharray:none;stroke-opacity:1"
         sodipodi:type="star" />
    </g>
    <g
       transform="translate(52.916662,0.00320053)"
       id="g1027"
       style="fill:none">
      <path
         sodipodi:type="star"
         style="fill:none;fill-opacity:0.72340423;stroke:none;stroke-width:3.64880443;stroke-linecap:round;stroke-linejoin:round;stroke-miterlimit:4;stroke-dasharray:none;stroke-opacity:1"
         id="path1023"
         sodipodi:sides="6"
         sodipodi:cx="-180.04845"
         sodipodi:cy="249.8154"
         sodipodi:r1="43.263184"
         sodipodi:r2="37.467018"
         sodipodi:arg1="-1.5707963"
         sodipodi:arg2="-1.0471976"
         inkscape:flatsided="true"
         inkscape:rounded="0"
         inkscape:randomized="0"
         d="m -180.04845,206.55222 37.46702,21.63159 0,43.26318 -37.46702,21.63159 -37.46701,-21.63159 0,-43.26318 z"
         inkscape:transform-center-x="-6.217294e-06"
         inkscape:transform-center-y="2.0621354e-06"
         transform="matrix(0.28182771,0,0,0.24661265,63.947299,222.16)" />
      <path
         transform="matrix(0.32537238,0,0,0.2847163,71.78745,212.64112)"
         inkscape:transform-center-x="-7.0236775e-06"
         d="m -180.04845,206.55222 37.46702,21.63159 0,43.26318 -37.46702,21.63159 -37.46701,-21.63159 0,-43.26318 z"
         inkscape:randomized="0"
         inkscape:rounded="0"
         inkscape:flatsided="true"
         sodipodi:arg2="-1.0471976"
         sodipodi:arg1="-1.5707963"
         sodipodi:r2="37.467018"
         sodipodi:r1="43.263184"
         sodipodi:cy="249.8154"
         sodipodi:cx="-180.04845"
         sodipodi:sides="6"
         id="path1025"
         style="fill:none;fill-opacity:0.72340423;stroke:#99cc00;stroke-width:3.64880443;stroke-linecap:round;stroke-linejoin:round;stroke-miterlimit:4;stroke-dasharray:none;stroke-opacity:1"
         sodipodi:type="star" />
    </g>
    <g
       id="g3083"
       transform="matrix(0.27716688,0,0,0.27716688,-131.06435,-82.010624)">
      <path
         sodipodi:type="star"
         style="fill:#000000;fill-opacity:1;stroke:none"
         id="path3179"
         sodipodi:sides="6"
         sodipodi:cx="22.117023"
         sodipodi:cy="7.4228358"
         sodipodi:r1="185.86855"
         sodipodi:r2="160.96687"
         sodipodi:arg1="0.52359878"
         sodipodi:arg2="1.0471976"
         inkscape:flatsided="true"
         inkscape:rounded="0"
         inkscape:randomized="0"
         d="m 183.08391,100.35711 -160.966887,92.93427 -160.966883,-92.93427 0,-185.868548 160.966884,-92.934272 160.966886,92.934274 z"
         transform="matrix(0.70022454,0,0,0.5820065,184.42024,824.99225)" />
      <path
         sodipodi:nodetypes="ccccc"
         inkscape:connector-curvature="0"
         id="path3202"
         d="M 199.90712,993.4903 348.16953,917.04581 200.35293,1022.7873 51.644701,917.04581 Z"
         style="fill:#000000;fill-opacity:1;stroke:none" />
    </g>
    <path
       style="color:#000000;font-style:normal;font-variant:normal;font-weight:normal;font-stretch:normal;font-size:medium;line-height:normal;font-family:Sans;-inkscape-font-specification:Sans;text-indent:0;text-align:start;text-decoration:none;text-decoration-line:none;letter-spacing:normal;word-spacing:normal;text-transform:none;writing-mode:lr-tb;direction:ltr;baseline-shift:baseline;text-anchor:start;display:inline;overflow:visible;visibility:visible;fill:#99cc00;fill-opacity:1;stroke:none;stroke-width:12.53281307;marker:none;enable-background:accumulate"
       d="m -65.814435,114.45686 -24.35892,24.35896 v -21.99843 l -11.929725,6.01701 v 50.17756 l 11.929725,5.69156 V 156.8744 l 24.74664,24.74665 11.0275,-5.84556 -27.93037,-27.93039 27.90802,-27.90802 z"
       id="path3181"
       inkscape:connector-curvature="0"
       sodipodi:nodetypes="cccccccccccc" />
    <path
       transform="matrix(0.23947607,0,0,0.20548717,-80.953215,146.2301)"
       d="m 183.08391,100.35711 -160.966887,92.93427 -160.966883,-92.93427 0,-185.868548 160.966884,-92.934272 160.966886,92.934274 z"
       inkscape:randomized="0"
       inkscape:rounded="0"
       inkscape:flatsided="true"
       sodipodi:arg2="1.0471976"
       sodipodi:arg1="0.52359878"
       sodipodi:r2="160.96687"
       sodipodi:r1="185.86855"
       sodipodi:cy="7.4228358"
       sodipodi:cx="22.117023"
       sodipodi:sides="6"
       id="path3183"
       style="fill:none;stroke:#99cc00;stroke-width:21.51119804;stroke-miterlimit:4;stroke-dasharray:none;stroke-opacity:1"
       sodipodi:type="star" />
    <g
       id="g3799"
       transform="matrix(0.25065627,0,0,0.25065627,-125.76469,-59.405557)">
      <circle
         r="44.234043"
         cy="-186.10106"
         cx="1199.8484"
         style="fill:#ffffff;fill-opacity:1;stroke:none"
         id="path3187"
         transform="matrix(0.41829122,0,0,0.41829122,-231.73571,904.31774)" />
      <circle
         r="44.234043"
         cy="-186.10106"
         cx="1199.8484"
         transform="matrix(-0.12861123,-0.22276118,0.22276118,-0.12861123,415.65285,1069.8182)"
         id="path3189"
         style="fill:#ffffff;fill-opacity:1;stroke:none"
         inkscape:transform-center-x="113.75841"
         inkscape:transform-center-y="7.4389138" />
      <circle
         r="44.234043"
         cy="-186.10106"
         cx="1199.8484"
         inkscape:transform-center-x="-56.76189"
         style="fill:#ffffff;fill-opacity:1;stroke:none"
         id="path3191"
         transform="matrix(-0.12861123,0.22276118,-0.22276118,-0.12861123,407.98653,578.7022)"
         inkscape:transform-center-y="98.314472" />
      <circle
         r="44.234043"
         cy="-186.10106"
         cx="1199.8484"
         inkscape:transform-center-y="-98.314455"
         transform="matrix(0.25722244,0,0,0.25722244,-13.499285,830.89945)"
         id="path3193"
         style="fill:#ffffff;fill-opacity:1;stroke:none"
         inkscape:transform-center-x="-56.76188" />
      <g
         transform="matrix(0.95187682,0,0,0.95187682,9.5317553,41.336096)"
         style="stroke-width:8;stroke-miterlimit:4;stroke-dasharray:none"
         id="g3292">
        <path
           inkscape:transform-center-x="26.034924"
           inkscape:connector-curvature="0"
           id="path3195"
           d="m 225.1703,824.83068 h 44.753"
           style="fill:none;stroke:#ffffff;stroke-width:8;stroke-linecap:square;stroke-linejoin:miter;stroke-miterlimit:4;stroke-dasharray:none;stroke-opacity:1" />
        <path
           inkscape:transform-center-y="22.546905"
           style="fill:none;stroke:#ffffff;stroke-width:8;stroke-linecap:square;stroke-linejoin:miter;stroke-miterlimit:4;stroke-dasharray:none;stroke-opacity:1"
           d="M 297.7874,866.7562 275.4109,827.99897"
           id="path3198"
           inkscape:connector-curvature="0"
           inkscape:transform-center-x="-13.017426" />
        <path
           inkscape:transform-center-x="-13.017526"
           inkscape:connector-curvature="0"
           id="path3200"
           d="M 297.7875,782.90519 275.411,821.66242"
           style="fill:none;stroke:#ffffff;stroke-width:8;stroke-linecap:square;stroke-linejoin:miter;stroke-miterlimit:4;stroke-dasharray:none;stroke-opacity:1"
           inkscape:transform-center-y="-22.546875" />
      </g>
    </g>
    <g
       id="g3260"
       transform="matrix(0.26458333,0,0,0.26458333,-713.68947,-95.926111)"
       style="fill:#ff0000;stroke:#ff0000" />
    <rect
       style="fill:#225577;fill-opacity:1;stroke:none;stroke-width:0.26458332"
       id="rect3918"
       width="27.836403"
       height="27.387428"
       x="-49.470371"
       y="244.98055" />
    <rect
       y="277.07721"
       x="-49.470371"
       height="27.387428"
       width="27.836403"
       id="rect3920"
       style="fill:#99cc00;fill-opacity:1;stroke:none;stroke-width:0.26458332" />
    <rect
       style="fill:#ff7b24;fill-opacity:1;stroke:none;stroke-width:0.26458332"
       id="rect3953"
       width="27.836403"
       height="27.387428"
       x="-49.470371"
       y="309.17386" />
    <path
       style="fill:#000000;stroke-width:0.26458332"
       d=""
       id="path4330"
       inkscape:connector-curvature="0" />
    <g
       id="g930"
       transform="matrix(0.9229628,0,0,0.9229628,1.0111727,21.857743)">
      <rect
         ry="1.7365514"
         transform="matrix(0.89705351,0.44192195,-0.89705351,0.44192195,0,0)"
         style="opacity:1;fill:#225577;fill-opacity:1;stroke-width:0.05147582"
         y="312.10968"
         x="326.74176"
         height="11.912978"
         width="11.912978"
         id="rect4336" />
      <rect
         id="rect4342"
         width="11.912978"
         height="11.912978"
         x="322.3775"
         y="307.74539"
         style="opacity:1;fill:#99cc00;fill-opacity:1;stroke-width:0.05147582"
         transform="matrix(0.89705351,0.44192195,-0.89705351,0.44192195,0,0)"
         ry="1.7365514" />
      <rect
         ry="1.7365514"
         transform="matrix(0.89705351,0.44192195,-0.89705351,0.44192195,0,0)"
         style="opacity:1;fill:#6e90a5;fill-opacity:0.88235294;stroke-width:0.05147582"
         y="303.3811"
         x="318.01321"
         height="11.912978"
         width="11.912978"
         id="rect4340" />
    </g>
    <g
       id="g964"
       transform="matrix(0.91813251,0,0,0.91813251,3.2697211,23.236032)">
      <g
         transform="matrix(0.20582934,0,0,0.22017764,30.277508,277.29997)"
         id="g5335"
         style="stroke:#225577;stroke-opacity:1">
        <line
           style="fill:none;stroke:#225577;stroke-width:2.79999995;stroke-linecap:round;stroke-miterlimit:10;stroke-opacity:1"
           class="st0"
           x1="14.7"
           y1="7.0999999"
           x2="14.7"
           y2="1.4"
           id="line5325" />
        <line
           style="fill:none;stroke:#225577;stroke-width:2.79999995;stroke-linecap:round;stroke-miterlimit:10;stroke-opacity:1"
           class="st0"
           x1="20.5"
           y1="7.0999999"
           x2="20.5"
           y2="1.4"
           id="line5327" />
        <line
           style="fill:none;stroke:#225577;stroke-width:2.79999995;stroke-linecap:round;stroke-miterlimit:10;stroke-opacity:1"
           class="st0"
           x1="26.299999"
           y1="7.0999999"
           x2="26.299999"
           y2="1.4"
           id="line5329" />
        <line
           style="fill:none;stroke:#225577;stroke-width:2.79999995;stroke-linecap:round;stroke-miterlimit:10;stroke-opacity:1"
           class="st0"
           x1="32.200001"
           y1="7.0999999"
           x2="32.200001"
           y2="1.4"
           id="line5331" />
        <line
           style="fill:none;stroke:#225577;stroke-width:2.79999995;stroke-linecap:round;stroke-miterlimit:10;stroke-opacity:1"
           class="st0"
           x1="38"
           y1="7.0999999"
           x2="38"
           y2="1.4"
           id="line5333" />
      </g>
      <g
         transform="matrix(0.20582934,0,0,0.22017764,30.277508,277.29997)"
         id="g5341"
         style="stroke:#225577;stroke-opacity:1">
        <line
           style="fill:none;stroke:#225577;stroke-width:2.79999995;stroke-linecap:round;stroke-miterlimit:10;stroke-opacity:1"
           class="st0"
           x1="45.599998"
           y1="14.7"
           x2="51.299999"
           y2="14.7"
           id="line5337" />
        <line
           style="fill:none;stroke:#225577;stroke-width:2.79999995;stroke-linecap:round;stroke-miterlimit:10;stroke-opacity:1"
           class="st0"
           x1="45.599998"
           y1="20.5"
           x2="51.299999"
           y2="20.5"
           id="line5339" />
      </g>
      <g
         transform="matrix(0.20582934,0,0,0.22017764,30.277508,277.29997)"
         id="g5347"
         style="stroke:#225577;stroke-opacity:1">
        <line
           style="fill:none;stroke:#225577;stroke-width:2.79999995;stroke-linecap:round;stroke-miterlimit:10;stroke-opacity:1"
           class="st0"
           x1="20.5"
           y1="45.599998"
           x2="20.5"
           y2="51.299999"
           id="line5343" />
        <line
           style="fill:none;stroke:#225577;stroke-width:2.79999995;stroke-linecap:round;stroke-miterlimit:10;stroke-opacity:1"
           class="st0"
           x1="14.7"
           y1="45.599998"
           x2="14.7"
           y2="51.299999"
           id="line5345" />
      </g>
      <g
         transform="matrix(0.20582934,0,0,0.22017764,30.277508,277.29997)"
         id="g5359"
         style="stroke:#225577;stroke-opacity:1">
        <line
           style="fill:none;stroke:#225577;stroke-width:2.79999995;stroke-linecap:round;stroke-miterlimit:10;stroke-opacity:1"
           class="st0"
           x1="7.0999999"
           y1="38"
           x2="1.4"
           y2="38"
           id="line5349" />
        <line
           style="fill:none;stroke:#225577;stroke-width:2.79999995;stroke-linecap:round;stroke-miterlimit:10;stroke-opacity:1"
           class="st0"
           x1="7.0999999"
           y1="32.200001"
           x2="1.4"
           y2="32.200001"
           id="line5351" />
        <line
           style="fill:none;stroke:#225577;stroke-width:2.79999995;stroke-linecap:round;stroke-miterlimit:10;stroke-opacity:1"
           class="st0"
           x1="7.0999999"
           y1="26.299999"
           x2="1.4"
           y2="26.299999"
           id="line5353" />
        <line
           style="fill:none;stroke:#225577;stroke-width:2.79999995;stroke-linecap:round;stroke-miterlimit:10;stroke-opacity:1"
           class="st0"
           x1="7.0999999"
           y1="20.5"
           x2="1.4"
           y2="20.5"
           id="line5355" />
        <line
           style="fill:none;stroke:#225577;stroke-width:2.79999995;stroke-linecap:round;stroke-miterlimit:10;stroke-opacity:1"
           class="st0"
           x1="7.0999999"
           y1="14.7"
           x2="1.4"
           y2="14.7"
           id="line5357" />
      </g>
      <ellipse
         ry="0.28623092"
         rx="0.26757812"
         style="fill:#52225e;stroke:#225577;stroke-width:0.17030612;stroke-miterlimit:10;stroke-opacity:1"
         class="st1"
         cx="33.3032"
         cy="285.66672"
         id="circle5361" />
      <path
         style="fill:none;stroke:#225577;stroke-width:0.59607136;stroke-miterlimit:10;stroke-opacity:1"
         inkscape:connector-curvature="0"
         class="st2"
         d="m 37.419786,284.6539 c 0,-0.0661 -0.02058,-0.15412 -0.02058,-0.24219 0,-0.94677 0.720403,-1.69537 1.584886,-1.69537 0.226412,0 0.432242,0.044 0.617488,0.13211 v -2.86231 c 0,-0.6165 -0.452824,-1.10089 -1.029147,-1.10089 h -5.763221 c -0.576322,0 -1.029147,0.50641 -1.029147,1.10089 v 6.18699 c 0,0.6165 0.452825,1.10089 1.029147,1.10089 h 2.531701 c 0,-1.29905 0.905649,-2.39994 2.078876,-2.62012 z"
         id="path5383" />
      <g
         style="stroke:#99cc00;stroke-opacity:1"
         id="g6057">
        <g
           id="g5835"
           style="stroke:#99cc00;stroke-opacity:1">
          <line
             style="fill:none;stroke:#99cc00;stroke-width:0.59607136;stroke-linecap:round;stroke-miterlimit:10;stroke-opacity:1"
             class="st0"
             x1="42.750767"
             y1="286.2612"
             x2="43.368256"
             y2="285.60068"
             id="line5363" />
          <line
             style="fill:none;stroke:#99cc00;stroke-width:0.59607136;stroke-linecap:round;stroke-miterlimit:10;stroke-opacity:1"
             class="st0"
             x1="42.750767"
             y1="286.2612"
             x2="41.886284"
             y2="285.35846"
             id="line5365" />
          <line
             style="fill:none;stroke:#99cc00;stroke-width:0.59607136;stroke-linecap:round;stroke-miterlimit:10;stroke-opacity:1"
             class="st0"
             x1="45.15897"
             y1="285.66672"
             x2="44.273903"
             y2="285.11627"
             id="line5367" />
          <line
             style="fill:none;stroke:#99cc00;stroke-width:0.59607136;stroke-linecap:round;stroke-miterlimit:10;stroke-opacity:1"
             class="st0"
             x1="45.15897"
             y1="285.66672"
             x2="45.694126"
             y2="284.71997"
             id="line5369" />
          <g
             transform="matrix(0.20582934,0,0,0.22017764,30.277508,277.29997)"
             id="g5375"
             style="stroke:#99cc00;stroke-opacity:1">
            <path
               style="fill:none;stroke:#99cc00;stroke-width:2.79999995;stroke-linecap:round;stroke-miterlimit:10;stroke-opacity:1"
               inkscape:connector-curvature="0"
               class="st0"
               d="m 48.9,40.1 c 0.5,6 5.6,10.7 11.7,10.7 5.2,0 9.7,-3.4 11.2,-8.2"
               id="path5371" />
            <path
               style="fill:none;stroke:#99cc00;stroke-width:2.79999995;stroke-linecap:round;stroke-miterlimit:10;stroke-opacity:1"
               inkscape:connector-curvature="0"
               class="st0"
               d="M 72.3,38 C 71.8,32 66.7,27.3 60.6,27.3 c -5.2,0 -9.7,3.4 -11.2,8.2"
               id="path5373" />
          </g>
          <line
             style="fill:none;stroke:#99cc00;stroke-width:0.59607136;stroke-linecap:round;stroke-miterlimit:10;stroke-opacity:1"
             class="st0"
             x1="40.404312"
             y1="286.04102"
             x2="41.289379"
             y2="286.61349"
             id="line5377" />
          <line
             style="fill:none;stroke:#99cc00;stroke-width:0.59607136;stroke-linecap:round;stroke-miterlimit:10;stroke-opacity:1"
             class="st0"
             x1="40.404312"
             y1="286.04102"
             x2="39.869156"
             y2="287.0098"
             id="line5379" />
        </g>
        <path
           id="path5381"
           d="m 37.852028,290.00422 c -1.379057,0 -2.511118,-1.21098 -2.511118,-2.68617 0,-1.32106 0.905649,-2.44397 2.099459,-2.64213 0,-0.0661 -0.02058,-0.15412 -0.02058,-0.24219 0,-0.94677 0.720403,-1.69537 1.584886,-1.69537 0.370493,0 0.69982,0.1321 0.967398,0.35228 0.535156,-1.34308 1.790715,-2.26783 3.231521,-2.26783 1.934795,0 3.519681,1.69537 3.519681,3.76504 0,0.022 0,0.044 0,0.044 0,0 0.02058,0 0.02058,0 1.379057,0 2.511118,1.21097 2.511118,2.68616 0,1.47519 -1.111478,2.68617 -2.511118,2.68617 z"
           class="st0"
           inkscape:connector-curvature="0"
           style="fill:none;stroke:#99cc00;stroke-width:0.69999999;stroke-linecap:round;stroke-miterlimit:10;stroke-dasharray:none;stroke-opacity:1" />
      </g>
    </g>
    <g
       id="g979"
       transform="matrix(0.98679952,0,0,0.94769909,1.011819,15.029513)">
      <g
         style="fill:#99cc00;fill-opacity:1"
         id="g5708">
        <path
           inkscape:connector-curvature="0"
           style="fill:#99cc00;fill-opacity:1;stroke-width:0.02981898"
           d="m 67.17066,274.4879 c -0.573517,1.1e-4 -0.853817,0.0562 -1.317267,0.26316 -0.36694,0.16388 -0.584653,0.30394 -0.859786,0.55332 -0.726129,0.65815 -1.058105,1.49903 -0.951859,2.41048 0.02115,0.18148 0.05251,0.38914 0.06962,0.4613 0.03476,0.14659 0.324393,0.72427 0.694243,1.38482 0.134682,0.24055 0.244918,0.46457 0.245104,0.4978 1.64e-4,0.0333 -0.03396,0.23009 -0.07603,0.43738 -0.04208,0.2073 -0.111814,0.55399 -0.154954,0.77047 -0.04314,0.21649 -0.103655,0.51844 -0.134422,0.67079 -0.03077,0.15234 -0.0656,0.33913 -0.07732,0.41529 -0.01961,0.1274 -0.01605,0.13864 0.04235,0.13864 0.03491,0 0.60256,-0.31301 1.261446,-0.69533 0.658886,-0.38231 1.616385,-0.93487 2.127966,-1.22809 1.025416,-0.58772 1.175518,-0.68591 1.439177,-0.94192 0.75755,-0.7356 1.073082,-1.84942 0.80268,-2.83467 -0.320877,-1.16916 -1.190968,-1.97163 -2.455199,-2.26449 -0.104018,-0.0241 -0.353149,-0.039 -0.655745,-0.0389 z m 0.02919,0.90113 c 0.219942,-4.7e-4 0.43771,0.0233 0.611154,0.0706 0.435721,0.11877 0.669774,0.24823 0.979127,0.54258 0.227199,0.21617 0.300292,0.30936 0.403585,0.51221 0.155514,0.3054 0.214548,0.5187 0.239008,0.86555 0.02166,0.30712 -0.02146,0.61615 -0.126401,0.90758 -0.09445,0.26229 -0.193019,0.42069 -0.403585,0.6487 -0.302843,0.32795 -0.64012,0.5324 -1.051632,0.63705 v 3.2e-4 c -0.258505,0.0657 -0.685829,0.0932 -0.970145,0.0626 -0.90121,-0.0972 -1.613928,-0.69932 -1.848538,-1.5618 -0.07647,-0.28111 -0.07644,-0.82956 3.28e-4,-1.10479 0.214698,-0.76985 0.758439,-1.30127 1.543121,-1.50782 0.181907,-0.048 0.404046,-0.0723 0.623986,-0.0727 z"
           id="path5663" />
        <path
           style="fill:#99cc00;fill-opacity:1;stroke-width:0.023537"
           d="m 67.715231,279.14047 c 0.324818,-0.0826 0.591234,-0.24394 0.830277,-0.5028 0.166206,-0.17998 0.243955,-0.30497 0.318507,-0.512 0.08284,-0.23003 0.116795,-0.47408 0.0997,-0.7165 -0.01931,-0.27378 -0.06578,-0.44222 -0.188534,-0.68328 -0.08153,-0.16012 -0.139379,-0.23346 -0.318713,-0.40409 -0.244182,-0.23235 -0.428829,-0.33472 -0.772757,-0.42848 -0.273807,-0.0746 -0.687744,-0.0739 -0.974911,0.002 -0.619373,0.16303 -1.048521,0.58231 -1.217988,1.18998 -0.06059,0.21725 -0.06082,0.6503 -4.55e-4,0.87219 0.185185,0.68078 0.747811,1.15614 1.459161,1.23283 0.224421,0.0242 0.561666,0.002 0.765712,-0.0495 z"
           id="path5661"
           inkscape:connector-curvature="0" />
      </g>
      <g
         transform="matrix(1,0.00655235,0,0.98203597,-0.14174108,5.07408)"
         id="g6079">
        <g
           id="g6036"
           style="fill:#225577;fill-opacity:0.5744681">
          <path
             sodipodi:nodetypes="cccccccccccccccccsccc"
             id="path5675"
             d="m 55.319769,289.19254 -0.003,-0.92927 0.138201,-0.10002 c 0.459102,-0.34455 1.086349,-0.61506 1.697453,-0.73204 0.161394,-0.0308 0.62066,-0.0488 1.036886,-0.0405 l 0.747167,0.0155 c 2.445997,1.63804 3.723239,1.14077 6.52359,-0.0916 0.0518,-0.0155 0.258863,-0.0889 0.460142,-0.1621 0.332209,-0.12109 0.442135,-0.13556 1.191941,-0.15744 0.666608,-0.0195 0.892106,-0.009 1.168681,0.0587 0.46621,0.11266 0.971306,0.32891 1.345796,0.57633 l 0.311938,0.20611 0.323815,-0.10663 c 0.615538,-0.20261 1.637048,-0.18733 2.260351,0.0338 l 0.198228,0.0703 0.243974,-0.20705 c 0.555023,-0.47105 0.965631,-0.67598 1.861365,-0.71847 0.87245,0.0274 1.961018,0.68087 1.96261,1.23841 l 0.003,1.05071 -10.571601,5.51782 z"
             style="fill:#225577;fill-opacity:0.5744681;stroke-width:0.03913625"
             inkscape:connector-curvature="0" />
          <path
             id="path5671"
             d="m 70.906456,286.91036 c -0.544027,-0.14511 -1.000405,-0.58886 -1.142674,-1.11107 -0.142619,-0.52349 0.03999,-1.12418 0.453916,-1.49312 0.327334,-0.29176 0.651815,-0.41541 1.090121,-0.41541 0.317803,0 0.517966,0.0442 0.772757,0.17065 0.589085,0.29234 0.938429,0.93773 0.844836,1.56077 -0.09266,0.61686 -0.566353,1.13216 -1.181567,1.28536 -0.212661,0.053 -0.643988,0.0544 -0.837389,0.003 z"
             style="fill:#225577;fill-opacity:0.5744681;stroke-width:0.02981898"
             inkscape:connector-curvature="0" />
          <path
             id="path5669"
             d="m 57.63035,286.88472 c -0.764268,-0.0923 -1.376762,-0.64281 -1.5272,-1.37259 -0.125105,-0.6069 0.143736,-1.28305 0.658331,-1.65576 0.802478,-0.5812 1.95058,-0.42136 2.527189,0.35183 0.402812,0.53527 0.416551,1.21562 0.139995,1.76062 -0.322738,0.62512 -1.067095,1.00423 -1.798315,0.9159 z"
             style="fill:#225577;fill-opacity:0.5744681;stroke-width:0.02678858"
             inkscape:connector-curvature="0" />
          <path
             id="path5667"
             d="m 66.934676,286.54304 c -0.422849,-0.0681 -0.777041,-0.24698 -1.094342,-0.55277 -1.070579,-1.03174 -0.563522,-2.79654 0.908253,-3.16116 0.240498,-0.0596 0.761064,-0.0608 1.002683,-0.002 0.587347,0.14214 1.122767,0.59896 1.34952,1.15143 0.09797,0.23869 0.126827,0.39418 0.127153,0.68517 5.77e-4,0.54305 -0.170104,0.9363 -0.577452,1.33022 -0.213551,0.2065 -0.306326,0.27258 -0.51923,0.36981 -0.399165,0.1823 -0.803163,0.24293 -1.196585,0.1796 z"
             style="fill:#225577;fill-opacity:0.5744681;stroke-width:0.02981898"
             inkscape:connector-curvature="0" />
          <path
             inkscape:connector-curvature="0"
             style="fill:#225577;fill-opacity:0.5744681;stroke-width:0.02623483"
             d="m 74.51517,286.56412 c -0.478637,-0.12767 -0.880159,-0.51808 -1.005328,-0.97752 -0.125477,-0.46057 0.03518,-0.98906 0.399357,-1.31365 0.287989,-0.25669 0.573468,-0.36548 0.959091,-0.36548 0.279605,0 0.455709,0.0389 0.679874,0.15014 0.518279,0.2572 0.825633,0.82501 0.74329,1.37317 -0.08152,0.54271 -0.498279,0.99607 -1.039547,1.13086 -0.187099,0.0466 -0.566582,0.0479 -0.736737,0.003 z"
             id="path5712" />
        </g>
        <g
           id="g6040">
          <path
             sodipodi:nodetypes="ccccccccccccccccccccsccccccc"
             inkscape:connector-curvature="0"
             id="path5657"
             d="m 57.913995,289.94733 0.0088,-1.61155 0.101367,-0.19681 c 0.122823,-0.23845 0.374753,-0.50518 0.654711,-0.69314 0.235115,-0.15786 0.936938,-0.45256 1.34819,-0.56612 0.356074,-0.0983 0.92929,-0.20857 1.301143,-0.25025 0.185236,-0.0208 0.627151,-0.0283 1.189368,-0.0201 0.80932,0.0117 0.93387,0.0203 1.306321,0.0899 0.563896,0.10538 0.930737,0.20322 1.326604,0.3538 0.184504,0.0702 0.369772,0.1369 0.411705,0.14826 0.142293,0.0385 0.579816,0.33264 0.771391,0.51852 0.104905,0.10179 0.238434,0.26919 0.296732,0.37202 l 0.105997,0.18695 0.0086,1.64005 0.0086,4.51736 -0.53344,0.27144 -0.900935,-0.45936 -0.0081,-3.55569 -0.0039,-0.89495 c -0.09449,0 -0.188984,0 -0.283476,0 0,0 0.0048,0.0756 0.0048,0.8825 v 3.45125 l -5.412259,-2.77294 c -0.007,-0.52116 -0.03923,-1.56081 -0.03923,-1.56081 -0.08132,0 -0.162649,0 -0.243973,0 0,0 0.01423,0.96449 0.0068,1.42717 l -1.434878,-0.72663 z"
             style="fill:#225577;fill-opacity:1;stroke-width:0.02981898" />
          <path
             sodipodi:nodetypes="ccccccscccscccccc"
             inkscape:connector-curvature="0"
             id="path5655"
             d="m 61.882359,286.07667 c -0.413119,-0.0712 -0.91166,-0.31495 -1.234403,-0.60358 -0.08393,-0.0751 -0.225556,-0.24202 -0.314719,-0.37103 -0.434164,-0.68241 -0.432707,-1.31655 -0.295974,-1.96074 0.110994,-0.31527 0.221944,-0.51196 0.423842,-0.7514 0.280273,-0.33239 0.640521,-0.56568 1.115101,-0.7221 0.264947,-0.0873 0.305508,-0.0925 0.722898,-0.0925 0.417389,0 0.457951,0.005 0.722897,0.0925 0.47458,0.15642 0.834828,0.38971 1.115101,0.7221 0.20017,0.23739 0.311692,0.43404 0.426131,0.7514 0.09134,0.2533 0.09677,0.29208 0.09677,0.69113 0,0.39905 -0.0054,0.43783 -0.09677,0.69113 -0.163505,0.45343 -0.407087,0.79738 -0.755285,1.06648 -0.255468,0.19744 -0.443886,0.29484 -0.776261,0.40131 -0.24225,0.0776 -0.343476,0.0938 -0.639793,0.10231 -0.193607,0.005 -0.422897,-0.002 -0.509535,-0.017 z"
             style="fill:#225577;fill-opacity:1;stroke-width:0.02981898" />
        </g>
      </g>
    </g>
    <g
       id="g1139"
       transform="translate(0,28.731471)">
      <path
         sodipodi:type="star"
         style="fill:#ffffff;fill-opacity:0.72340423;stroke:none;stroke-width:3.64880443;stroke-linecap:round;stroke-linejoin:round;stroke-miterlimit:4;stroke-dasharray:none;stroke-opacity:1"
         id="path940"
         sodipodi:sides="6"
         sodipodi:cx="-180.04845"
         sodipodi:cy="249.8154"
         sodipodi:r1="43.263184"
         sodipodi:r2="37.467018"
         sodipodi:arg1="-1.5707963"
         sodipodi:arg2="-1.0471976"
         inkscape:flatsided="true"
         inkscape:rounded="0"
         inkscape:randomized="0"
         d="m -180.04845,206.55222 37.46702,21.63159 0,43.26318 -37.46702,21.63159 -37.46701,-21.63159 0,-43.26318 z"
         inkscape:transform-center-x="-6.217294e-06"
         inkscape:transform-center-y="2.0621354e-06"
         transform="matrix(0.28182771,0,0,0.24661265,143.3223,193.43173)" />
      <path
         transform="matrix(0.32537238,0,0,0.2847163,151.16245,183.91285)"
         inkscape:transform-center-x="-7.0236775e-06"
         d="m -180.04845,206.55222 37.46702,21.63159 0,43.26318 -37.46702,21.63159 -37.46701,-21.63159 0,-43.26318 z"
         inkscape:randomized="0"
         inkscape:rounded="0"
         inkscape:flatsided="true"
         sodipodi:arg2="-1.0471976"
         sodipodi:arg1="-1.5707963"
         sodipodi:r2="37.467018"
         sodipodi:r1="43.263184"
         sodipodi:cy="249.8154"
         sodipodi:cx="-180.04845"
         sodipodi:sides="6"
         id="path942"
         style="fill:none;fill-opacity:0.72340423;stroke:#99cc00;stroke-width:3.64880443;stroke-linecap:round;stroke-linejoin:round;stroke-miterlimit:4;stroke-dasharray:none;stroke-opacity:1"
         sodipodi:type="star" />
      <path
         inkscape:transform-center-x="-10.768074"
         inkscape:connector-curvature="0"
         id="path980"
         d="m 91.578292,247.768 -2.254881,2.81798"
         style="fill:#99cc00;fill-opacity:1;stroke:#99cc00;stroke-width:0.63807893;stroke-linecap:square;stroke-linejoin:miter;stroke-miterlimit:4;stroke-dasharray:none;stroke-opacity:1"
         inkscape:transform-center-y="21.691625" />
      <path
         inkscape:transform-center-x="21.536209"
         inkscape:connector-curvature="0"
         id="path984"
         d="m 85.138468,251.2623 h 3.309866"
         style="fill:#99cc00;fill-opacity:1;stroke:#99cc00;stroke-width:0.63807899;stroke-linecap:square;stroke-linejoin:miter;stroke-miterlimit:4;stroke-dasharray:none;stroke-opacity:1" />
      <rect
         ry="0.6363669"
         y="249.9015"
         x="82.586731"
         height="2.5909154"
         width="2.735805"
         id="rect1010"
         style="opacity:1;fill:#99cc00;fill-opacity:1;fill-rule:evenodd;stroke:none;stroke-width:0.94412929;stroke-linecap:round;stroke-linejoin:miter;stroke-miterlimit:4;stroke-dasharray:none;stroke-opacity:1;paint-order:normal" />
      <rect
         style="opacity:1;fill:#99cc00;fill-opacity:1;fill-rule:evenodd;stroke:none;stroke-width:0.94412929;stroke-linecap:round;stroke-linejoin:miter;stroke-miterlimit:4;stroke-dasharray:none;stroke-opacity:1;paint-order:normal"
         id="rect1012"
         width="2.735805"
         height="2.5909154"
         x="91.1651"
         y="245.59338"
         ry="0.6363669" />
      <path
         inkscape:transform-center-y="21.691627"
         style="fill:#225577;fill-opacity:1;stroke:#225577;stroke-width:0.63807893;stroke-linecap:square;stroke-linejoin:miter;stroke-miterlimit:4;stroke-dasharray:none;stroke-opacity:1"
         d="m 91.820877,255.72537 -2.254881,2.81798"
         id="path1016"
         inkscape:connector-curvature="0"
         inkscape:transform-center-x="-10.768074" />
      <path
         inkscape:transform-center-y="-3.7797643e-06"
         style="fill:#225577;fill-opacity:1;stroke:#225577;stroke-width:0.63807899;stroke-linecap:square;stroke-linejoin:miter;stroke-miterlimit:4;stroke-dasharray:none;stroke-opacity:1"
         d="m 85.381052,259.01512 h 3.309867"
         id="path1018"
         inkscape:connector-curvature="0"
         inkscape:transform-center-x="21.536209" />
      <rect
         style="opacity:1;fill:#225577;fill-opacity:1;fill-rule:evenodd;stroke:none;stroke-width:0.94412929;stroke-linecap:round;stroke-linejoin:miter;stroke-miterlimit:4;stroke-dasharray:none;stroke-opacity:1;paint-order:normal"
         id="rect1020"
         width="2.735805"
         height="2.5909154"
         x="82.829315"
         y="257.65433"
         ry="0.6363669" />
      <rect
         ry="0.6363669"
         y="253.55078"
         x="91.407692"
         height="2.5909154"
         width="2.735805"
         id="rect1022"
         style="opacity:1;fill:#225577;fill-opacity:1;fill-rule:evenodd;stroke:none;stroke-width:0.94412929;stroke-linecap:round;stroke-linejoin:miter;stroke-miterlimit:4;stroke-dasharray:none;stroke-opacity:1;paint-order:normal" />
      <path
         inkscape:transform-center-x="-10.768075"
         inkscape:connector-curvature="0"
         id="path1036"
         d="m 91.781793,262.05959 -2.25488,-2.81798"
         style="fill:#225577;fill-opacity:1;stroke:#225577;stroke-width:0.63807893;stroke-linecap:square;stroke-linejoin:miter;stroke-miterlimit:4;stroke-dasharray:none;stroke-opacity:1"
         inkscape:transform-center-y="-21.691624" />
      <rect
         transform="scale(1,-1)"
         style="opacity:1;fill:#225577;fill-opacity:1;fill-rule:evenodd;stroke:none;stroke-width:0.94412929;stroke-linecap:round;stroke-linejoin:miter;stroke-miterlimit:4;stroke-dasharray:none;stroke-opacity:1;paint-order:normal"
         id="rect1038"
         width="2.735805"
         height="2.5909154"
         x="91.368614"
         y="-264.23419"
         ry="0.6363669" />
      <path
         inkscape:transform-center-y="1.0452331e-06"
         inkscape:transform-center-x="21.536208"
         inkscape:connector-curvature="0"
         id="path1042"
         d="m 92.58782,254.90103 h 3.309864"
         style="fill:#225577;fill-opacity:1;stroke:#225577;stroke-width:0.63807899;stroke-linecap:square;stroke-linejoin:miter;stroke-miterlimit:4;stroke-dasharray:none;stroke-opacity:1" />
      <rect
         style="opacity:1;fill:#99cc00;fill-opacity:1;fill-rule:evenodd;stroke:none;stroke-width:0.94412929;stroke-linecap:round;stroke-linejoin:miter;stroke-miterlimit:4;stroke-dasharray:none;stroke-opacity:1;paint-order:normal"
         id="rect1046"
         width="2.735805"
         height="2.5909154"
         x="99.84288"
         y="249.86191"
         ry="0.6363669" />
      <path
         inkscape:transform-center-y="-21.691619"
         style="fill:#225577;fill-opacity:1;stroke:#225577;stroke-width:0.63807893;stroke-linecap:square;stroke-linejoin:miter;stroke-miterlimit:4;stroke-dasharray:none;stroke-opacity:1"
         d="m 100.217,258.13449 -2.254894,-2.81798"
         id="path1050"
         inkscape:connector-curvature="0"
         inkscape:transform-center-x="-10.768081" />
      <rect
         ry="0.6363669"
         y="-260.30908"
         x="99.803802"
         height="2.5909154"
         width="2.735805"
         id="rect1052"
         style="opacity:1;fill:#225577;fill-opacity:1;fill-rule:evenodd;stroke:none;stroke-width:0.94412929;stroke-linecap:round;stroke-linejoin:miter;stroke-miterlimit:4;stroke-dasharray:none;stroke-opacity:1;paint-order:normal"
         transform="scale(1,-1)" />
      <rect
         style="opacity:1;fill:#225577;fill-opacity:1;fill-rule:evenodd;stroke:none;stroke-width:0.94412929;stroke-linecap:round;stroke-linejoin:miter;stroke-miterlimit:4;stroke-dasharray:none;stroke-opacity:1;paint-order:normal"
         id="rect1074"
         width="2.735805"
         height="2.5909154"
         x="96.014275"
         y="253.55078"
         ry="0.6363669" />
      <rect
         style="opacity:1;fill:#99cc00;fill-opacity:1;fill-rule:evenodd;stroke:none;stroke-width:0.94412929;stroke-linecap:round;stroke-linejoin:miter;stroke-miterlimit:4;stroke-dasharray:none;stroke-opacity:1;paint-order:normal"
         id="rect1076"
         width="2.735805"
         height="2.5909154"
         x="87.230537"
         y="249.9015"
         ry="0.6363669" />
      <rect
         ry="0.6363669"
         y="257.65433"
         x="87.592918"
         height="2.5909154"
         width="2.735805"
         id="rect1078"
         style="opacity:1;fill:#225577;fill-opacity:1;fill-rule:evenodd;stroke:none;stroke-width:0.94412929;stroke-linecap:round;stroke-linejoin:miter;stroke-miterlimit:4;stroke-dasharray:none;stroke-opacity:1;paint-order:normal" />
    </g>
  </g>
  <style
     id="style5323"
     type="text/css">
	.st0{fill:none;stroke:#52225E;stroke-width:2.8;stroke-linecap:round;stroke-miterlimit:10;}
	.st1{fill:#52225E;stroke:#52225E;stroke-width:0.8;stroke-miterlimit:10;}
	.st2{fill:none;stroke:#52225E;stroke-width:2.8;stroke-miterlimit:10;}
</style>
</svg>
